%TF.GenerationSoftware,KiCad,Pcbnew,7.0.9-7.0.9~ubuntu22.04.1*%
%TF.CreationDate,2025-02-28T15:02:42+02:00*%
%TF.ProjectId,UEXT-3TO5V_Rev_A,55455854-2d33-4544-9f35-565f5265765f,A*%
%TF.SameCoordinates,PX68e7780PY76bb820*%
%TF.FileFunction,Paste,Top*%
%TF.FilePolarity,Positive*%
%FSLAX46Y46*%
G04 Gerber Fmt 4.6, Leading zero omitted, Abs format (unit mm)*
G04 Created by KiCad (PCBNEW 7.0.9-7.0.9~ubuntu22.04.1) date 2025-02-28 15:02:42*
%MOMM*%
%LPD*%
G01*
G04 APERTURE LIST*
G04 Aperture macros list*
%AMOutline4P*
0 Free polygon, 4 corners , with rotation*
0 The origin of the aperture is its center*
0 number of corners: always 4*
0 $1 to $8 corner X, Y*
0 $9 Rotation angle, in degrees counterclockwise*
0 create outline with 4 corners*
4,1,4,$1,$2,$3,$4,$5,$6,$7,$8,$1,$2,$9*%
G04 Aperture macros list end*
%ADD10C,1.000000*%
%ADD11R,0.500000X0.550000*%
%ADD12Outline4P,-0.850000X-2.275000X0.850000X-2.275000X0.850000X2.275000X-0.850000X2.275000X90.000000*%
%ADD13R,1.016000X1.016000*%
%ADD14R,0.550000X0.500000*%
%ADD15R,0.980000X0.230000*%
%ADD16R,1.200000X0.550000*%
%ADD17R,2.000000X1.700000*%
%ADD18R,1.000000X1.400000*%
%ADD19R,4.500000X1.750000*%
G04 APERTURE END LIST*
D10*
%TO.C,FID4*%
X12174000Y1691000D03*
%TD*%
D11*
%TO.C,C6*%
X35288000Y14137000D03*
X36304000Y14137000D03*
%TD*%
D12*
%TO.C,UEXT_3V3*%
X2875000Y6420000D03*
X9125000Y6420000D03*
X2875000Y8960000D03*
X9125000Y8960000D03*
X2875000Y11500000D03*
X9125000Y11500000D03*
X2875000Y14040000D03*
X9125000Y14040000D03*
X2875000Y16580000D03*
X9125000Y16580000D03*
%TD*%
D13*
%TO.C,C10*%
X26017000Y2072000D03*
X24239000Y2072000D03*
%TD*%
D11*
%TO.C,R6*%
X20048000Y2326000D03*
X21064000Y2326000D03*
%TD*%
D14*
%TO.C,R3*%
X21953000Y18963000D03*
X21953000Y19979000D03*
%TD*%
D15*
%TO.C,U3*%
X33486000Y14276000D03*
X33486000Y14776000D03*
X33486000Y15276000D03*
X33486000Y15776000D03*
X30486000Y15776000D03*
X30486000Y15276000D03*
X30486000Y14776000D03*
X30486000Y14276000D03*
%TD*%
D16*
%TO.C,U4*%
X20459100Y8107000D03*
X20459100Y9057000D03*
X20459100Y10007000D03*
X17858900Y10007000D03*
X17858900Y9057000D03*
X17858900Y8107000D03*
%TD*%
D17*
%TO.C,D1*%
X26358000Y5882000D03*
X21358000Y5882000D03*
%TD*%
D11*
%TO.C,R5*%
X21064000Y1437000D03*
X20048000Y1437000D03*
%TD*%
%TO.C,C4*%
X35288000Y8930000D03*
X36304000Y8930000D03*
%TD*%
%TO.C,R2*%
X25382000Y14137000D03*
X24366000Y14137000D03*
%TD*%
%TO.C,C5*%
X28684000Y14137000D03*
X27668000Y14137000D03*
%TD*%
%TO.C,C2*%
X35288000Y10708000D03*
X36304000Y10708000D03*
%TD*%
D10*
%TO.C,FID2*%
X37701000Y21376000D03*
%TD*%
D18*
%TO.C,FET1*%
X19606040Y16077560D03*
X21508500Y16077560D03*
X20553460Y18287360D03*
%TD*%
D13*
%TO.C,C9*%
X26017000Y3596000D03*
X24239000Y3596000D03*
%TD*%
D15*
%TO.C,U1*%
X33486000Y10847000D03*
X33486000Y11347000D03*
X33486000Y11847000D03*
X33486000Y12347000D03*
X30486000Y12347000D03*
X30486000Y11847000D03*
X30486000Y11347000D03*
X30486000Y10847000D03*
%TD*%
D14*
%TO.C,R4*%
X23477000Y18963000D03*
X23477000Y19979000D03*
%TD*%
D11*
%TO.C,R1*%
X20048000Y14137000D03*
X21064000Y14137000D03*
%TD*%
D18*
%TO.C,FET2*%
X23924040Y16077560D03*
X25826500Y16077560D03*
X24871460Y18287360D03*
%TD*%
D19*
%TO.C,L1*%
X24239000Y8727000D03*
X24239000Y11927000D03*
%TD*%
D13*
%TO.C,C8*%
X15857000Y9565000D03*
X15857000Y7787000D03*
%TD*%
D15*
%TO.C,U2*%
X30486000Y8791000D03*
X30486000Y8291000D03*
X30486000Y7791000D03*
X30486000Y7291000D03*
X33486000Y7291000D03*
X33486000Y7791000D03*
X33486000Y8291000D03*
X33486000Y8791000D03*
%TD*%
D12*
%TO.C,UEXT_5V0*%
X40875000Y6420000D03*
X47125000Y6420000D03*
X40875000Y8960000D03*
X47125000Y8960000D03*
X40875000Y11500000D03*
X47125000Y11500000D03*
X40875000Y14040000D03*
X47125000Y14040000D03*
X40875000Y16580000D03*
X47125000Y16580000D03*
%TD*%
D11*
%TO.C,C1*%
X28684000Y10708000D03*
X27668000Y10708000D03*
%TD*%
%TO.C,C3*%
X28684000Y8930000D03*
X27668000Y8930000D03*
%TD*%
D13*
%TO.C,C7*%
X14333000Y9565000D03*
X14333000Y7787000D03*
%TD*%
M02*
