%TF.GenerationSoftware,KiCad,Pcbnew,7.0.9-7.0.9~ubuntu22.04.1*%
%TF.CreationDate,2025-02-28T15:02:42+02:00*%
%TF.ProjectId,UEXT-3TO5V_Rev_A,55455854-2d33-4544-9f35-565f5265765f,A*%
%TF.SameCoordinates,PX68e7780PY76bb820*%
%TF.FileFunction,Legend,Bot*%
%TF.FilePolarity,Positive*%
%FSLAX46Y46*%
G04 Gerber Fmt 4.6, Leading zero omitted, Abs format (unit mm)*
G04 Created by KiCad (PCBNEW 7.0.9-7.0.9~ubuntu22.04.1) date 2025-02-28 15:02:42*
%MOMM*%
%LPD*%
G01*
G04 APERTURE LIST*
%ADD10C,0.254000*%
%ADD11C,0.350000*%
%ADD12C,0.500000*%
%ADD13C,0.300000*%
%ADD14C,0.200000*%
%ADD15C,0.150000*%
%ADD16C,0.127000*%
%ADD17C,0.700000*%
%ADD18C,0.100000*%
%ADD19C,0.400000*%
%ADD20C,0.370000*%
%ADD21C,0.380000*%
%ADD22C,1.000000*%
%ADD23C,0.420000*%
%ADD24C,0.508000*%
G04 APERTURE END LIST*
D10*
G36*
X3027339Y3875433D02*
G01*
X3046578Y3856194D01*
X3079506Y3790338D01*
X3120714Y3625506D01*
X3120714Y3414869D01*
X3079506Y3250037D01*
X3046578Y3184181D01*
X3027340Y3164944D01*
X2975829Y3139188D01*
X2939027Y3139188D01*
X2887515Y3164944D01*
X2868278Y3184181D01*
X2835350Y3250037D01*
X2794142Y3414869D01*
X2794142Y3625506D01*
X2835350Y3790338D01*
X2868278Y3856194D01*
X2887517Y3875433D01*
X2939027Y3901188D01*
X2975829Y3901188D01*
X3027339Y3875433D01*
G37*
G36*
X7583856Y2353321D02*
G01*
X459761Y2353321D01*
X459761Y3205711D01*
X604904Y3205711D01*
X608147Y3194666D01*
X606911Y3183218D01*
X618312Y3148915D01*
X666693Y3052153D01*
X668313Y3050411D01*
X668820Y3048084D01*
X690482Y3019146D01*
X738863Y2970765D01*
X740953Y2969624D01*
X742169Y2967577D01*
X771871Y2946975D01*
X868633Y2898595D01*
X879963Y2896557D01*
X889648Y2890332D01*
X925428Y2885188D01*
X1167333Y2885188D01*
X1178377Y2888432D01*
X1189825Y2887195D01*
X1224128Y2898595D01*
X1320890Y2946975D01*
X1322633Y2948597D01*
X1324960Y2949103D01*
X1353898Y2970765D01*
X1402279Y3019146D01*
X1436573Y3081953D01*
X1431469Y3153331D01*
X1388584Y3210617D01*
X1321536Y3235625D01*
X1251611Y3220414D01*
X1222673Y3198752D01*
X1188864Y3164944D01*
X1137353Y3139188D01*
X955408Y3139188D01*
X903896Y3164944D01*
X884659Y3184181D01*
X858904Y3235691D01*
X858904Y3417636D01*
X884659Y3469146D01*
X903898Y3488385D01*
X955408Y3514140D01*
X1137353Y3514140D01*
X1188863Y3488385D01*
X1222673Y3454575D01*
X1247949Y3440774D01*
X1271475Y3424179D01*
X1278930Y3423858D01*
X1285480Y3420281D01*
X1314201Y3422335D01*
X1342969Y3421093D01*
X1349414Y3424853D01*
X1356858Y3425385D01*
X1379909Y3442642D01*
X1404781Y3457150D01*
X1408171Y3463799D01*
X1414144Y3468270D01*
X1424205Y3495246D01*
X1437287Y3520901D01*
X1437746Y3531551D01*
X1439152Y3535318D01*
X1438115Y3540085D01*
X1438846Y3557015D01*
X1420757Y3737902D01*
X1572523Y3737902D01*
X1573193Y3735619D01*
X1572606Y3733312D01*
X1579040Y3697741D01*
X1627421Y3552598D01*
X1633991Y3543144D01*
X1636439Y3531894D01*
X1658102Y3502956D01*
X2021870Y3139188D01*
X1699523Y3139188D01*
X1630862Y3119027D01*
X1584000Y3064946D01*
X1573816Y2994114D01*
X1603543Y2929021D01*
X1663743Y2890332D01*
X1699523Y2885188D01*
X2328476Y2885188D01*
X2350235Y2891578D01*
X2372858Y2893195D01*
X2383902Y2901463D01*
X2397137Y2905349D01*
X2411987Y2922488D01*
X2430145Y2936080D01*
X2434965Y2949006D01*
X2443999Y2959430D01*
X2447226Y2981879D01*
X2455152Y3003128D01*
X2452219Y3016608D01*
X2454183Y3030262D01*
X2444761Y3050892D01*
X2439941Y3073053D01*
X2426349Y3091209D01*
X2424456Y3095355D01*
X2422123Y3096854D01*
X2418278Y3101991D01*
X2121033Y3399235D01*
X2540142Y3399235D01*
X2541114Y3395923D01*
X2543934Y3368433D01*
X2592315Y3174909D01*
X2594567Y3171070D01*
X2601931Y3148915D01*
X2650312Y3052153D01*
X2651932Y3050411D01*
X2652439Y3048084D01*
X2674101Y3019146D01*
X2722482Y2970765D01*
X2724572Y2969624D01*
X2725788Y2967577D01*
X2755490Y2946975D01*
X2852252Y2898595D01*
X2863582Y2896557D01*
X2873267Y2890332D01*
X2909047Y2885188D01*
X3005809Y2885188D01*
X3016853Y2888432D01*
X3028301Y2887195D01*
X3062604Y2898595D01*
X3159366Y2946975D01*
X3161109Y2948597D01*
X3163436Y2949103D01*
X3192374Y2970765D01*
X3240755Y3019146D01*
X3241896Y3021236D01*
X3243942Y3022451D01*
X3264544Y3052153D01*
X3312925Y3148915D01*
X3313713Y3153296D01*
X3322541Y3174909D01*
X3370922Y3368433D01*
X3370781Y3371884D01*
X3374714Y3399235D01*
X3374714Y3641140D01*
X3373741Y3644453D01*
X3370922Y3671942D01*
X3354432Y3737902D01*
X3507761Y3737902D01*
X3508431Y3735619D01*
X3507844Y3733312D01*
X3514278Y3697741D01*
X3562659Y3552598D01*
X3569229Y3543144D01*
X3571677Y3531894D01*
X3593340Y3502956D01*
X3957108Y3139188D01*
X3634761Y3139188D01*
X3566100Y3119027D01*
X3519238Y3064946D01*
X3509054Y2994114D01*
X3538781Y2929021D01*
X3598981Y2890332D01*
X3634761Y2885188D01*
X4263714Y2885188D01*
X4285473Y2891578D01*
X4308096Y2893195D01*
X4319140Y2901463D01*
X4332375Y2905349D01*
X4347225Y2922488D01*
X4365383Y2936080D01*
X4370203Y2949006D01*
X4379237Y2959430D01*
X4382464Y2981879D01*
X4390390Y3003128D01*
X4387457Y3016608D01*
X4389421Y3030262D01*
X4379999Y3050892D01*
X4375179Y3073053D01*
X4361587Y3091209D01*
X4359694Y3095355D01*
X4357361Y3096854D01*
X4353516Y3101991D01*
X4153034Y3302473D01*
X5297856Y3302473D01*
X5299213Y3297851D01*
X5300322Y3277566D01*
X5348703Y3035661D01*
X5350674Y3031901D01*
X5352754Y3020407D01*
X5401135Y2875265D01*
X5403745Y2871509D01*
X5408026Y2858630D01*
X5456407Y2761868D01*
X5459298Y2758760D01*
X5464329Y2748217D01*
X5561091Y2603074D01*
X5564783Y2599982D01*
X5576958Y2583718D01*
X5625339Y2535337D01*
X5688146Y2501043D01*
X5759524Y2506147D01*
X5816810Y2549032D01*
X5841818Y2616080D01*
X5826607Y2686005D01*
X5804945Y2714943D01*
X5765453Y2754435D01*
X5680055Y2882532D01*
X5639247Y2964147D01*
X5596219Y3093230D01*
X5591263Y3118009D01*
X5927132Y3118009D01*
X5942343Y3048084D01*
X5964005Y3019146D01*
X6012386Y2970765D01*
X6022491Y2965247D01*
X6029712Y2956279D01*
X6062029Y2940085D01*
X6207172Y2891705D01*
X6209549Y2891620D01*
X6211552Y2890332D01*
X6247332Y2885188D01*
X6344094Y2885188D01*
X6346377Y2885859D01*
X6348684Y2885271D01*
X6384254Y2891705D01*
X6529397Y2940085D01*
X6538851Y2946656D01*
X6550102Y2949103D01*
X6579040Y2970765D01*
X6675801Y3067527D01*
X6676941Y3069617D01*
X6678989Y3070832D01*
X6699591Y3100534D01*
X6747972Y3197296D01*
X6748760Y3201677D01*
X6757588Y3223290D01*
X6805969Y3416814D01*
X6805828Y3420265D01*
X6809761Y3447616D01*
X6809761Y3592759D01*
X6808788Y3596072D01*
X6805969Y3623561D01*
X6757588Y3817085D01*
X6755335Y3820925D01*
X6747972Y3843079D01*
X6699591Y3939841D01*
X6697970Y3941584D01*
X6697464Y3943910D01*
X6675801Y3972848D01*
X6579040Y4069610D01*
X6568934Y4075128D01*
X6561715Y4084095D01*
X6529398Y4100290D01*
X6384255Y4148671D01*
X6381876Y4148758D01*
X6379874Y4150044D01*
X6344094Y4155188D01*
X6247332Y4155188D01*
X6245047Y4154518D01*
X6242741Y4155105D01*
X6207171Y4148671D01*
X6062028Y4100290D01*
X6052573Y4093720D01*
X6041324Y4091272D01*
X6012386Y4069610D01*
X5964005Y4021229D01*
X5929711Y3958422D01*
X5934815Y3887044D01*
X5977700Y3829757D01*
X6044748Y3804750D01*
X6114673Y3819961D01*
X6143611Y3841623D01*
X6170793Y3868805D01*
X6267942Y3901188D01*
X6323484Y3901188D01*
X6420633Y3868805D01*
X6481624Y3807815D01*
X6514553Y3741957D01*
X6555761Y3577125D01*
X6555761Y3463250D01*
X6514553Y3298418D01*
X6481624Y3232561D01*
X6420633Y3171570D01*
X6323485Y3139188D01*
X6267941Y3139188D01*
X6170793Y3171570D01*
X6143611Y3198752D01*
X6080804Y3233046D01*
X6009426Y3227942D01*
X5952139Y3185057D01*
X5927132Y3118009D01*
X5591263Y3118009D01*
X5551856Y3315050D01*
X5551856Y3483421D01*
X5596220Y3705242D01*
X5639248Y3834325D01*
X5680054Y3915939D01*
X5765454Y4044037D01*
X5804945Y4083527D01*
X5839239Y4146334D01*
X5836661Y4182390D01*
X6894751Y4182390D01*
X6909962Y4112465D01*
X6931624Y4083527D01*
X6971116Y4044035D01*
X7056514Y3915939D01*
X7097321Y3834325D01*
X7140348Y3705243D01*
X7184713Y3483420D01*
X7184713Y3315050D01*
X7140348Y3093228D01*
X7097321Y2964147D01*
X7056514Y2882532D01*
X6971116Y2754435D01*
X6931624Y2714943D01*
X6897330Y2652136D01*
X6902434Y2580758D01*
X6945319Y2523471D01*
X7012367Y2498464D01*
X7082292Y2513675D01*
X7111230Y2535337D01*
X7159611Y2583718D01*
X7161921Y2587951D01*
X7175478Y2603074D01*
X7272240Y2748217D01*
X7273504Y2752270D01*
X7280162Y2761868D01*
X7328543Y2858630D01*
X7329352Y2863131D01*
X7335434Y2875265D01*
X7383815Y3020407D01*
X7383968Y3024650D01*
X7387866Y3035661D01*
X7436247Y3277567D01*
X7435822Y3282368D01*
X7438713Y3302473D01*
X7438713Y3495997D01*
X7437355Y3500620D01*
X7436247Y3520903D01*
X7387866Y3762809D01*
X7385894Y3766570D01*
X7383815Y3778063D01*
X7335434Y3923206D01*
X7332823Y3926963D01*
X7328543Y3939841D01*
X7280162Y4036603D01*
X7277271Y4039711D01*
X7272240Y4050255D01*
X7175478Y4195396D01*
X7171785Y4198489D01*
X7159611Y4214752D01*
X7111230Y4263133D01*
X7048423Y4297427D01*
X6977045Y4292323D01*
X6919758Y4249438D01*
X6894751Y4182390D01*
X5836661Y4182390D01*
X5834135Y4217712D01*
X5791250Y4274998D01*
X5724202Y4300006D01*
X5654277Y4284795D01*
X5625339Y4263133D01*
X5576958Y4214752D01*
X5574647Y4210520D01*
X5561091Y4195396D01*
X5464329Y4050254D01*
X5463064Y4046202D01*
X5456407Y4036603D01*
X5408026Y3939841D01*
X5407216Y3935341D01*
X5401135Y3923206D01*
X5352754Y3778063D01*
X5352600Y3773821D01*
X5348703Y3762809D01*
X5300322Y3520904D01*
X5300746Y3516103D01*
X5297856Y3495997D01*
X5297856Y3302473D01*
X4153034Y3302473D01*
X3794144Y3661362D01*
X3761761Y3758512D01*
X3761761Y3804684D01*
X3787516Y3856194D01*
X3806755Y3875433D01*
X3858265Y3901188D01*
X4040210Y3901188D01*
X4091720Y3875433D01*
X4125530Y3841623D01*
X4188337Y3807329D01*
X4259715Y3812433D01*
X4317001Y3855318D01*
X4342009Y3922366D01*
X4326798Y3992291D01*
X4305136Y4021229D01*
X4256755Y4069610D01*
X4254665Y4070752D01*
X4253450Y4072797D01*
X4223748Y4093399D01*
X4126986Y4141780D01*
X4115656Y4143819D01*
X4105970Y4150044D01*
X4070190Y4155188D01*
X3828285Y4155188D01*
X3817239Y4151945D01*
X3805792Y4153181D01*
X3771489Y4141780D01*
X3674727Y4093399D01*
X3672984Y4091779D01*
X3670658Y4091272D01*
X3641720Y4069610D01*
X3593339Y4021229D01*
X3592197Y4019140D01*
X3590152Y4017924D01*
X3569550Y3988222D01*
X3521169Y3891460D01*
X3519130Y3880131D01*
X3512905Y3870444D01*
X3507761Y3834664D01*
X3507761Y3737902D01*
X3354432Y3737902D01*
X3322541Y3865466D01*
X3320288Y3869306D01*
X3312925Y3891460D01*
X3264544Y3988222D01*
X3262923Y3989965D01*
X3262417Y3992291D01*
X3240755Y4021229D01*
X3192374Y4069610D01*
X3190284Y4070752D01*
X3189069Y4072797D01*
X3159367Y4093399D01*
X3062605Y4141780D01*
X3051275Y4143819D01*
X3041589Y4150044D01*
X3005809Y4155188D01*
X2909047Y4155188D01*
X2898001Y4151945D01*
X2886554Y4153181D01*
X2852251Y4141780D01*
X2755489Y4093399D01*
X2753746Y4091779D01*
X2751420Y4091272D01*
X2722482Y4069610D01*
X2674101Y4021229D01*
X2672959Y4019140D01*
X2670914Y4017924D01*
X2650312Y3988222D01*
X2601931Y3891460D01*
X2601142Y3887080D01*
X2592315Y3865466D01*
X2543934Y3671942D01*
X2544074Y3668492D01*
X2540142Y3641140D01*
X2540142Y3399235D01*
X2121033Y3399235D01*
X1858906Y3661362D01*
X1826523Y3758512D01*
X1826523Y3804684D01*
X1852278Y3856194D01*
X1871517Y3875433D01*
X1923027Y3901188D01*
X2104972Y3901188D01*
X2156482Y3875433D01*
X2190292Y3841623D01*
X2253099Y3807329D01*
X2324477Y3812433D01*
X2381763Y3855318D01*
X2406771Y3922366D01*
X2391560Y3992291D01*
X2369898Y4021229D01*
X2321517Y4069610D01*
X2319427Y4070752D01*
X2318212Y4072797D01*
X2288510Y4093399D01*
X2191748Y4141780D01*
X2180418Y4143819D01*
X2170732Y4150044D01*
X2134952Y4155188D01*
X1893047Y4155188D01*
X1882001Y4151945D01*
X1870554Y4153181D01*
X1836251Y4141780D01*
X1739489Y4093399D01*
X1737746Y4091779D01*
X1735420Y4091272D01*
X1706482Y4069610D01*
X1658101Y4021229D01*
X1656959Y4019140D01*
X1654914Y4017924D01*
X1634312Y3988222D01*
X1585931Y3891460D01*
X1583892Y3880131D01*
X1577667Y3870444D01*
X1572523Y3834664D01*
X1572523Y3737902D01*
X1420757Y3737902D01*
X1390465Y4040825D01*
X1389398Y4043456D01*
X1389802Y4046262D01*
X1376033Y4076411D01*
X1363572Y4107139D01*
X1361253Y4108775D01*
X1360075Y4111355D01*
X1332179Y4129283D01*
X1305096Y4148387D01*
X1302263Y4148510D01*
X1299875Y4150044D01*
X1264095Y4155188D01*
X780285Y4155188D01*
X711624Y4135027D01*
X664762Y4080946D01*
X654578Y4010114D01*
X684305Y3945021D01*
X744505Y3906332D01*
X780285Y3901188D01*
X1149161Y3901188D01*
X1162466Y3768140D01*
X925428Y3768140D01*
X914382Y3764897D01*
X902935Y3766133D01*
X868632Y3754732D01*
X771870Y3706351D01*
X770127Y3704731D01*
X767801Y3704224D01*
X738863Y3682562D01*
X690482Y3634181D01*
X689340Y3632092D01*
X687295Y3630876D01*
X666693Y3601174D01*
X618312Y3504412D01*
X616273Y3493083D01*
X610048Y3483396D01*
X604904Y3447616D01*
X604904Y3205711D01*
X459761Y3205711D01*
X459761Y4445149D01*
X7583856Y4445149D01*
X7583856Y2353321D01*
G37*
G36*
X2350005Y6203766D02*
G01*
X2369244Y6184527D01*
X2394999Y6133017D01*
X2394999Y5902691D01*
X2369244Y5851181D01*
X2350006Y5831944D01*
X2298495Y5806188D01*
X2213312Y5806188D01*
X2161800Y5831944D01*
X2142563Y5851181D01*
X2116808Y5902691D01*
X2116808Y6133017D01*
X2142563Y6184527D01*
X2161802Y6203766D01*
X2213312Y6229521D01*
X2298495Y6229521D01*
X2350005Y6203766D01*
G37*
G36*
X5426958Y6213480D02*
G01*
X5442999Y6181398D01*
X5442999Y6172770D01*
X5232148Y6214940D01*
X5261312Y6229521D01*
X5394876Y6229521D01*
X5426958Y6213480D01*
G37*
G36*
X8687910Y6203766D02*
G01*
X8707149Y6184527D01*
X8732904Y6133017D01*
X8732904Y5902691D01*
X8707149Y5851181D01*
X8687911Y5831944D01*
X8636400Y5806188D01*
X8551217Y5806188D01*
X8499705Y5831944D01*
X8480468Y5851181D01*
X8454713Y5902691D01*
X8454713Y6133017D01*
X8480468Y6184527D01*
X8499707Y6203766D01*
X8551217Y6229521D01*
X8636400Y6229521D01*
X8687910Y6203766D01*
G37*
G36*
X12852495Y5407045D02*
G01*
X411380Y5407045D01*
X411380Y5679188D01*
X556523Y5679188D01*
X576684Y5610527D01*
X630765Y5563665D01*
X701597Y5553481D01*
X766690Y5583208D01*
X805379Y5643408D01*
X810523Y5679188D01*
X810523Y6181398D01*
X826563Y6213480D01*
X858646Y6229521D01*
X943828Y6229521D01*
X975910Y6213480D01*
X991951Y6181398D01*
X991951Y5679188D01*
X1012112Y5610527D01*
X1066193Y5563665D01*
X1137025Y5553481D01*
X1202118Y5583208D01*
X1240807Y5643408D01*
X1245951Y5679188D01*
X1245951Y6181398D01*
X1261992Y6213480D01*
X1294074Y6229521D01*
X1379257Y6229521D01*
X1427380Y6205460D01*
X1427380Y5679188D01*
X1447541Y5610527D01*
X1501622Y5563665D01*
X1572454Y5553481D01*
X1637547Y5583208D01*
X1676236Y5643408D01*
X1681380Y5679188D01*
X1681380Y5872711D01*
X1862808Y5872711D01*
X1866051Y5861666D01*
X1864815Y5850218D01*
X1876216Y5815915D01*
X1924597Y5719153D01*
X1926217Y5717411D01*
X1926724Y5715084D01*
X1948386Y5686146D01*
X1996767Y5637765D01*
X1998857Y5636624D01*
X2000073Y5634577D01*
X2029775Y5613975D01*
X2126537Y5565595D01*
X2137867Y5563557D01*
X2147552Y5557332D01*
X2183332Y5552188D01*
X2328475Y5552188D01*
X2339519Y5555432D01*
X2350967Y5554195D01*
X2385270Y5565595D01*
X2482032Y5613975D01*
X2483775Y5615597D01*
X2486102Y5616103D01*
X2515040Y5637765D01*
X2563421Y5686146D01*
X2564562Y5688236D01*
X2566608Y5689451D01*
X2587210Y5719153D01*
X2635591Y5815915D01*
X2637629Y5827245D01*
X2643855Y5836931D01*
X2648999Y5872711D01*
X2648999Y6162997D01*
X2645755Y6174043D01*
X2646992Y6185490D01*
X2635591Y6219793D01*
X2593655Y6303665D01*
X2782125Y6303665D01*
X2804693Y6235756D01*
X2860392Y6190830D01*
X2931539Y6183147D01*
X2965842Y6194548D01*
X3035788Y6229521D01*
X3169352Y6229521D01*
X3220862Y6203766D01*
X3240101Y6184527D01*
X3265856Y6133017D01*
X3265856Y5902691D01*
X3240101Y5851181D01*
X3220863Y5831944D01*
X3169352Y5806188D01*
X3035788Y5806188D01*
X2965841Y5841161D01*
X2895413Y5853834D01*
X2829312Y5826419D01*
X2788527Y5767619D01*
X2786006Y5696104D01*
X2822549Y5634577D01*
X2852251Y5613975D01*
X2949013Y5565595D01*
X2960343Y5563557D01*
X2970028Y5557332D01*
X3005808Y5552188D01*
X3199332Y5552188D01*
X3210376Y5555432D01*
X3221824Y5554195D01*
X3256127Y5565595D01*
X3352889Y5613975D01*
X3354632Y5615597D01*
X3356959Y5616103D01*
X3385897Y5637765D01*
X3434278Y5686146D01*
X3435419Y5688236D01*
X3437465Y5689451D01*
X3458067Y5719153D01*
X3466804Y5736627D01*
X3653228Y5736627D01*
X3658980Y5710183D01*
X3660911Y5683186D01*
X3666467Y5675763D01*
X3668439Y5666702D01*
X3690102Y5637765D01*
X3738483Y5589385D01*
X3746620Y5584942D01*
X3752176Y5577520D01*
X3765101Y5572700D01*
X3775527Y5563665D01*
X3789183Y5561702D01*
X3801290Y5555091D01*
X3810536Y5555753D01*
X3819224Y5552512D01*
X3832704Y5555445D01*
X3846359Y5553481D01*
X3858907Y5559212D01*
X3872668Y5560196D01*
X3880088Y5565752D01*
X3889149Y5567722D01*
X3907306Y5581315D01*
X3911452Y5583208D01*
X3912950Y5585540D01*
X3918087Y5589385D01*
X3966467Y5637764D01*
X3970911Y5645904D01*
X3978334Y5651460D01*
X3987791Y5676816D01*
X3995649Y5691206D01*
X4088902Y5691206D01*
X4102475Y5620945D01*
X4151879Y5569176D01*
X4221429Y5552335D01*
X4289044Y5575768D01*
X4315194Y5600725D01*
X4481427Y5812295D01*
X4647660Y5600725D01*
X4705934Y5559191D01*
X4777411Y5555755D01*
X4839399Y5591509D01*
X4872217Y5655100D01*
X4865446Y5726339D01*
X4847385Y5757652D01*
X4642939Y6017855D01*
X4718966Y6114616D01*
X4959189Y6114616D01*
X4968332Y6083477D01*
X4975762Y6051887D01*
X4978340Y6049394D01*
X4979350Y6045955D01*
X5003867Y6024710D01*
X5027206Y6002143D01*
X5031779Y6000525D01*
X5033431Y5999093D01*
X5037459Y5998514D01*
X5061282Y5990082D01*
X5442999Y5913739D01*
X5442999Y5854310D01*
X5426958Y5822230D01*
X5394876Y5806188D01*
X5261312Y5806188D01*
X5191365Y5841161D01*
X5120937Y5853834D01*
X5054836Y5826419D01*
X5014051Y5767619D01*
X5011530Y5696104D01*
X5048073Y5634577D01*
X5077775Y5613975D01*
X5174537Y5565595D01*
X5185867Y5563557D01*
X5195552Y5557332D01*
X5231332Y5552188D01*
X5424856Y5552188D01*
X5435900Y5555432D01*
X5447348Y5554195D01*
X5481651Y5565595D01*
X5578413Y5613975D01*
X5595059Y5629460D01*
X5614608Y5641070D01*
X5627458Y5659597D01*
X5630810Y5662714D01*
X5631504Y5665430D01*
X5635210Y5670772D01*
X5639418Y5679188D01*
X5878428Y5679188D01*
X5898589Y5610527D01*
X5952670Y5563665D01*
X6023502Y5553481D01*
X6088595Y5583208D01*
X6127284Y5643408D01*
X6132428Y5679188D01*
X6132428Y6181398D01*
X6148468Y6213480D01*
X6180551Y6229521D01*
X6265733Y6229521D01*
X6297815Y6213480D01*
X6313856Y6181398D01*
X6313856Y5679188D01*
X6334017Y5610527D01*
X6388098Y5563665D01*
X6458930Y5553481D01*
X6524023Y5583208D01*
X6562712Y5643408D01*
X6567856Y5679188D01*
X6567856Y6181398D01*
X6583897Y6213480D01*
X6615979Y6229521D01*
X6701162Y6229521D01*
X6749285Y6205460D01*
X6749285Y5679188D01*
X6769446Y5610527D01*
X6823527Y5563665D01*
X6894359Y5553481D01*
X6959452Y5583208D01*
X6998141Y5643408D01*
X7003285Y5679188D01*
X7003285Y6356521D01*
X6983124Y6425182D01*
X6929043Y6472044D01*
X6858211Y6482228D01*
X6808820Y6459672D01*
X6787938Y6470113D01*
X6776608Y6472152D01*
X6766922Y6478377D01*
X6731142Y6483521D01*
X6585999Y6483521D01*
X6574953Y6480278D01*
X6563506Y6481514D01*
X6529203Y6470113D01*
X6440856Y6425940D01*
X6352509Y6470113D01*
X6341179Y6472152D01*
X6331493Y6478377D01*
X6295713Y6483521D01*
X6150570Y6483521D01*
X6139522Y6480278D01*
X6128076Y6481513D01*
X6093773Y6470113D01*
X5997012Y6421732D01*
X5980365Y6406247D01*
X5960819Y6394638D01*
X5947967Y6376110D01*
X5944617Y6372993D01*
X5943922Y6370279D01*
X5940217Y6364936D01*
X5891836Y6268174D01*
X5889797Y6256845D01*
X5883572Y6247158D01*
X5878428Y6211378D01*
X5878428Y5679188D01*
X5639418Y5679188D01*
X5683591Y5767534D01*
X5685629Y5778864D01*
X5691855Y5788550D01*
X5696999Y5824330D01*
X5696999Y6211378D01*
X5693755Y6222424D01*
X5694992Y6233871D01*
X5683591Y6268174D01*
X5635210Y6364936D01*
X5619725Y6381583D01*
X5608116Y6401130D01*
X5589589Y6413981D01*
X5586472Y6417332D01*
X5583756Y6418027D01*
X5578414Y6421732D01*
X5481652Y6470113D01*
X5470322Y6472152D01*
X5460636Y6478377D01*
X5424856Y6483521D01*
X5231332Y6483521D01*
X5220286Y6480278D01*
X5208839Y6481514D01*
X5174536Y6470113D01*
X5077774Y6421732D01*
X5061127Y6406248D01*
X5041580Y6394638D01*
X5028729Y6376112D01*
X5025378Y6372994D01*
X5024683Y6370279D01*
X5020978Y6364936D01*
X4972597Y6268174D01*
X4970558Y6256845D01*
X4964333Y6247158D01*
X4959189Y6211378D01*
X4959189Y6114616D01*
X4718966Y6114616D01*
X4847385Y6278057D01*
X4873952Y6344503D01*
X4860380Y6414763D01*
X4810975Y6466533D01*
X4741426Y6483374D01*
X4673811Y6459940D01*
X4647660Y6434984D01*
X4481427Y6223415D01*
X4315194Y6434984D01*
X4256921Y6476518D01*
X4185444Y6479954D01*
X4123456Y6444200D01*
X4090638Y6380609D01*
X4097409Y6309370D01*
X4115470Y6278058D01*
X4319915Y6017855D01*
X4115470Y5757651D01*
X4088902Y5691206D01*
X3995649Y5691206D01*
X4000763Y5700571D01*
X4000101Y5709821D01*
X4003342Y5718508D01*
X3997589Y5744953D01*
X3995659Y5771948D01*
X3990102Y5779371D01*
X3988131Y5788433D01*
X3966469Y5817371D01*
X3918088Y5865752D01*
X3909947Y5870197D01*
X3904393Y5877617D01*
X3891469Y5882438D01*
X3881043Y5891472D01*
X3867388Y5893436D01*
X3855281Y5900046D01*
X3846032Y5899385D01*
X3837345Y5902625D01*
X3823865Y5899693D01*
X3810211Y5901656D01*
X3797664Y5895927D01*
X3783903Y5894942D01*
X3776479Y5889385D01*
X3767420Y5887414D01*
X3749261Y5873822D01*
X3745118Y5871929D01*
X3743620Y5869599D01*
X3738482Y5865752D01*
X3690101Y5817371D01*
X3685656Y5809231D01*
X3678235Y5803675D01*
X3668778Y5778321D01*
X3655807Y5754564D01*
X3656468Y5745315D01*
X3653228Y5736627D01*
X3466804Y5736627D01*
X3506448Y5815915D01*
X3508486Y5827245D01*
X3514712Y5836931D01*
X3519856Y5872711D01*
X3519856Y6162997D01*
X3516612Y6174043D01*
X3517849Y6185490D01*
X3506448Y6219793D01*
X3458067Y6316555D01*
X3456446Y6318298D01*
X3455940Y6320624D01*
X3434278Y6349562D01*
X3385897Y6397943D01*
X3383807Y6399085D01*
X3382592Y6401130D01*
X3352890Y6421732D01*
X3256128Y6470113D01*
X3244798Y6472152D01*
X3235112Y6478377D01*
X3199332Y6483521D01*
X3005808Y6483521D01*
X2994762Y6480278D01*
X2983315Y6481514D01*
X2949012Y6470113D01*
X2852250Y6421732D01*
X2799854Y6372994D01*
X2782125Y6303665D01*
X2593655Y6303665D01*
X2587210Y6316555D01*
X2585589Y6318298D01*
X2585083Y6320624D01*
X2563421Y6349562D01*
X2515040Y6397943D01*
X2512950Y6399085D01*
X2511735Y6401130D01*
X2482033Y6421732D01*
X2385271Y6470113D01*
X2373941Y6472152D01*
X2364255Y6478377D01*
X2328475Y6483521D01*
X2183332Y6483521D01*
X2172286Y6480278D01*
X2160839Y6481514D01*
X2126536Y6470113D01*
X2029774Y6421732D01*
X2028031Y6420112D01*
X2025705Y6419605D01*
X1996767Y6397943D01*
X1948386Y6349562D01*
X1947244Y6347473D01*
X1945199Y6346257D01*
X1924597Y6316555D01*
X1876216Y6219793D01*
X1874177Y6208464D01*
X1867952Y6198777D01*
X1862808Y6162997D01*
X1862808Y5872711D01*
X1681380Y5872711D01*
X1681380Y6356521D01*
X1661219Y6425182D01*
X1607138Y6472044D01*
X1536306Y6482228D01*
X1486915Y6459672D01*
X1466033Y6470113D01*
X1454703Y6472152D01*
X1445017Y6478377D01*
X1409237Y6483521D01*
X1264094Y6483521D01*
X1253048Y6480278D01*
X1241601Y6481514D01*
X1207298Y6470113D01*
X1118951Y6425940D01*
X1030604Y6470113D01*
X1019274Y6472152D01*
X1009588Y6478377D01*
X973808Y6483521D01*
X828665Y6483521D01*
X817617Y6480278D01*
X806171Y6481513D01*
X771868Y6470113D01*
X675107Y6421732D01*
X658460Y6406247D01*
X638914Y6394638D01*
X626062Y6376110D01*
X622712Y6372993D01*
X622017Y6370279D01*
X618312Y6364936D01*
X569931Y6268174D01*
X567892Y6256845D01*
X561667Y6247158D01*
X556523Y6211378D01*
X556523Y5679188D01*
X411380Y5679188D01*
X411380Y6655867D01*
X7185038Y6655867D01*
X7190790Y6629423D01*
X7192721Y6602425D01*
X7198278Y6595002D01*
X7200249Y6585942D01*
X7221911Y6557004D01*
X7270292Y6508623D01*
X7278430Y6504179D01*
X7283987Y6496757D01*
X7296912Y6491937D01*
X7307337Y6482903D01*
X7320991Y6480940D01*
X7329284Y6476412D01*
X7276928Y6452501D01*
X7238239Y6392301D01*
X7233095Y6356521D01*
X7233095Y5679188D01*
X7253256Y5610527D01*
X7307337Y5563665D01*
X7378169Y5553481D01*
X7443262Y5583208D01*
X7481951Y5643408D01*
X7486452Y5674714D01*
X7620221Y5674714D01*
X7642789Y5606805D01*
X7698487Y5561878D01*
X7769634Y5554195D01*
X7803937Y5565595D01*
X7900699Y5613975D01*
X7917345Y5629460D01*
X7936894Y5641070D01*
X7949744Y5659597D01*
X7953096Y5662714D01*
X7953790Y5665430D01*
X7957496Y5670772D01*
X8005877Y5767534D01*
X8007915Y5778864D01*
X8014141Y5788550D01*
X8019285Y5824330D01*
X8019285Y5872711D01*
X8200713Y5872711D01*
X8203956Y5861666D01*
X8202720Y5850218D01*
X8214121Y5815915D01*
X8262502Y5719153D01*
X8264122Y5717411D01*
X8264629Y5715084D01*
X8286291Y5686146D01*
X8334672Y5637765D01*
X8336762Y5636624D01*
X8337978Y5634577D01*
X8367680Y5613975D01*
X8464442Y5565595D01*
X8475772Y5563557D01*
X8485457Y5557332D01*
X8521237Y5552188D01*
X8666380Y5552188D01*
X8677424Y5555432D01*
X8688872Y5554195D01*
X8723175Y5565595D01*
X8819937Y5613975D01*
X8821680Y5615597D01*
X8824007Y5616103D01*
X8852945Y5637765D01*
X8901326Y5686146D01*
X8902467Y5688236D01*
X8904513Y5689451D01*
X8925115Y5719153D01*
X8933852Y5736627D01*
X9120276Y5736627D01*
X9126028Y5710183D01*
X9127959Y5683186D01*
X9133515Y5675763D01*
X9135487Y5666702D01*
X9157150Y5637765D01*
X9205531Y5589385D01*
X9213668Y5584942D01*
X9219224Y5577520D01*
X9232149Y5572700D01*
X9242575Y5563665D01*
X9256231Y5561702D01*
X9268338Y5555091D01*
X9277584Y5555753D01*
X9286272Y5552512D01*
X9299752Y5555445D01*
X9313407Y5553481D01*
X9325955Y5559212D01*
X9339716Y5560196D01*
X9347136Y5565752D01*
X9356197Y5567722D01*
X9374354Y5581315D01*
X9378500Y5583208D01*
X9379998Y5585540D01*
X9385135Y5589385D01*
X9433515Y5637764D01*
X9437959Y5645904D01*
X9445382Y5651460D01*
X9454839Y5676816D01*
X9467811Y5700571D01*
X9467149Y5709821D01*
X9470390Y5718508D01*
X9464637Y5744953D01*
X9462707Y5771948D01*
X9457150Y5779371D01*
X9455179Y5788433D01*
X9433517Y5817371D01*
X9385136Y5865752D01*
X9376995Y5870197D01*
X9371441Y5877617D01*
X9358517Y5882438D01*
X9348091Y5891472D01*
X9334436Y5893436D01*
X9322329Y5900046D01*
X9313080Y5899385D01*
X9304393Y5902625D01*
X9290913Y5899693D01*
X9277259Y5901656D01*
X9264712Y5895927D01*
X9250951Y5894942D01*
X9243527Y5889385D01*
X9234468Y5887414D01*
X9216309Y5873822D01*
X9212166Y5871929D01*
X9210668Y5869599D01*
X9205530Y5865752D01*
X9157149Y5817371D01*
X9152704Y5809231D01*
X9145283Y5803675D01*
X9135826Y5778321D01*
X9122855Y5754564D01*
X9123516Y5745315D01*
X9120276Y5736627D01*
X8933852Y5736627D01*
X8973496Y5815915D01*
X8975534Y5827245D01*
X8981760Y5836931D01*
X8986904Y5872711D01*
X8986904Y6162997D01*
X8983660Y6174043D01*
X8984897Y6185490D01*
X8973496Y6219793D01*
X8925115Y6316555D01*
X8923494Y6318298D01*
X8922988Y6320624D01*
X8901326Y6349562D01*
X8893440Y6357448D01*
X9555383Y6357448D01*
X9560266Y6321631D01*
X9753790Y5644298D01*
X9770060Y5618571D01*
X9784015Y5591521D01*
X9788977Y5588659D01*
X9792038Y5583818D01*
X9819629Y5570973D01*
X9845999Y5555759D01*
X9851720Y5556034D01*
X9856913Y5553616D01*
X9887070Y5557728D01*
X9917476Y5559185D01*
X9922141Y5562510D01*
X9927817Y5563283D01*
X9950963Y5583046D01*
X9975756Y5600711D01*
X9979739Y5607615D01*
X9982239Y5609749D01*
X9983627Y5614355D01*
X9993821Y5632021D01*
X10069427Y5821039D01*
X10145035Y5632022D01*
X10163845Y5608088D01*
X10180487Y5582604D01*
X10185714Y5580263D01*
X10189254Y5575759D01*
X10218013Y5565796D01*
X10245796Y5553352D01*
X10251460Y5554209D01*
X10256872Y5552334D01*
X10286449Y5559501D01*
X10316551Y5564053D01*
X10320853Y5567837D01*
X10326420Y5569185D01*
X10347426Y5591203D01*
X10370290Y5611308D01*
X10373548Y5618584D01*
X10375817Y5620961D01*
X10376728Y5625684D01*
X10385066Y5644298D01*
X10578590Y6321631D01*
X10578328Y6357448D01*
X10619764Y6357448D01*
X10624647Y6321631D01*
X10818171Y5644298D01*
X10834441Y5618571D01*
X10848396Y5591521D01*
X10853358Y5588659D01*
X10856419Y5583818D01*
X10884010Y5570973D01*
X10910380Y5555759D01*
X10916101Y5556034D01*
X10921294Y5553616D01*
X10951451Y5557728D01*
X10981857Y5559185D01*
X10986522Y5562510D01*
X10992198Y5563283D01*
X11015344Y5583046D01*
X11040137Y5600711D01*
X11044120Y5607615D01*
X11046620Y5609749D01*
X11048008Y5614355D01*
X11058202Y5632021D01*
X11133808Y5821039D01*
X11209416Y5632022D01*
X11228226Y5608088D01*
X11244868Y5582604D01*
X11250095Y5580263D01*
X11253635Y5575759D01*
X11282394Y5565796D01*
X11310177Y5553352D01*
X11315841Y5554209D01*
X11321253Y5552334D01*
X11350830Y5559501D01*
X11380932Y5564053D01*
X11385234Y5567837D01*
X11390801Y5569185D01*
X11411807Y5591203D01*
X11434671Y5611308D01*
X11437929Y5618584D01*
X11440198Y5620961D01*
X11441109Y5625684D01*
X11449447Y5644298D01*
X11642971Y6321631D01*
X11642709Y6357448D01*
X11684145Y6357448D01*
X11689028Y6321631D01*
X11882552Y5644298D01*
X11898822Y5618571D01*
X11912777Y5591521D01*
X11917739Y5588659D01*
X11920800Y5583818D01*
X11948391Y5570973D01*
X11974761Y5555759D01*
X11980482Y5556034D01*
X11985675Y5553616D01*
X12015832Y5557728D01*
X12046238Y5559185D01*
X12050903Y5562510D01*
X12056579Y5563283D01*
X12079725Y5583046D01*
X12104518Y5600711D01*
X12108501Y5607615D01*
X12111001Y5609749D01*
X12112389Y5614355D01*
X12122583Y5632021D01*
X12198189Y5821039D01*
X12273797Y5632022D01*
X12292607Y5608088D01*
X12309249Y5582604D01*
X12314476Y5580263D01*
X12318016Y5575759D01*
X12346775Y5565796D01*
X12374558Y5553352D01*
X12380222Y5554209D01*
X12385634Y5552334D01*
X12415211Y5559501D01*
X12445313Y5564053D01*
X12449615Y5567837D01*
X12455182Y5569185D01*
X12476188Y5591203D01*
X12499052Y5611308D01*
X12502310Y5618584D01*
X12504579Y5620961D01*
X12505490Y5625684D01*
X12513828Y5644298D01*
X12707352Y6321631D01*
X12706829Y6393189D01*
X12667703Y6453105D01*
X12602394Y6482357D01*
X12531639Y6471656D01*
X12477900Y6424401D01*
X12463124Y6391411D01*
X12371658Y6071284D01*
X12316107Y6210164D01*
X12301163Y6229178D01*
X12290079Y6250663D01*
X12279461Y6256789D01*
X12271887Y6266426D01*
X12249038Y6274342D01*
X12228095Y6286425D01*
X12215852Y6285839D01*
X12204270Y6289851D01*
X12180767Y6284157D01*
X12156617Y6282999D01*
X12146634Y6275887D01*
X12134722Y6273000D01*
X12118031Y6255507D01*
X12098338Y6241474D01*
X12088690Y6224753D01*
X12085325Y6221225D01*
X12084656Y6217760D01*
X12080273Y6210163D01*
X12024721Y6071284D01*
X11933256Y6391411D01*
X11895008Y6451891D01*
X11830133Y6482093D01*
X11759229Y6472426D01*
X11704807Y6425960D01*
X11684145Y6357448D01*
X11642709Y6357448D01*
X11642448Y6393189D01*
X11603322Y6453105D01*
X11538013Y6482357D01*
X11467258Y6471656D01*
X11413519Y6424401D01*
X11398743Y6391411D01*
X11307277Y6071284D01*
X11251726Y6210164D01*
X11236782Y6229178D01*
X11225698Y6250663D01*
X11215080Y6256789D01*
X11207506Y6266426D01*
X11184657Y6274342D01*
X11163714Y6286425D01*
X11151471Y6285839D01*
X11139889Y6289851D01*
X11116386Y6284157D01*
X11092236Y6282999D01*
X11082253Y6275887D01*
X11070341Y6273000D01*
X11053650Y6255507D01*
X11033957Y6241474D01*
X11024309Y6224753D01*
X11020944Y6221225D01*
X11020275Y6217760D01*
X11015892Y6210163D01*
X10960340Y6071284D01*
X10868875Y6391411D01*
X10830627Y6451891D01*
X10765752Y6482093D01*
X10694848Y6472426D01*
X10640426Y6425960D01*
X10619764Y6357448D01*
X10578328Y6357448D01*
X10578067Y6393189D01*
X10538941Y6453105D01*
X10473632Y6482357D01*
X10402877Y6471656D01*
X10349138Y6424401D01*
X10334362Y6391411D01*
X10242896Y6071284D01*
X10187345Y6210164D01*
X10172401Y6229178D01*
X10161317Y6250663D01*
X10150699Y6256789D01*
X10143125Y6266426D01*
X10120276Y6274342D01*
X10099333Y6286425D01*
X10087090Y6285839D01*
X10075508Y6289851D01*
X10052005Y6284157D01*
X10027855Y6282999D01*
X10017872Y6275887D01*
X10005960Y6273000D01*
X9989269Y6255507D01*
X9969576Y6241474D01*
X9959928Y6224753D01*
X9956563Y6221225D01*
X9955894Y6217760D01*
X9951511Y6210163D01*
X9895959Y6071284D01*
X9804494Y6391411D01*
X9766246Y6451891D01*
X9701371Y6482093D01*
X9630467Y6472426D01*
X9576045Y6425960D01*
X9555383Y6357448D01*
X8893440Y6357448D01*
X8852945Y6397943D01*
X8850855Y6399085D01*
X8849640Y6401130D01*
X8819938Y6421732D01*
X8723176Y6470113D01*
X8711846Y6472152D01*
X8702160Y6478377D01*
X8666380Y6483521D01*
X8521237Y6483521D01*
X8510191Y6480278D01*
X8498744Y6481514D01*
X8464441Y6470113D01*
X8367679Y6421732D01*
X8365936Y6420112D01*
X8363610Y6419605D01*
X8334672Y6397943D01*
X8286291Y6349562D01*
X8285149Y6347473D01*
X8283104Y6346257D01*
X8262502Y6316555D01*
X8214121Y6219793D01*
X8212082Y6208464D01*
X8205857Y6198777D01*
X8200713Y6162997D01*
X8200713Y5872711D01*
X8019285Y5872711D01*
X8019285Y6695188D01*
X7999124Y6763849D01*
X7945043Y6810711D01*
X7874211Y6820895D01*
X7809118Y6791168D01*
X7770429Y6730968D01*
X7765285Y6695188D01*
X7765285Y5854310D01*
X7749244Y5822230D01*
X7690347Y5792781D01*
X7637950Y5744042D01*
X7620221Y5674714D01*
X7486452Y5674714D01*
X7487095Y5679188D01*
X7487095Y6356521D01*
X7466934Y6425182D01*
X7412853Y6472044D01*
X7385349Y6475999D01*
X7390715Y6478449D01*
X7404477Y6479433D01*
X7411900Y6484991D01*
X7420960Y6486961D01*
X7439118Y6500554D01*
X7443262Y6502446D01*
X7444759Y6504777D01*
X7449898Y6508623D01*
X7498279Y6557004D01*
X7502723Y6565145D01*
X7510144Y6570699D01*
X7519600Y6596054D01*
X7532573Y6619811D01*
X7531911Y6629060D01*
X7535152Y6637747D01*
X7529399Y6664192D01*
X7527469Y6691189D01*
X7521911Y6698613D01*
X7519941Y6707672D01*
X7498279Y6736610D01*
X7449898Y6784991D01*
X7441757Y6789436D01*
X7436203Y6796856D01*
X7423279Y6801677D01*
X7412853Y6810711D01*
X7399198Y6812675D01*
X7387091Y6819285D01*
X7377842Y6818624D01*
X7369155Y6821864D01*
X7355675Y6818932D01*
X7342021Y6820895D01*
X7329474Y6815166D01*
X7315713Y6814181D01*
X7308289Y6808624D01*
X7299230Y6806653D01*
X7281071Y6793061D01*
X7276928Y6791168D01*
X7275430Y6788838D01*
X7270292Y6784991D01*
X7221911Y6736610D01*
X7217466Y6728472D01*
X7210045Y6722915D01*
X7200587Y6697557D01*
X7187617Y6673803D01*
X7188278Y6664555D01*
X7185038Y6655867D01*
X411380Y6655867D01*
X411380Y6967007D01*
X12852495Y6967007D01*
X12852495Y5407045D01*
G37*
X25300268Y19820435D02*
X25300268Y21520435D01*
X25300268Y21520435D02*
X24728839Y21520435D01*
X24728839Y21520435D02*
X24585982Y21439483D01*
X24585982Y21439483D02*
X24514553Y21358530D01*
X24514553Y21358530D02*
X24443125Y21196626D01*
X24443125Y21196626D02*
X24443125Y20953768D01*
X24443125Y20953768D02*
X24514553Y20791864D01*
X24514553Y20791864D02*
X24585982Y20710911D01*
X24585982Y20710911D02*
X24728839Y20629959D01*
X24728839Y20629959D02*
X25300268Y20629959D01*
X23800268Y19820435D02*
X23800268Y21520435D01*
X23800268Y20872816D02*
X23657411Y20953768D01*
X23657411Y20953768D02*
X23371696Y20953768D01*
X23371696Y20953768D02*
X23228839Y20872816D01*
X23228839Y20872816D02*
X23157411Y20791864D01*
X23157411Y20791864D02*
X23085982Y20629959D01*
X23085982Y20629959D02*
X23085982Y20144245D01*
X23085982Y20144245D02*
X23157411Y19982340D01*
X23157411Y19982340D02*
X23228839Y19901387D01*
X23228839Y19901387D02*
X23371696Y19820435D01*
X23371696Y19820435D02*
X23657411Y19820435D01*
X23657411Y19820435D02*
X23800268Y19901387D01*
X24793082Y6872988D02*
X24793082Y7888988D01*
X24357653Y6872988D02*
X24357653Y7405178D01*
X24357653Y7405178D02*
X24406034Y7501940D01*
X24406034Y7501940D02*
X24502796Y7550321D01*
X24502796Y7550321D02*
X24647939Y7550321D01*
X24647939Y7550321D02*
X24744701Y7501940D01*
X24744701Y7501940D02*
X24793082Y7453559D01*
X23438415Y6872988D02*
X23438415Y7405178D01*
X23438415Y7405178D02*
X23486796Y7501940D01*
X23486796Y7501940D02*
X23583558Y7550321D01*
X23583558Y7550321D02*
X23777082Y7550321D01*
X23777082Y7550321D02*
X23873844Y7501940D01*
X23438415Y6921368D02*
X23535177Y6872988D01*
X23535177Y6872988D02*
X23777082Y6872988D01*
X23777082Y6872988D02*
X23873844Y6921368D01*
X23873844Y6921368D02*
X23922225Y7018130D01*
X23922225Y7018130D02*
X23922225Y7114892D01*
X23922225Y7114892D02*
X23873844Y7211654D01*
X23873844Y7211654D02*
X23777082Y7260035D01*
X23777082Y7260035D02*
X23535177Y7260035D01*
X23535177Y7260035D02*
X23438415Y7308416D01*
X22954606Y6872988D02*
X22954606Y7550321D01*
X22954606Y7356797D02*
X22906225Y7453559D01*
X22906225Y7453559D02*
X22857844Y7501940D01*
X22857844Y7501940D02*
X22761082Y7550321D01*
X22761082Y7550321D02*
X22664320Y7550321D01*
X21890225Y6872988D02*
X21890225Y7888988D01*
X21890225Y6921368D02*
X21986987Y6872988D01*
X21986987Y6872988D02*
X22180511Y6872988D01*
X22180511Y6872988D02*
X22277273Y6921368D01*
X22277273Y6921368D02*
X22325654Y6969749D01*
X22325654Y6969749D02*
X22374035Y7066511D01*
X22374035Y7066511D02*
X22374035Y7356797D01*
X22374035Y7356797D02*
X22325654Y7453559D01*
X22325654Y7453559D02*
X22277273Y7501940D01*
X22277273Y7501940D02*
X22180511Y7550321D01*
X22180511Y7550321D02*
X21986987Y7550321D01*
X21986987Y7550321D02*
X21890225Y7501940D01*
X21503178Y7550321D02*
X21309654Y6872988D01*
X21309654Y6872988D02*
X21116130Y7356797D01*
X21116130Y7356797D02*
X20922606Y6872988D01*
X20922606Y6872988D02*
X20729082Y7550321D01*
X19906606Y6872988D02*
X19906606Y7405178D01*
X19906606Y7405178D02*
X19954987Y7501940D01*
X19954987Y7501940D02*
X20051749Y7550321D01*
X20051749Y7550321D02*
X20245273Y7550321D01*
X20245273Y7550321D02*
X20342035Y7501940D01*
X19906606Y6921368D02*
X20003368Y6872988D01*
X20003368Y6872988D02*
X20245273Y6872988D01*
X20245273Y6872988D02*
X20342035Y6921368D01*
X20342035Y6921368D02*
X20390416Y7018130D01*
X20390416Y7018130D02*
X20390416Y7114892D01*
X20390416Y7114892D02*
X20342035Y7211654D01*
X20342035Y7211654D02*
X20245273Y7260035D01*
X20245273Y7260035D02*
X20003368Y7260035D01*
X20003368Y7260035D02*
X19906606Y7308416D01*
X19422797Y6872988D02*
X19422797Y7550321D01*
X19422797Y7356797D02*
X19374416Y7453559D01*
X19374416Y7453559D02*
X19326035Y7501940D01*
X19326035Y7501940D02*
X19229273Y7550321D01*
X19229273Y7550321D02*
X19132511Y7550321D01*
X18406797Y6921368D02*
X18503559Y6872988D01*
X18503559Y6872988D02*
X18697083Y6872988D01*
X18697083Y6872988D02*
X18793845Y6921368D01*
X18793845Y6921368D02*
X18842226Y7018130D01*
X18842226Y7018130D02*
X18842226Y7405178D01*
X18842226Y7405178D02*
X18793845Y7501940D01*
X18793845Y7501940D02*
X18697083Y7550321D01*
X18697083Y7550321D02*
X18503559Y7550321D01*
X18503559Y7550321D02*
X18406797Y7501940D01*
X18406797Y7501940D02*
X18358416Y7405178D01*
X18358416Y7405178D02*
X18358416Y7308416D01*
X18358416Y7308416D02*
X18842226Y7211654D01*
X29118702Y6905675D02*
X29227559Y6960103D01*
X29227559Y6960103D02*
X29281988Y7014532D01*
X29281988Y7014532D02*
X29336416Y7123389D01*
X29336416Y7123389D02*
X29336416Y7449961D01*
X29336416Y7449961D02*
X29281988Y7558818D01*
X29281988Y7558818D02*
X29227559Y7613246D01*
X29227559Y7613246D02*
X29118702Y7667675D01*
X29118702Y7667675D02*
X28955416Y7667675D01*
X28955416Y7667675D02*
X28846559Y7613246D01*
X28846559Y7613246D02*
X28792131Y7558818D01*
X28792131Y7558818D02*
X28737702Y7449961D01*
X28737702Y7449961D02*
X28737702Y7123389D01*
X28737702Y7123389D02*
X28792131Y7014532D01*
X28792131Y7014532D02*
X28846559Y6960103D01*
X28846559Y6960103D02*
X28955416Y6905675D01*
X28955416Y6905675D02*
X29118702Y6905675D01*
X28247845Y7667675D02*
X28247845Y6524675D01*
X28247845Y7613246D02*
X28138988Y7667675D01*
X28138988Y7667675D02*
X27921273Y7667675D01*
X27921273Y7667675D02*
X27812416Y7613246D01*
X27812416Y7613246D02*
X27757988Y7558818D01*
X27757988Y7558818D02*
X27703559Y7449961D01*
X27703559Y7449961D02*
X27703559Y7123389D01*
X27703559Y7123389D02*
X27757988Y7014532D01*
X27757988Y7014532D02*
X27812416Y6960103D01*
X27812416Y6960103D02*
X27921273Y6905675D01*
X27921273Y6905675D02*
X28138988Y6905675D01*
X28138988Y6905675D02*
X28247845Y6960103D01*
X26778273Y6960103D02*
X26887130Y6905675D01*
X26887130Y6905675D02*
X27104845Y6905675D01*
X27104845Y6905675D02*
X27213702Y6960103D01*
X27213702Y6960103D02*
X27268130Y7068961D01*
X27268130Y7068961D02*
X27268130Y7504389D01*
X27268130Y7504389D02*
X27213702Y7613246D01*
X27213702Y7613246D02*
X27104845Y7667675D01*
X27104845Y7667675D02*
X26887130Y7667675D01*
X26887130Y7667675D02*
X26778273Y7613246D01*
X26778273Y7613246D02*
X26723845Y7504389D01*
X26723845Y7504389D02*
X26723845Y7395532D01*
X26723845Y7395532D02*
X27268130Y7286675D01*
X26233988Y7667675D02*
X26233988Y6905675D01*
X26233988Y7558818D02*
X26179559Y7613246D01*
X26179559Y7613246D02*
X26070702Y7667675D01*
X26070702Y7667675D02*
X25907416Y7667675D01*
X25907416Y7667675D02*
X25798559Y7613246D01*
X25798559Y7613246D02*
X25744131Y7504389D01*
X25744131Y7504389D02*
X25744131Y6905675D01*
D11*
X47418193Y8244196D02*
X47502860Y8159529D01*
X47502860Y8159529D02*
X47756860Y8074863D01*
X47756860Y8074863D02*
X47926193Y8074863D01*
X47926193Y8074863D02*
X48180193Y8159529D01*
X48180193Y8159529D02*
X48349527Y8328863D01*
X48349527Y8328863D02*
X48434193Y8498196D01*
X48434193Y8498196D02*
X48518860Y8836863D01*
X48518860Y8836863D02*
X48518860Y9090863D01*
X48518860Y9090863D02*
X48434193Y9429529D01*
X48434193Y9429529D02*
X48349527Y9598863D01*
X48349527Y9598863D02*
X48180193Y9768196D01*
X48180193Y9768196D02*
X47926193Y9852863D01*
X47926193Y9852863D02*
X47756860Y9852863D01*
X47756860Y9852863D02*
X47502860Y9768196D01*
X47502860Y9768196D02*
X47418193Y9683529D01*
X46402193Y8074863D02*
X46571527Y8159529D01*
X46571527Y8159529D02*
X46656193Y8244196D01*
X46656193Y8244196D02*
X46740860Y8413529D01*
X46740860Y8413529D02*
X46740860Y8921529D01*
X46740860Y8921529D02*
X46656193Y9090863D01*
X46656193Y9090863D02*
X46571527Y9175529D01*
X46571527Y9175529D02*
X46402193Y9260196D01*
X46402193Y9260196D02*
X46148193Y9260196D01*
X46148193Y9260196D02*
X45978860Y9175529D01*
X45978860Y9175529D02*
X45894193Y9090863D01*
X45894193Y9090863D02*
X45809527Y8921529D01*
X45809527Y8921529D02*
X45809527Y8413529D01*
X45809527Y8413529D02*
X45894193Y8244196D01*
X45894193Y8244196D02*
X45978860Y8159529D01*
X45978860Y8159529D02*
X46148193Y8074863D01*
X46148193Y8074863D02*
X46402193Y8074863D01*
X45047526Y8074863D02*
X45047526Y9260196D01*
X45047526Y9090863D02*
X44962860Y9175529D01*
X44962860Y9175529D02*
X44793526Y9260196D01*
X44793526Y9260196D02*
X44539526Y9260196D01*
X44539526Y9260196D02*
X44370193Y9175529D01*
X44370193Y9175529D02*
X44285526Y9006196D01*
X44285526Y9006196D02*
X44285526Y8074863D01*
X44285526Y9006196D02*
X44200860Y9175529D01*
X44200860Y9175529D02*
X44031526Y9260196D01*
X44031526Y9260196D02*
X43777526Y9260196D01*
X43777526Y9260196D02*
X43608193Y9175529D01*
X43608193Y9175529D02*
X43523526Y9006196D01*
X43523526Y9006196D02*
X43523526Y8074863D01*
X42676859Y9260196D02*
X42676859Y7482196D01*
X42676859Y9175529D02*
X42507526Y9260196D01*
X42507526Y9260196D02*
X42168859Y9260196D01*
X42168859Y9260196D02*
X41999526Y9175529D01*
X41999526Y9175529D02*
X41914859Y9090863D01*
X41914859Y9090863D02*
X41830193Y8921529D01*
X41830193Y8921529D02*
X41830193Y8413529D01*
X41830193Y8413529D02*
X41914859Y8244196D01*
X41914859Y8244196D02*
X41999526Y8159529D01*
X41999526Y8159529D02*
X42168859Y8074863D01*
X42168859Y8074863D02*
X42507526Y8074863D01*
X42507526Y8074863D02*
X42676859Y8159529D01*
X40814192Y8074863D02*
X40983526Y8159529D01*
X40983526Y8159529D02*
X41068192Y8328863D01*
X41068192Y8328863D02*
X41068192Y9852863D01*
X40136859Y8074863D02*
X40136859Y9260196D01*
X40136859Y9852863D02*
X40221526Y9768196D01*
X40221526Y9768196D02*
X40136859Y9683529D01*
X40136859Y9683529D02*
X40052193Y9768196D01*
X40052193Y9768196D02*
X40136859Y9852863D01*
X40136859Y9852863D02*
X40136859Y9683529D01*
X38528192Y8074863D02*
X38528192Y9006196D01*
X38528192Y9006196D02*
X38612859Y9175529D01*
X38612859Y9175529D02*
X38782192Y9260196D01*
X38782192Y9260196D02*
X39120859Y9260196D01*
X39120859Y9260196D02*
X39290192Y9175529D01*
X38528192Y8159529D02*
X38697526Y8074863D01*
X38697526Y8074863D02*
X39120859Y8074863D01*
X39120859Y8074863D02*
X39290192Y8159529D01*
X39290192Y8159529D02*
X39374859Y8328863D01*
X39374859Y8328863D02*
X39374859Y8498196D01*
X39374859Y8498196D02*
X39290192Y8667529D01*
X39290192Y8667529D02*
X39120859Y8752196D01*
X39120859Y8752196D02*
X38697526Y8752196D01*
X38697526Y8752196D02*
X38528192Y8836863D01*
X37681525Y9260196D02*
X37681525Y8074863D01*
X37681525Y9090863D02*
X37596859Y9175529D01*
X37596859Y9175529D02*
X37427525Y9260196D01*
X37427525Y9260196D02*
X37173525Y9260196D01*
X37173525Y9260196D02*
X37004192Y9175529D01*
X37004192Y9175529D02*
X36919525Y9006196D01*
X36919525Y9006196D02*
X36919525Y8074863D01*
X36326858Y9260196D02*
X35649525Y9260196D01*
X36072858Y9852863D02*
X36072858Y8328863D01*
X36072858Y8328863D02*
X35988192Y8159529D01*
X35988192Y8159529D02*
X35818858Y8074863D01*
X35818858Y8074863D02*
X35649525Y8074863D01*
D12*
X46839634Y11185442D02*
X47506301Y12137823D01*
X47982491Y11185442D02*
X47982491Y13185442D01*
X47982491Y13185442D02*
X47220586Y13185442D01*
X47220586Y13185442D02*
X47030110Y13090204D01*
X47030110Y13090204D02*
X46934872Y12994966D01*
X46934872Y12994966D02*
X46839634Y12804490D01*
X46839634Y12804490D02*
X46839634Y12518776D01*
X46839634Y12518776D02*
X46934872Y12328300D01*
X46934872Y12328300D02*
X47030110Y12233061D01*
X47030110Y12233061D02*
X47220586Y12137823D01*
X47220586Y12137823D02*
X47982491Y12137823D01*
X45696777Y11185442D02*
X45887253Y11280680D01*
X45887253Y11280680D02*
X45982491Y11375919D01*
X45982491Y11375919D02*
X46077729Y11566395D01*
X46077729Y11566395D02*
X46077729Y12137823D01*
X46077729Y12137823D02*
X45982491Y12328300D01*
X45982491Y12328300D02*
X45887253Y12423538D01*
X45887253Y12423538D02*
X45696777Y12518776D01*
X45696777Y12518776D02*
X45411062Y12518776D01*
X45411062Y12518776D02*
X45220586Y12423538D01*
X45220586Y12423538D02*
X45125348Y12328300D01*
X45125348Y12328300D02*
X45030110Y12137823D01*
X45030110Y12137823D02*
X45030110Y11566395D01*
X45030110Y11566395D02*
X45125348Y11375919D01*
X45125348Y11375919D02*
X45220586Y11280680D01*
X45220586Y11280680D02*
X45411062Y11185442D01*
X45411062Y11185442D02*
X45696777Y11185442D01*
X44172967Y11185442D02*
X44172967Y13185442D01*
X44172967Y12233061D02*
X43030110Y12233061D01*
X43030110Y11185442D02*
X43030110Y13185442D01*
X42172967Y11280680D02*
X41887253Y11185442D01*
X41887253Y11185442D02*
X41411062Y11185442D01*
X41411062Y11185442D02*
X41220586Y11280680D01*
X41220586Y11280680D02*
X41125348Y11375919D01*
X41125348Y11375919D02*
X41030110Y11566395D01*
X41030110Y11566395D02*
X41030110Y11756871D01*
X41030110Y11756871D02*
X41125348Y11947347D01*
X41125348Y11947347D02*
X41220586Y12042585D01*
X41220586Y12042585D02*
X41411062Y12137823D01*
X41411062Y12137823D02*
X41792015Y12233061D01*
X41792015Y12233061D02*
X41982491Y12328300D01*
X41982491Y12328300D02*
X42077729Y12423538D01*
X42077729Y12423538D02*
X42172967Y12614014D01*
X42172967Y12614014D02*
X42172967Y12804490D01*
X42172967Y12804490D02*
X42077729Y12994966D01*
X42077729Y12994966D02*
X41982491Y13090204D01*
X41982491Y13090204D02*
X41792015Y13185442D01*
X41792015Y13185442D02*
X41315824Y13185442D01*
X41315824Y13185442D02*
X41030110Y13090204D01*
D10*
%TO.C,Sign_CE*%
X45293000Y1207000D02*
X45293000Y707000D01*
X45293000Y4707000D02*
X45293000Y4207000D01*
X43293000Y2957000D02*
X42043000Y2957000D01*
X42043000Y2457000D02*
X43293000Y2457000D01*
X42043000Y2707000D02*
X43293000Y2707000D01*
X42043000Y2957000D02*
X42043000Y2457000D01*
X41793000Y1207000D02*
X41793000Y707000D01*
X41793000Y4707000D02*
X41793000Y4207000D01*
D13*
X45342980Y957000D02*
G75*
G03*
X45343000Y4457000I-49979J1750000D01*
G01*
D10*
X45293000Y1207000D02*
G75*
G03*
X45293000Y4207000I0J1500000D01*
G01*
X45293000Y707000D02*
G75*
G03*
X45293000Y4707000I0J2000000D01*
G01*
D13*
X41842980Y957000D02*
G75*
G03*
X41843000Y4457000I-49980J1750000D01*
G01*
D10*
X41793000Y1207000D02*
G75*
G03*
X41793000Y4207000I0J1500000D01*
G01*
X41793000Y707000D02*
G75*
G03*
X41793000Y4707000I0J2000000D01*
G01*
D14*
%TO.C,Sign_PB-Free*%
X22951220Y19450680D02*
X25384540Y21871300D01*
D10*
X25914237Y20614000D02*
G75*
G03*
X25914237Y20614000I-1802237J0D01*
G01*
D15*
%TO.C,Sign_RecycleBin*%
X49464000Y16346000D02*
X49464000Y17108000D01*
X49464000Y17108000D02*
X44892000Y17108000D01*
X49413200Y16447600D02*
X44993600Y16447600D01*
X49413200Y16752400D02*
X44942800Y16752400D01*
X49413200Y16904800D02*
X44993600Y16904800D01*
X49413200Y16955600D02*
X44942800Y16955600D01*
D10*
X49258000Y21884000D02*
X45067000Y17693000D01*
X49131000Y17820000D02*
X45067000Y21757000D01*
X48623000Y21376000D02*
X45702000Y21376000D01*
X48115000Y17820000D02*
X47607000Y17820000D01*
X48115000Y18201000D02*
X48369000Y21249000D01*
X48115000Y18201000D02*
X48115000Y17820000D01*
X48115000Y18201000D02*
X46718000Y18201000D01*
X48115000Y21503000D02*
X48115000Y22011000D01*
X48115000Y22011000D02*
X47988000Y22011000D01*
X47988000Y22011000D02*
X47988000Y21503000D01*
X47607000Y17820000D02*
X47607000Y18074000D01*
X47353000Y20487000D02*
X47353000Y20868000D01*
X47353000Y20868000D02*
X46464000Y20868000D01*
X47353000Y22138000D02*
X46972000Y22138000D01*
X47353000Y22265000D02*
X47353000Y22138000D01*
X47226000Y20741000D02*
X46591000Y20741000D01*
X46972000Y22138000D02*
X46972000Y22265000D01*
X46972000Y22265000D02*
X47353000Y22265000D01*
X46464000Y20487000D02*
X47353000Y20487000D01*
X46464000Y20868000D02*
X46464000Y20487000D01*
X46210000Y18709000D02*
X46083000Y20741000D01*
X46083000Y20868000D02*
X45702000Y20868000D01*
X46083000Y21376000D02*
X46083000Y20868000D01*
X45956000Y20868000D02*
X45956000Y21249000D01*
X45956000Y21249000D02*
X45956000Y21122000D01*
X45956000Y21249000D02*
X45956000Y21122000D01*
X45956000Y21249000D02*
X45829000Y21249000D01*
X45956000Y21376000D02*
X45829000Y20995000D01*
X45829000Y21249000D02*
X45829000Y20868000D01*
X45702000Y20868000D02*
X45702000Y21376000D01*
D15*
X44993600Y16549200D02*
X49362400Y16549200D01*
X44942800Y16650800D02*
X49362400Y16650800D01*
X44942800Y16803200D02*
X49362400Y16803200D01*
X44942800Y17057200D02*
X49362400Y17057200D01*
X44892000Y16346000D02*
X49464000Y16346000D01*
X44892000Y17108000D02*
X44892000Y16346000D01*
D10*
X48369000Y21503000D02*
G75*
G03*
X46083000Y21503000I-1143000J-1143000D01*
G01*
D16*
X46337000Y18201000D02*
G75*
G03*
X46337000Y18201000I-127000J0D01*
G01*
D10*
X46611609Y18201000D02*
G75*
G03*
X46611609Y18201000I-401609J0D01*
G01*
D17*
%TO.C,Logo_OLIMEX_TB-Top*%
X16492000Y10225400D02*
X15907800Y9653900D01*
X16492000Y12193900D02*
X16492000Y11952600D01*
X16492000Y12244700D02*
X15984000Y12752700D01*
X16479300Y10212700D02*
X16479300Y10974700D01*
X15920500Y9653900D02*
X14879100Y9653900D01*
X14891800Y12828900D02*
X14256800Y12219300D01*
X14891800Y12841600D02*
X15895100Y12841600D01*
X14282200Y10263500D02*
X14841000Y9679300D01*
X14269500Y12232000D02*
X14269500Y10301600D01*
D18*
X13418600Y13184500D02*
X13418600Y10034900D01*
X13405900Y13184500D02*
X13418600Y13184500D01*
X13393200Y13184500D02*
X13405900Y13184500D01*
X13278900Y13095600D02*
X13342400Y13108300D01*
D17*
X13113800Y10111100D02*
X13113800Y12841600D01*
D18*
X13113800Y13184500D02*
X13393200Y13184500D01*
X13101100Y13184500D02*
X12796300Y13184500D01*
X12974100Y13108300D02*
X12859800Y13108300D01*
X12796300Y13184500D02*
X12796300Y10149200D01*
D17*
X12656600Y9666600D02*
X13113800Y10123800D01*
X11670800Y9666600D02*
X12656600Y9666600D01*
D18*
X11475500Y10479400D02*
X10865900Y10479400D01*
X11475500Y12498700D02*
X11475500Y10479400D01*
X11335800Y10542900D02*
X11399300Y10542900D01*
D17*
X11158000Y12384400D02*
X11158000Y10784200D01*
D18*
X10992900Y10542900D02*
X10904000Y10542900D01*
X10865900Y10479400D02*
X10840500Y10479400D01*
X10840500Y10479400D02*
X10840500Y12498700D01*
X10256300Y10136500D02*
X10256300Y13121000D01*
X10256300Y13133700D02*
X9011700Y13133700D01*
X10103900Y13070200D02*
X10180100Y13070200D01*
D17*
X9938800Y10225400D02*
X9938800Y12816200D01*
X9938800Y12816200D02*
X9100600Y12816200D01*
X9100600Y12816200D02*
X8491000Y12308200D01*
D18*
X9011700Y13133700D02*
X8427500Y12651100D01*
D17*
X8389400Y11520800D02*
X8389400Y12232000D01*
X8313200Y12308200D02*
X7678200Y12816200D01*
D18*
X7767100Y13133700D02*
X8389400Y12638400D01*
X7741700Y13133700D02*
X7767100Y13133700D01*
D17*
X7678200Y12816200D02*
X6789200Y12816200D01*
X6776500Y12828900D02*
X6776500Y10225400D01*
D18*
X6598700Y13057500D02*
X6497100Y13057500D01*
X6446300Y10111100D02*
X6446300Y13121000D01*
X6446300Y13121000D02*
X6446300Y13133700D01*
X6446300Y13133700D02*
X7741700Y13133700D01*
D17*
X5519200Y10098400D02*
X5087400Y9666600D01*
X5519200Y12333600D02*
X5519200Y10098400D01*
X5519200Y12359000D02*
X5036600Y12867000D01*
X5087400Y9666600D02*
X3766600Y9666600D01*
D18*
X5074700Y13171800D02*
X3703100Y13171800D01*
D17*
X4988500Y12841600D02*
X3766600Y12841600D01*
X4300000Y11266800D02*
X5519200Y11266800D01*
X3766600Y9666600D02*
X2623600Y10784200D01*
X3766600Y12841600D02*
X2674400Y11774800D01*
D18*
X3703100Y13171800D02*
X3652300Y13171800D01*
X3652300Y13171800D02*
X2395000Y11927200D01*
D12*
X2649000Y11660500D02*
X2090200Y11660500D01*
X2623600Y10885800D02*
X2090200Y10885800D01*
D17*
X1277400Y9971400D02*
X2115600Y10784200D01*
X1226600Y12651100D02*
X2090200Y11757400D01*
D19*
X16816747Y11470000D02*
G75*
G03*
X16816747Y11470000I-337447J0D01*
G01*
X11524324Y9692000D02*
G75*
G03*
X11524324Y9692000I-366324J0D01*
G01*
X11518818Y12917800D02*
G75*
G03*
X11518818Y12917800I-373518J0D01*
G01*
X10285759Y9717400D02*
G75*
G03*
X10285759Y9717400I-359659J0D01*
G01*
X8760318Y10987400D02*
G75*
G03*
X8760318Y10987400I-370918J0D01*
G01*
X7139729Y9704700D02*
G75*
G03*
X7139729Y9704700I-363229J0D01*
G01*
X4151659Y11266800D02*
G75*
G03*
X4151659Y11266800I-359659J0D01*
G01*
X1276666Y9615800D02*
G75*
G03*
X1276666Y9615800I-329466J0D01*
G01*
X1217735Y13006700D02*
G75*
G03*
X1217735Y13006700I-359435J0D01*
G01*
D10*
%TO.C,Sign_Antistatic*%
X7729000Y15153000D02*
X617000Y15153000D01*
X5951000Y18645500D02*
X617000Y15153000D01*
X5887500Y17629500D02*
X5887500Y16550000D01*
X5506500Y16423000D02*
X5570000Y16423000D01*
X5506500Y16423000D02*
X5506500Y17439000D01*
X5443000Y16232500D02*
X5443000Y16359500D01*
X4935000Y16232500D02*
X4782600Y16232500D01*
X4173000Y22265000D02*
X7729000Y15153000D01*
X3576100Y18709000D02*
X2395000Y18709000D01*
X2395000Y18709000D02*
X4173000Y22265000D01*
X1950500Y17820000D02*
X2395000Y18709000D01*
X1950500Y17820000D02*
X2268000Y17820000D01*
X617000Y15153000D02*
X1950500Y17820000D01*
X5506500Y16169000D02*
G75*
G03*
X5887500Y16550000I0J381000D01*
G01*
X5887503Y17629500D02*
G75*
G03*
X5698048Y17945425I-358053J50D01*
G01*
X5379500Y18264500D02*
G75*
G03*
X5695549Y17946858I794860J474820D01*
G01*
X5697000Y16296000D02*
G75*
G03*
X5570000Y16423000I-127000J0D01*
G01*
X4807999Y17883499D02*
G75*
G03*
X5504935Y17437156I850911J561361D01*
G01*
X5443063Y16232497D02*
G75*
G03*
X5504071Y16166456I63437J-2597D01*
G01*
X5506500Y16423000D02*
G75*
G03*
X5443000Y16359500I0J-63500D01*
G01*
X4935000Y16232501D02*
G75*
G03*
X5061966Y16359400I-63500J190499D01*
G01*
X5061999Y16359500D02*
G75*
G03*
X5061067Y16676326I-317499J157480D01*
G01*
X4744500Y16232500D02*
G75*
G03*
X4172915Y16993035I-855980J-48260D01*
G01*
X5062000Y16677000D02*
G75*
G03*
X4110708Y17437834I-1236980J-571500D01*
G01*
X5379500Y18264500D02*
G75*
G03*
X3792721Y18772321I-1120140J-767080D01*
G01*
X3576096Y18708965D02*
G75*
G03*
X3791916Y18770887I33004J292035D01*
G01*
X4172999Y16994497D02*
G75*
G03*
X3733275Y17120505I-1264699J-3583097D01*
G01*
X2776003Y17629503D02*
G75*
G03*
X3598462Y17183425I970347J807837D01*
G01*
X2775995Y17629496D02*
G75*
G03*
X2267301Y17819526I-444495J-413996D01*
G01*
D15*
%TO.C,Sign_OSHW_8x8*%
X27980420Y12196440D02*
X26809480Y12399640D01*
X27977880Y11200760D02*
X26906000Y11005180D01*
X27977880Y12193900D02*
X27977880Y11208380D01*
D20*
X27840720Y12102460D02*
X26822180Y12282800D01*
X27838180Y11312520D02*
X26888220Y11094080D01*
D15*
X27828020Y11950060D02*
X26712960Y12196440D01*
D21*
X27828020Y12089760D02*
X27833100Y11302360D01*
D15*
X27685780Y12005940D02*
X27685780Y11355700D01*
D22*
X27370820Y11708760D02*
X25953500Y11769720D01*
D15*
X27215880Y9293220D02*
X26618980Y10156820D01*
X27193020Y14114140D02*
X26519920Y14827880D01*
X27172700Y14078580D02*
X26578340Y13225140D01*
D21*
X27050780Y9311000D02*
X26486900Y8772520D01*
D20*
X27035540Y9311000D02*
X26502140Y10144120D01*
D21*
X27030460Y14109060D02*
X26530080Y14642460D01*
D20*
X27020300Y14086200D02*
X26464040Y13235300D01*
D15*
X26911080Y12394560D02*
X26575800Y13227680D01*
D20*
X26860280Y11071220D02*
X26502140Y10187300D01*
X26791700Y12318360D02*
X26443720Y13184500D01*
D22*
X26573260Y11221080D02*
X25867140Y11348080D01*
D15*
X26537700Y14566260D02*
X25653780Y13844900D01*
X26507220Y14830420D02*
X25536940Y14114140D01*
X26486900Y8597260D02*
X27208260Y9290680D01*
D20*
X26481820Y14667860D02*
X25653780Y14015080D01*
D19*
X26474200Y8772520D02*
X25694420Y9303380D01*
D22*
X26385300Y13994760D02*
X25323580Y12887320D01*
X26334500Y9504040D02*
X25481060Y10525120D01*
X26324340Y10575920D02*
X25760460Y11055980D01*
D15*
X26298940Y13217520D02*
X26685020Y12219300D01*
X26293860Y13212440D02*
X26895840Y14121760D01*
D22*
X26248140Y12465680D02*
X25806180Y12305660D01*
X26072880Y12945740D02*
X25615680Y12656180D01*
D20*
X25684260Y9321160D02*
X25366760Y9115420D01*
D22*
X25658860Y9676760D02*
X25293100Y10438760D01*
D15*
X25653780Y9168760D02*
X26479280Y8604880D01*
X25648700Y13847440D02*
X24665720Y14340200D01*
X25641080Y9158600D02*
X25295640Y8937620D01*
D20*
X25592820Y14025240D02*
X24747000Y14431640D01*
D15*
X25572500Y14182720D02*
X24668260Y14561180D01*
X25562340Y11988160D02*
X25430260Y11165200D01*
X25425180Y11134720D02*
X25331200Y10964540D01*
X25425180Y11134720D02*
X25331200Y10964540D01*
D23*
X25338820Y9135740D02*
X24787640Y10558140D01*
D15*
X25318500Y10934060D02*
X25011160Y10667360D01*
X25257540Y8955400D02*
X24607300Y10624180D01*
X25201660Y10913740D02*
X24942580Y10575920D01*
X25138160Y12724760D02*
X25557260Y11993240D01*
D22*
X25074660Y13722980D02*
X24899400Y13364840D01*
D15*
X24833360Y10799440D02*
X24607300Y10624180D01*
D22*
X24640320Y13982060D02*
X24472680Y13372460D01*
D15*
X24584440Y15577180D02*
X24785100Y14551020D01*
X24574280Y15584800D02*
X23609080Y15584800D01*
D20*
X24495540Y15478120D02*
X23710680Y15478120D01*
X24487920Y15465420D02*
X24693660Y14451960D01*
D15*
X24266940Y13154020D02*
X25138160Y12724760D01*
D22*
X24124700Y14970120D02*
X24119620Y13456280D01*
D20*
X23728460Y15457800D02*
X23515100Y14439260D01*
D15*
X23609080Y15584800D02*
X23383020Y14413860D01*
D20*
X23515100Y14439260D02*
X22613400Y13989680D01*
D15*
X23469380Y10342240D02*
X23591300Y10626720D01*
X23451600Y12986380D02*
X24266940Y13146400D01*
X23393180Y14495140D02*
X22588000Y14157320D01*
D22*
X23375400Y13966820D02*
X23596380Y13281020D01*
D15*
X23332220Y10796900D02*
X23586220Y10631800D01*
X23309360Y10603860D02*
X22781040Y9222100D01*
X23266180Y10545440D02*
X23088380Y10667360D01*
X23088380Y10667360D02*
X22712460Y11378560D01*
D22*
X22948680Y10438760D02*
X21767580Y9425300D01*
X22948680Y10530200D02*
X22615940Y9798680D01*
D15*
X22941060Y12557120D02*
X23451600Y12986380D01*
X22918200Y8924920D02*
X23304280Y9905360D01*
D20*
X22880100Y9138280D02*
X23454140Y10578460D01*
D22*
X22834380Y10575920D02*
X22217160Y10248260D01*
X22788660Y13715360D02*
X23207760Y13128620D01*
D15*
X22712460Y11378560D02*
X22712460Y11896720D01*
X22707380Y11884020D02*
X22941060Y12557120D01*
X22707380Y14109060D02*
X21696460Y14782160D01*
D20*
X22600700Y13994760D02*
X21696460Y14629200D01*
D15*
X22570220Y9224640D02*
X21693920Y8604880D01*
D20*
X22542280Y9323700D02*
X22880100Y9138280D01*
D22*
X22514340Y10995020D02*
X21904740Y10888340D01*
D15*
X22389880Y9252580D02*
X22918200Y8924920D01*
D22*
X21919980Y12846680D02*
X22575300Y12480920D01*
X21859020Y13913480D02*
X22971540Y12846680D01*
D20*
X21759960Y13288640D02*
X21419600Y12351380D01*
X21757420Y10205080D02*
X21137660Y9318620D01*
X21706620Y8757280D02*
X22542280Y9323700D01*
D15*
X21706620Y8919840D02*
X22527040Y9448160D01*
D20*
X21696460Y14627220D02*
X21142740Y14081120D01*
X21691380Y8764900D02*
X21137660Y9311000D01*
D15*
X21691380Y14784700D02*
X20997960Y14093820D01*
X21683760Y8609960D02*
X21000500Y9300840D01*
D22*
X21678680Y12153260D02*
X22400040Y12005940D01*
D15*
X21607560Y13204820D02*
X21241800Y12336140D01*
D20*
X21419600Y12351380D02*
X20337560Y12122780D01*
D15*
X21358640Y10987400D02*
X20235960Y11198220D01*
D20*
X21351020Y11116940D02*
X21757420Y10205080D01*
D15*
X21287520Y9384660D02*
X21772660Y8853800D01*
X21254500Y11020420D02*
X21635500Y10039980D01*
D20*
X21142740Y14078580D02*
X21759960Y13288640D01*
D15*
X20992880Y14086200D02*
X21696460Y13095600D01*
D22*
X20868420Y11729080D02*
X22336540Y11642720D01*
D20*
X20337560Y11287120D02*
X21351020Y11116940D01*
X20337560Y12122780D02*
X20337560Y11287120D01*
D15*
X20304540Y11434440D02*
X21411980Y11210920D01*
X20220720Y12176120D02*
X20223260Y11218540D01*
D20*
X24937500Y10748640D02*
G75*
G03*
X25013700Y12602840I-889000J965200D01*
G01*
X23073140Y12445360D02*
G75*
G03*
X23443981Y10581001I1117598J-746760D01*
G01*
X24988300Y12628240D02*
G75*
G03*
X23062980Y12430120I-863600J-1061719D01*
G01*
D10*
%TO.C,Sign_RoHS*%
X47861000Y7406000D02*
X36050000Y7406000D01*
X41003000Y16423000D02*
X40141940Y15803240D01*
X41003000Y16423000D02*
X40136860Y14307180D01*
D24*
X40622000Y15915000D02*
X40114000Y15026000D01*
D10*
X40622000Y15915000D02*
X39608540Y15277460D01*
D24*
X40114000Y15026000D02*
X39987000Y14518000D01*
X39987000Y14518000D02*
X39608540Y14010000D01*
X39733000Y15026000D02*
X35161000Y15026000D01*
X39608540Y14010000D02*
X39608540Y14391000D01*
X39608540Y14391000D02*
X39987000Y15277460D01*
D10*
X39608540Y14772000D02*
X39326600Y14424020D01*
D24*
X39608540Y15277460D02*
X38463000Y15277460D01*
X39479000Y13883000D02*
X39098000Y13375000D01*
X39225000Y14899000D02*
X39733000Y15026000D01*
X39098000Y13375000D02*
X38844000Y12994000D01*
X39098000Y13756000D02*
X38336000Y13121000D01*
X38844000Y12994000D02*
X37955000Y12105000D01*
X38463000Y13756000D02*
X39225000Y14137000D01*
X38463000Y15277460D02*
X37447000Y15407000D01*
D10*
X38424900Y15465420D02*
X36276060Y15661000D01*
D24*
X38336000Y13121000D02*
X38209000Y13248000D01*
D10*
X38221700Y14357980D02*
X39608540Y14772000D01*
D24*
X38209000Y12740000D02*
X38082000Y12867000D01*
X38209000Y13248000D02*
X38082000Y13248000D01*
D10*
X38153120Y11919580D02*
X38117560Y11884020D01*
D24*
X38082000Y12613000D02*
X38209000Y12740000D01*
X38082000Y12867000D02*
X37574000Y12867000D01*
X38082000Y13248000D02*
X36939000Y13121000D01*
X37955000Y12105000D02*
X37447000Y11724000D01*
X37955000Y14518000D02*
X39225000Y14899000D01*
X37726400Y13502000D02*
X38463000Y13756000D01*
X37574000Y12867000D02*
X36558000Y12613000D01*
X37447000Y11724000D02*
X36558000Y11470000D01*
X37447000Y12105000D02*
X38082000Y12613000D01*
X37447000Y15407000D02*
X35796000Y15407000D01*
D10*
X37299680Y13672180D02*
X36989800Y13611220D01*
D24*
X37116800Y13502000D02*
X37726400Y13502000D01*
X36939000Y11978000D02*
X37447000Y12105000D01*
X36939000Y13121000D02*
X35923000Y12867000D01*
X36812000Y14391000D02*
X37955000Y14518000D01*
X36685000Y14391000D02*
X36812000Y14391000D01*
X36558000Y11470000D02*
X35669000Y11470000D01*
X36558000Y11851000D02*
X36939000Y11978000D01*
X36558000Y12613000D02*
X36304000Y12613000D01*
D10*
X36354800Y14068420D02*
X36872960Y14142080D01*
D24*
X36304000Y12232000D02*
X37574000Y12486000D01*
X36304000Y12613000D02*
X35796000Y12359000D01*
D10*
X36248120Y11216000D02*
X35732500Y11216000D01*
D24*
X36177000Y14391000D02*
X36685000Y14391000D01*
D10*
X36050000Y10454000D02*
X47861000Y10454000D01*
D24*
X35923000Y11851000D02*
X36558000Y11851000D01*
X35923000Y12105000D02*
X36304000Y12232000D01*
X35923000Y12867000D02*
X35288000Y12359000D01*
X35796000Y12232000D02*
X35923000Y12105000D01*
X35796000Y12359000D02*
X35796000Y12232000D01*
X35796000Y15407000D02*
X35161000Y15026000D01*
X35719800Y13019400D02*
X37116800Y13502000D01*
X35669000Y11470000D02*
X34907000Y11978000D01*
X35542000Y11978000D02*
X35923000Y11851000D01*
X35542000Y14010000D02*
X36177000Y14391000D01*
X35415000Y14010000D02*
X35161000Y14518000D01*
X35288000Y11978000D02*
X35542000Y11978000D01*
X35288000Y12359000D02*
X35161000Y12232000D01*
D10*
X35194020Y11436980D02*
X35140680Y11490320D01*
D24*
X35161000Y12232000D02*
X35288000Y11978000D01*
X35161000Y14518000D02*
X35161000Y14772000D01*
X35161000Y14518000D02*
X34780000Y14010000D01*
X35161000Y14772000D02*
X40114000Y14848200D01*
X35161000Y15026000D02*
X35161000Y14772000D01*
X35161000Y15026000D02*
X34653000Y14518000D01*
D10*
X35079720Y13560420D02*
X35087340Y13565500D01*
D24*
X35034000Y12613000D02*
X35719800Y13019400D01*
X35034000Y14391000D02*
X36685000Y14391000D01*
D10*
X34907000Y9946000D02*
X34416780Y10436220D01*
D24*
X34907000Y11978000D02*
X34526000Y11851000D01*
D10*
X34780000Y9819000D02*
X34272000Y10581000D01*
X34780000Y9946000D02*
X34594580Y10131420D01*
D24*
X34780000Y13629000D02*
X35415000Y14010000D01*
X34653000Y14518000D02*
X34399000Y14010000D01*
X34526000Y11851000D02*
X34272000Y11597000D01*
X34526000Y12105000D02*
X35034000Y12613000D01*
D10*
X34434560Y12341220D02*
X34264380Y12153260D01*
X34421860Y11490320D02*
X34145000Y11216000D01*
D24*
X34399000Y14010000D02*
X34272000Y12994000D01*
X34272000Y11597000D02*
X34526000Y12105000D01*
X34272000Y12994000D02*
X34780000Y13629000D01*
D10*
X34226280Y14144620D02*
X34078960Y13545180D01*
X34145000Y10708000D02*
X34040860Y10601320D01*
X34145000Y11043280D02*
X34145000Y11089000D01*
X34122140Y11261720D02*
X34145000Y11216000D01*
X34020540Y12486000D02*
X34023080Y12488540D01*
X34020540Y12867000D02*
X34020540Y12486000D01*
X33510000Y11343000D02*
X32748000Y11343000D01*
X33510000Y11447140D02*
X33510000Y11470000D01*
X33510000Y11470000D02*
X33510000Y11724000D01*
X33510000Y11470000D02*
X32748000Y11470000D01*
X33510000Y11724000D02*
X33383000Y11724000D01*
X33436340Y12328520D02*
X33383000Y12422500D01*
X33390620Y10573380D02*
X33256000Y10708000D01*
X33383000Y11089000D02*
X33383000Y10962000D01*
X33383000Y11089000D02*
X32875000Y11089000D01*
X33383000Y11216000D02*
X33383000Y11089000D01*
X33383000Y11216000D02*
X32748000Y11216000D01*
X33383000Y11597000D02*
X33383000Y11216000D01*
X33383000Y11597000D02*
X32748000Y11597000D01*
X33383000Y11724000D02*
X33383000Y11597000D01*
X33383000Y11724000D02*
X33256000Y11724000D01*
X33256000Y10708000D02*
X33553180Y11127100D01*
X33256000Y11724000D02*
X33256000Y11089000D01*
X33256000Y11724000D02*
X32875000Y11724000D01*
X33243300Y10708000D02*
X33256000Y10708000D01*
X32953740Y10832460D02*
X32981680Y10804520D01*
X32875000Y11724000D02*
X32875000Y11216000D01*
X32875000Y11724000D02*
X32621000Y11724000D01*
X32661640Y13067660D02*
X32240000Y13248000D01*
X32621000Y11724000D02*
X33129000Y10835000D01*
X32621000Y11851000D02*
X33510000Y11851000D01*
X32621000Y11978000D02*
X33510000Y11978000D01*
X32621000Y12105000D02*
X33383000Y12105000D01*
X32621000Y12232000D02*
X33383000Y12232000D01*
X32570200Y11901800D02*
X32570200Y11909420D01*
X32494000Y10835000D02*
X31986000Y10835000D01*
X32494000Y12359000D02*
X33383000Y12359000D01*
X32494000Y12486000D02*
X33256000Y12486000D01*
X32367000Y10962000D02*
X31732000Y10962000D01*
X32367000Y12613000D02*
X33129000Y12613000D01*
X32367000Y12740000D02*
X33002000Y12740000D01*
X32341600Y10708000D02*
X32697200Y10708000D01*
X32240000Y11089000D02*
X31605000Y11089000D01*
X32240000Y11216000D02*
X31478000Y11216000D01*
X32240000Y12867000D02*
X32748000Y12867000D01*
X32240000Y13121000D02*
X31478000Y13121000D01*
X32240000Y13248000D02*
X31224000Y13629000D01*
X32189200Y11343000D02*
X31351000Y11343000D01*
X32163800Y11899260D02*
X32189200Y11508100D01*
X32113000Y11470000D02*
X31351000Y11470000D01*
X32113000Y11597000D02*
X31351000Y11597000D01*
X32113000Y11724000D02*
X31351000Y11724000D01*
X32113000Y11851000D02*
X31351000Y11851000D01*
X32113000Y11978000D02*
X31351000Y11978000D01*
X32113000Y12105000D02*
X31351000Y12105000D01*
X32113000Y12232000D02*
X31478000Y12232000D01*
X31986000Y12359000D02*
X31478000Y12359000D01*
X31986000Y12486000D02*
X31478000Y12486000D01*
X31986000Y13248000D02*
X31351000Y13248000D01*
X31859000Y13375000D02*
X31351000Y13375000D01*
X31732000Y12994000D02*
X32621000Y12994000D01*
X31732000Y12994000D02*
X31732000Y12486000D01*
X31605000Y12994000D02*
X31732000Y12994000D01*
X31605000Y12994000D02*
X31605000Y12486000D01*
X31538960Y11028040D02*
X31561820Y11005180D01*
X31478000Y12994000D02*
X31605000Y12994000D01*
X31224000Y13629000D02*
X31358620Y13090520D01*
X47861000Y7406000D02*
G75*
G03*
X49385000Y8930000I1J1523999D01*
G01*
X49385000Y8930000D02*
G75*
G03*
X47861000Y10454000I-1524000J0D01*
G01*
X38424900Y15465418D02*
G75*
G03*
X40139952Y15805478I447040J2240262D01*
G01*
X38153116Y11919584D02*
G75*
G03*
X40134464Y14301553I-6362116J7307116D01*
G01*
X37299680Y13672181D02*
G75*
G03*
X39326541Y14422222I-604580J4747419D01*
G01*
X36872960Y14142078D02*
G75*
G03*
X38215379Y14357814I-470060J7209422D01*
G01*
X36248120Y11215998D02*
G75*
G03*
X38113933Y11881987I127030J2590712D01*
G01*
X34526000Y8930000D02*
G75*
G03*
X36050000Y7406000I1524000J0D01*
G01*
X35194032Y11436992D02*
G75*
G03*
X35732500Y11213934I538468J538408D01*
G01*
X36354800Y14068420D02*
G75*
G03*
X35091130Y13568066I871300J-4046420D01*
G01*
X34145022Y11043280D02*
G75*
G03*
X34650978Y9818720I1734678J-80D01*
G01*
X34144984Y11216000D02*
G75*
G03*
X34592550Y10130442I1534216J-2500D01*
G01*
X36050000Y10454000D02*
G75*
G03*
X34526000Y8930000I0J-1524000D01*
G01*
X36989797Y13611233D02*
G75*
G03*
X34435474Y12341843I1099903J-5417933D01*
G01*
X35140680Y11490320D02*
G75*
G03*
X34421860Y11492860I-360680J-358120D01*
G01*
X34144979Y11089000D02*
G75*
G03*
X34413258Y10436290I921821J-2600D01*
G01*
X36276060Y15661000D02*
G75*
G03*
X34225736Y14148415I93980J-2273300D01*
G01*
X34264380Y12153260D02*
G75*
G03*
X34144154Y11215931I642620J-558800D01*
G01*
X33682720Y10453998D02*
G75*
G03*
X34040134Y10602046I-20J505502D01*
G01*
X35079725Y13560413D02*
G75*
G03*
X34024641Y12490235I2775875J-3791913D01*
G01*
X34078957Y13545181D02*
G75*
G03*
X34018761Y12867757I2990043J-607081D01*
G01*
X33390626Y10573386D02*
G75*
G03*
X33682720Y10452388I292074J292014D01*
G01*
X33553180Y11127100D02*
G75*
G03*
X33638874Y11571099I-1109980J444500D01*
G01*
X33255991Y10835009D02*
G75*
G03*
X33509555Y11445629I-611991J612091D01*
G01*
X33636999Y11571600D02*
G75*
G03*
X33436793Y12326679I-1523999J0D01*
G01*
X32953724Y10832444D02*
G75*
G03*
X33257788Y10706208I304676J304556D01*
G01*
X32570177Y11901801D02*
G75*
G03*
X32980340Y10804954I1529123J-53301D01*
G01*
X32189195Y11508099D02*
G75*
G03*
X32691340Y10712387I1211605J208301D01*
G01*
X33383013Y12422507D02*
G75*
G03*
X32661000Y13066488I-1323213J-756807D01*
G01*
X32143479Y10730856D02*
G75*
G03*
X32342927Y10706697I198121J800244D01*
G01*
X31561834Y11005197D02*
G75*
G03*
X32141497Y10731547I784966J912003D01*
G01*
X32570199Y11909420D02*
G75*
G03*
X32063020Y12940819I-1498599J-96520D01*
G01*
X32163769Y11856079D02*
G75*
G03*
X31809795Y12846934I-1762769J-71079D01*
G01*
X31224019Y11784960D02*
G75*
G03*
X31537946Y11027026I1071781J-60D01*
G01*
X31295114Y12153263D02*
G75*
G03*
X31359148Y13087864I-1414914J566437D01*
G01*
X31295136Y12153254D02*
G75*
G03*
X31224283Y11784513I921564J-368254D01*
G01*
%TD*%
M02*
