%TF.GenerationSoftware,KiCad,Pcbnew,7.0.9-7.0.9~ubuntu22.04.1*%
%TF.CreationDate,2025-02-28T15:02:41+02:00*%
%TF.ProjectId,UEXT-3TO5V_Rev_A,55455854-2d33-4544-9f35-565f5265765f,A*%
%TF.SameCoordinates,PX68e7780PY76bb820*%
%TF.FileFunction,Copper,L2,Bot*%
%TF.FilePolarity,Positive*%
%FSLAX46Y46*%
G04 Gerber Fmt 4.6, Leading zero omitted, Abs format (unit mm)*
G04 Created by KiCad (PCBNEW 7.0.9-7.0.9~ubuntu22.04.1) date 2025-02-28 15:02:41*
%MOMM*%
%LPD*%
G01*
G04 APERTURE LIST*
%TA.AperFunction,ViaPad*%
%ADD10C,1.000000*%
%TD*%
%TA.AperFunction,ViaPad*%
%ADD11C,0.900000*%
%TD*%
%TA.AperFunction,ViaPad*%
%ADD12C,0.800000*%
%TD*%
%TA.AperFunction,Conductor*%
%ADD13C,0.508000*%
%TD*%
%TA.AperFunction,Conductor*%
%ADD14C,1.524000*%
%TD*%
%TA.AperFunction,Conductor*%
%ADD15C,1.270000*%
%TD*%
%TA.AperFunction,Conductor*%
%ADD16C,1.016000*%
%TD*%
%TA.AperFunction,Conductor*%
%ADD17C,0.254000*%
%TD*%
%TA.AperFunction,Conductor*%
%ADD18C,0.762000*%
%TD*%
G04 APERTURE END LIST*
D10*
%TO.N,GND*%
X42400000Y5069134D03*
X1633000Y4993000D03*
X23096000Y3977000D03*
X2776000Y4993000D03*
D11*
X32494000Y12613000D03*
D10*
X43670000Y19090000D03*
X40622000Y1945000D03*
X40114000Y20995000D03*
X27414000Y1183000D03*
X18778000Y1437000D03*
D11*
X31732000Y15280000D03*
D10*
X31732000Y22011000D03*
X9761000Y20995000D03*
X18778000Y6009000D03*
D11*
X36177000Y9819000D03*
D10*
X30322366Y6656634D03*
X21445000Y3977000D03*
X5824000Y18709000D03*
D11*
X27795000Y15153000D03*
D10*
X47861000Y20995000D03*
X30716000Y13248000D03*
D12*
X14333000Y10962000D03*
D10*
X41206134Y5069134D03*
D12*
X27414000Y9819000D03*
D10*
X17762000Y6771000D03*
D12*
X27414000Y8168000D03*
D10*
X2141000Y20995000D03*
X19667000Y11343000D03*
D11*
X36685000Y13375000D03*
D12*
X22715000Y16931000D03*
D10*
X4935000Y1945000D03*
X20937000Y11343000D03*
X47734000Y2072000D03*
X31605000Y1183000D03*
D11*
X37320000Y9819000D03*
D12*
X7602000Y15407000D03*
D10*
X9634000Y1945000D03*
X18905000Y4739000D03*
X18270000Y22011000D03*
D11*
%TO.N,+5V*%
X35034000Y9819000D03*
D10*
X22715000Y18074000D03*
X27160000Y3723000D03*
X27160000Y2453000D03*
X47607000Y4993000D03*
D11*
X35288000Y13375000D03*
X33891000Y9819000D03*
D10*
X46464000Y4993000D03*
D12*
%TO.N,/I2C_SCL_5V*%
X20937000Y19852000D03*
X44686000Y12613000D03*
%TO.N,/I2C_SDA_5V*%
X25763000Y19090000D03*
X43416000Y12613000D03*
D11*
%TO.N,Net-(U4-FB)*%
X19159000Y9819000D03*
D12*
X19413000Y2961000D03*
%TO.N,/UART_TX_3.3V*%
X28684000Y12359000D03*
D10*
X15984000Y13375000D03*
D12*
%TO.N,/MOSI_3.3V*%
X29573000Y13121000D03*
D10*
X5697000Y13629000D03*
%TO.N,/MISO_3.3V*%
X11793000Y13629000D03*
D12*
X28938000Y8041000D03*
D10*
%TO.N,/UART_RX_3.3V*%
X5697000Y9311000D03*
D12*
X28049000Y7279000D03*
D10*
%TO.N,/CS_3.3V*%
X5697000Y16931000D03*
D12*
X27795000Y16296000D03*
%TO.N,/SCK_3.3V*%
X29192000Y16296000D03*
D10*
X10650000Y17693000D03*
%TD*%
D13*
%TO.N,+5V*%
X35288000Y13375000D02*
X36685000Y11978000D01*
X45067000Y6390000D02*
X46464000Y4993000D01*
X36685000Y11978000D02*
X37955000Y11978000D01*
X37955000Y11978000D02*
X43543000Y6390000D01*
X43543000Y6390000D02*
X45067000Y6390000D01*
D14*
%TO.N,GND*%
X42400000Y5069134D02*
X41942866Y5069134D01*
X41942866Y5069134D02*
X40749000Y6263000D01*
X40749000Y6263000D02*
X40749000Y6644000D01*
X37574000Y9819000D02*
X37320000Y9819000D01*
X40749000Y6644000D02*
X37574000Y9819000D01*
D15*
%TO.N,+5V*%
X27160000Y3723000D02*
X28430000Y3723000D01*
X28430000Y3723000D02*
X29344400Y3723000D01*
D16*
X27160000Y2453000D02*
X28430000Y3723000D01*
D13*
%TO.N,GND*%
X31351000Y12613000D02*
X32494000Y12613000D01*
D14*
X16661800Y8760200D02*
X12131200Y8760200D01*
X29128500Y5755000D02*
X25128000Y5755000D01*
X22461000Y11343000D02*
X18016000Y11343000D01*
X18016000Y11343000D02*
X17127000Y10454000D01*
D13*
X30716000Y13248000D02*
X31351000Y12613000D01*
D14*
X8364000Y4993000D02*
X2776000Y4993000D01*
D13*
X27795000Y15153000D02*
X28684000Y14264000D01*
D14*
X17762000Y7660000D02*
X16661800Y8760200D01*
X12131200Y8760200D02*
X8364000Y4993000D01*
X25128000Y5755000D02*
X25128000Y8676000D01*
D15*
X18778000Y6009000D02*
X18016000Y6771000D01*
D17*
X18778000Y1437000D02*
X18676400Y1538600D01*
D14*
X32367000Y10581000D02*
X32367000Y8993500D01*
D13*
X44559000Y10073000D02*
X46972000Y10073000D01*
D16*
X17762000Y6771000D02*
X17762000Y7660000D01*
D13*
X36685000Y13375000D02*
X41257000Y13375000D01*
X29700000Y14264000D02*
X30716000Y13248000D01*
D14*
X35542000Y11343000D02*
X33129000Y11343000D01*
X37320000Y9819000D02*
X37066000Y9819000D01*
X25128000Y8676000D02*
X22461000Y11343000D01*
X33129000Y11343000D02*
X32367000Y10581000D01*
D17*
X18676400Y1538600D02*
X18676400Y4510400D01*
D13*
X32621000Y14391000D02*
X35669000Y14391000D01*
X28684000Y14264000D02*
X29700000Y14264000D01*
X31732000Y15280000D02*
X32621000Y14391000D01*
D14*
X32367000Y8993500D02*
X29128500Y5755000D01*
D13*
X41257000Y13375000D02*
X44559000Y10073000D01*
D14*
X37066000Y9819000D02*
X35542000Y11343000D01*
D13*
X35669000Y14391000D02*
X36685000Y13375000D01*
D17*
X18676400Y4510400D02*
X18905000Y4739000D01*
X18016000Y6771000D02*
X17762000Y6771000D01*
D16*
%TO.N,+5V*%
X27160000Y3723000D02*
X27160000Y2453000D01*
X46464000Y4993000D02*
X47607000Y4993000D01*
D18*
X35948400Y8584971D02*
X35948400Y8422000D01*
D16*
X33891000Y8574400D02*
X34043400Y8422000D01*
D15*
X40901400Y3469000D02*
X44940000Y3469000D01*
D16*
X34399000Y9819000D02*
X35018502Y9819000D01*
D13*
X30589000Y15026000D02*
X31986000Y13629000D01*
X31986000Y13629000D02*
X34780000Y13629000D01*
D15*
X44940000Y3469000D02*
X46464000Y4993000D01*
D18*
X35034000Y9499371D02*
X35948400Y8584971D01*
D13*
X35034000Y13375000D02*
X35288000Y13375000D01*
D16*
X33891000Y9819000D02*
X33891000Y8574400D01*
D15*
X35948400Y8422000D02*
X40901400Y3469000D01*
D18*
X34399000Y9819000D02*
X34399000Y9057000D01*
D16*
X33891000Y9819000D02*
X34399000Y9819000D01*
D18*
X35034000Y9819000D02*
X35034000Y9499371D01*
X34399000Y9057000D02*
X35034000Y8422000D01*
D13*
X28938000Y18074000D02*
X30589000Y16423000D01*
D18*
X35034000Y9819000D02*
X35034000Y8422000D01*
D15*
X29344400Y3723000D02*
X34043400Y8422000D01*
D13*
X30589000Y16423000D02*
X30589000Y15026000D01*
D16*
X35018502Y9819000D02*
X35026251Y9811251D01*
D15*
X35034000Y8422000D02*
X35948400Y8422000D01*
D13*
X22715000Y18074000D02*
X28938000Y18074000D01*
X34780000Y13629000D02*
X35034000Y13375000D01*
D15*
X34043400Y8422000D02*
X35034000Y8422000D01*
D17*
%TO.N,/I2C_SCL_5V*%
X20937000Y19852000D02*
X21064000Y19979000D01*
X41511000Y15788000D02*
X44686000Y12613000D01*
X33510000Y15788000D02*
X41511000Y15788000D01*
X21064000Y19979000D02*
X29319000Y19979000D01*
X29319000Y19979000D02*
X33510000Y15788000D01*
%TO.N,/I2C_SDA_5V*%
X29065000Y19090000D02*
X33129000Y15026000D01*
X33129000Y15026000D02*
X41003000Y15026000D01*
X41003000Y15026000D02*
X43416000Y12613000D01*
X25763000Y19090000D02*
X29065000Y19090000D01*
%TO.N,Net-(U4-FB)*%
X19159000Y7279000D02*
X19159000Y9819000D01*
X19794000Y3342000D02*
X19794000Y6644000D01*
X19413000Y2961000D02*
X19794000Y3342000D01*
X19794000Y6644000D02*
X19159000Y7279000D01*
%TO.N,/UART_TX_3.3V*%
X15984000Y13375000D02*
X16492000Y13883000D01*
X26398000Y14264000D02*
X28303000Y12359000D01*
X28303000Y12359000D02*
X28684000Y12359000D01*
X20683000Y14264000D02*
X26398000Y14264000D01*
X16492000Y13883000D02*
X20302000Y13883000D01*
X20302000Y13883000D02*
X20683000Y14264000D01*
%TO.N,/MOSI_3.3V*%
X29319000Y13375000D02*
X29573000Y13121000D01*
X28303000Y13375000D02*
X29319000Y13375000D01*
X19667000Y14518000D02*
X20048000Y14899000D01*
X7729000Y14518000D02*
X19667000Y14518000D01*
X6840000Y13629000D02*
X7729000Y14518000D01*
X5697000Y13629000D02*
X6840000Y13629000D01*
X26779000Y14899000D02*
X28303000Y13375000D01*
X20048000Y14899000D02*
X26779000Y14899000D01*
%TO.N,/MISO_3.3V*%
X17127000Y13248000D02*
X16238000Y12359000D01*
X16238000Y12359000D02*
X15603000Y12359000D01*
X20683000Y13248000D02*
X17127000Y13248000D01*
X28938000Y8041000D02*
X28938000Y10708000D01*
X14333000Y13629000D02*
X11793000Y13629000D01*
X28938000Y10708000D02*
X26017000Y13629000D01*
X26017000Y13629000D02*
X21064000Y13629000D01*
X21064000Y13629000D02*
X20683000Y13248000D01*
X15603000Y12359000D02*
X14333000Y13629000D01*
%TO.N,/UART_RX_3.3V*%
X25636000Y12994000D02*
X28176000Y10454000D01*
X20937000Y12613000D02*
X21318000Y12994000D01*
X28176000Y7406000D02*
X28049000Y7279000D01*
X16492000Y11724000D02*
X17381000Y12613000D01*
X21318000Y12994000D02*
X25636000Y12994000D01*
X17381000Y12613000D02*
X20937000Y12613000D01*
X28176000Y10454000D02*
X28176000Y7406000D01*
X8110000Y11724000D02*
X16492000Y11724000D01*
X5697000Y9311000D02*
X8110000Y11724000D01*
%TO.N,/CS_3.3V*%
X26271000Y15534000D02*
X27033000Y16296000D01*
X9380000Y15153000D02*
X19413000Y15153000D01*
X7729000Y16804000D02*
X9380000Y15153000D01*
X5824000Y16804000D02*
X7729000Y16804000D01*
X19413000Y15153000D02*
X19794000Y15534000D01*
X19794000Y15534000D02*
X26271000Y15534000D01*
X27033000Y16296000D02*
X27795000Y16296000D01*
X5697000Y16931000D02*
X5824000Y16804000D01*
%TO.N,/SCK_3.3V*%
X19540000Y16169000D02*
X25636000Y16169000D01*
X26652000Y17185000D02*
X28303000Y17185000D01*
X25636000Y16169000D02*
X26652000Y17185000D01*
X10650000Y17693000D02*
X12555000Y15788000D01*
X12555000Y15788000D02*
X19159000Y15788000D01*
X28303000Y17185000D02*
X29192000Y16296000D01*
X19159000Y15788000D02*
X19540000Y16169000D01*
%TD*%
%TA.AperFunction,Conductor*%
%TO.N,GND*%
G36*
X13133768Y22674698D02*
G01*
X13180261Y22621042D01*
X13190365Y22550768D01*
X13160871Y22486188D01*
X13135301Y22463704D01*
X13129936Y22460144D01*
X12909452Y22313881D01*
X12909445Y22313876D01*
X12622202Y22075732D01*
X12361883Y21808388D01*
X12131464Y21514900D01*
X11933543Y21198575D01*
X11770370Y20863014D01*
X11770369Y20863013D01*
X11643788Y20512008D01*
X11643786Y20512002D01*
X11555232Y20149532D01*
X11555228Y20149509D01*
X11505706Y19779696D01*
X11505705Y19779687D01*
X11495772Y19406690D01*
X11495772Y19406684D01*
X11525542Y19034741D01*
X11594683Y18668057D01*
X11594686Y18668048D01*
X11702399Y18310820D01*
X11702403Y18310811D01*
X11847484Y17967044D01*
X11847492Y17967027D01*
X11970720Y17744563D01*
X12028293Y17640626D01*
X12227836Y17356545D01*
X12242772Y17335282D01*
X12242777Y17335276D01*
X12488482Y17054474D01*
X12488484Y17054472D01*
X12760349Y16803500D01*
X12762655Y16801371D01*
X13062171Y16578849D01*
X13062172Y16578847D01*
X13062176Y16578845D01*
X13062177Y16578844D01*
X13358810Y16404055D01*
X13407344Y16352240D01*
X13420161Y16282410D01*
X13393191Y16216736D01*
X13334995Y16176069D01*
X13294843Y16169500D01*
X12765212Y16169500D01*
X12697091Y16189502D01*
X12676117Y16206405D01*
X11689620Y17192903D01*
X11662307Y17233778D01*
X11628776Y17314726D01*
X11356154Y17972864D01*
X11355085Y17974466D01*
X11340950Y18002809D01*
X11339543Y18006829D01*
X11334082Y18022437D01*
X11301683Y18074000D01*
X11243624Y18166401D01*
X11123402Y18286623D01*
X11123399Y18286625D01*
X10979439Y18377081D01*
X10979437Y18377082D01*
X10904115Y18403438D01*
X10818954Y18433237D01*
X10650000Y18452274D01*
X10481046Y18433237D01*
X10481043Y18433237D01*
X10481043Y18433236D01*
X10320562Y18377082D01*
X10320560Y18377081D01*
X10176600Y18286625D01*
X10176597Y18286623D01*
X10056377Y18166403D01*
X10056375Y18166400D01*
X9965919Y18022440D01*
X9965918Y18022438D01*
X9959050Y18002809D01*
X9909763Y17861954D01*
X9890726Y17693000D01*
X9909763Y17524046D01*
X9935959Y17449181D01*
X9965918Y17363563D01*
X9965919Y17363561D01*
X10056375Y17219601D01*
X10056377Y17219598D01*
X10176597Y17099378D01*
X10176600Y17099376D01*
X10320563Y17008918D01*
X10335530Y17003681D01*
X10340196Y17002048D01*
X10368578Y16987887D01*
X10369142Y16987510D01*
X10370135Y16986847D01*
X11109223Y16680693D01*
X11150097Y16653380D01*
X12053882Y15749595D01*
X12087908Y15687283D01*
X12082843Y15616468D01*
X12040296Y15559632D01*
X11973776Y15534821D01*
X11964787Y15534500D01*
X9590213Y15534500D01*
X9522092Y15554502D01*
X9501118Y15571405D01*
X8035980Y17036543D01*
X8019591Y17056724D01*
X8013560Y17065956D01*
X7985103Y17088105D01*
X7979245Y17093278D01*
X7976413Y17096110D01*
X7976402Y17096120D01*
X7957099Y17109901D01*
X7913086Y17144158D01*
X7906064Y17147958D01*
X7898872Y17151474D01*
X7898870Y17151475D01*
X7898867Y17151476D01*
X7845412Y17167391D01*
X7792664Y17185499D01*
X7792663Y17185500D01*
X7792661Y17185500D01*
X7792658Y17185500D01*
X7784748Y17186821D01*
X7776842Y17187806D01*
X7721116Y17185500D01*
X6785412Y17185500D01*
X6721412Y17202964D01*
X6086318Y17577457D01*
X6043802Y17604171D01*
X6026437Y17615082D01*
X6026436Y17615083D01*
X6026435Y17615083D01*
X6026430Y17615085D01*
X6014397Y17619296D01*
X6009002Y17621468D01*
X5998234Y17626395D01*
X5998232Y17626396D01*
X5992817Y17627484D01*
X5984419Y17629786D01*
X5865958Y17671236D01*
X5865956Y17671237D01*
X5865954Y17671237D01*
X5697000Y17690274D01*
X5528046Y17671237D01*
X5528043Y17671237D01*
X5528043Y17671236D01*
X5367562Y17615082D01*
X5367560Y17615081D01*
X5223600Y17524625D01*
X5223597Y17524623D01*
X5103377Y17404403D01*
X5103375Y17404400D01*
X5012919Y17260440D01*
X5012918Y17260438D01*
X4960244Y17109901D01*
X4956763Y17099954D01*
X4937726Y16931000D01*
X4956763Y16762046D01*
X4990127Y16666696D01*
X5012918Y16601563D01*
X5012919Y16601561D01*
X5103375Y16457601D01*
X5103377Y16457598D01*
X5223597Y16337378D01*
X5223600Y16337376D01*
X5367563Y16246918D01*
X5450851Y16217775D01*
X5508540Y16176399D01*
X5534703Y16110399D01*
X5521031Y16040731D01*
X5483521Y16000699D01*
X5485265Y15998405D01*
X5479825Y15994270D01*
X5344894Y15866457D01*
X5240587Y15712617D01*
X5171790Y15539951D01*
X5141722Y15356536D01*
X5141722Y15356535D01*
X5151783Y15170945D01*
X5151785Y15170934D01*
X5201505Y14991860D01*
X5201507Y14991855D01*
X5201508Y14991852D01*
X5288569Y14827638D01*
X5408895Y14685979D01*
X5545205Y14582359D01*
X5587331Y14525210D01*
X5591872Y14454359D01*
X5557388Y14392300D01*
X5510568Y14363122D01*
X5367562Y14313082D01*
X5367560Y14313081D01*
X5223600Y14222625D01*
X5223597Y14222623D01*
X5103377Y14102403D01*
X5103375Y14102400D01*
X5012919Y13958440D01*
X5012918Y13958438D01*
X4974416Y13848403D01*
X4956763Y13797954D01*
X4937726Y13629000D01*
X4956763Y13460046D01*
X4968187Y13427399D01*
X5012918Y13299563D01*
X5012919Y13299561D01*
X5103375Y13155601D01*
X5103377Y13155598D01*
X5223597Y13035378D01*
X5223600Y13035376D01*
X5367563Y12944918D01*
X5528046Y12888763D01*
X5697000Y12869726D01*
X5865954Y12888763D01*
X5972147Y12925922D01*
X5980672Y12928248D01*
X5987413Y12929590D01*
X5998433Y12931781D01*
X6600237Y13181044D01*
X6737531Y13237910D01*
X6785747Y13247500D01*
X6787366Y13247500D01*
X6813224Y13244819D01*
X6824017Y13242555D01*
X6859809Y13247017D01*
X6867600Y13247500D01*
X6871611Y13247500D01*
X6895005Y13251404D01*
X6902887Y13252387D01*
X6950360Y13258304D01*
X6950362Y13258306D01*
X6958011Y13260583D01*
X6965584Y13263182D01*
X6965586Y13263182D01*
X6994412Y13278782D01*
X7014641Y13289730D01*
X7020473Y13292581D01*
X7064746Y13314224D01*
X7064750Y13314229D01*
X7071266Y13318880D01*
X7077562Y13323780D01*
X7115341Y13364820D01*
X7850119Y14099596D01*
X7912431Y14133621D01*
X7939214Y14136500D01*
X10994141Y14136500D01*
X11062262Y14116498D01*
X11108755Y14062842D01*
X11118859Y13992568D01*
X11110566Y13965357D01*
X11111255Y13965116D01*
X11082075Y13881724D01*
X11052763Y13797954D01*
X11033726Y13629000D01*
X11052763Y13460046D01*
X11064187Y13427399D01*
X11108918Y13299563D01*
X11108919Y13299561D01*
X11199375Y13155601D01*
X11199377Y13155598D01*
X11319597Y13035378D01*
X11319600Y13035376D01*
X11463563Y12944918D01*
X11624046Y12888763D01*
X11793000Y12869726D01*
X11961954Y12888763D01*
X12068147Y12925922D01*
X12076672Y12928248D01*
X12083413Y12929590D01*
X12094433Y12931781D01*
X12696237Y13181044D01*
X12833531Y13237910D01*
X12881747Y13247500D01*
X14122788Y13247500D01*
X14190909Y13227498D01*
X14211883Y13210595D01*
X15101883Y12320595D01*
X15135909Y12258283D01*
X15130844Y12187468D01*
X15088297Y12130632D01*
X15021777Y12105821D01*
X15012788Y12105500D01*
X8162634Y12105500D01*
X8136775Y12108182D01*
X8125981Y12110446D01*
X8103787Y12107679D01*
X8090188Y12105984D01*
X8082400Y12105500D01*
X8078385Y12105500D01*
X8059674Y12102378D01*
X8054996Y12101597D01*
X8049974Y12100971D01*
X7999637Y12094697D01*
X7991985Y12092419D01*
X7984415Y12089820D01*
X7935362Y12063273D01*
X7885256Y12038778D01*
X7878743Y12034128D01*
X7872437Y12029220D01*
X7834657Y11988180D01*
X6197098Y10350623D01*
X6156223Y10323310D01*
X5417130Y10017152D01*
X5417127Y10017151D01*
X5415526Y10016081D01*
X5387196Y10001953D01*
X5367563Y9995083D01*
X5367560Y9995082D01*
X5223600Y9904625D01*
X5223597Y9904623D01*
X5103377Y9784403D01*
X5103375Y9784400D01*
X5012919Y9640440D01*
X5012918Y9640438D01*
X4977915Y9540403D01*
X4956763Y9479954D01*
X4937726Y9311000D01*
X4956763Y9142046D01*
X4996109Y9029601D01*
X5012918Y8981563D01*
X5012919Y8981561D01*
X5103375Y8837601D01*
X5103377Y8837598D01*
X5223597Y8717378D01*
X5223600Y8717376D01*
X5367563Y8626918D01*
X5450851Y8597775D01*
X5508540Y8556399D01*
X5534703Y8490399D01*
X5521031Y8420731D01*
X5483521Y8380699D01*
X5485265Y8378405D01*
X5479825Y8374270D01*
X5344894Y8246457D01*
X5240587Y8092617D01*
X5171790Y7919951D01*
X5141722Y7736536D01*
X5141722Y7736535D01*
X5151783Y7550945D01*
X5151785Y7550934D01*
X5201505Y7371860D01*
X5201507Y7371855D01*
X5201508Y7371852D01*
X5288569Y7207638D01*
X5408895Y7065979D01*
X5556861Y6953498D01*
X5556864Y6953496D01*
X5711479Y6881964D01*
X5725548Y6875455D01*
X5907067Y6835500D01*
X5907070Y6835500D01*
X6046324Y6835500D01*
X6046332Y6835500D01*
X6184775Y6850557D01*
X6360911Y6909904D01*
X6520171Y7005727D01*
X6655108Y7133546D01*
X6759413Y7287385D01*
X6828209Y7460049D01*
X6858278Y7643465D01*
X6848216Y7829058D01*
X6798492Y8008148D01*
X6711431Y8172362D01*
X6591105Y8314021D01*
X6443139Y8426502D01*
X6443138Y8426503D01*
X6443135Y8426505D01*
X6274453Y8504546D01*
X6239434Y8512254D01*
X6177206Y8546434D01*
X6143335Y8608830D01*
X6148576Y8679633D01*
X6177425Y8724402D01*
X6290624Y8837600D01*
X6381082Y8981563D01*
X6387953Y9001203D01*
X6402121Y9029592D01*
X6403154Y9031137D01*
X6709307Y9770227D01*
X6736614Y9811094D01*
X6744518Y9818998D01*
X18449326Y9818998D01*
X18469947Y9649165D01*
X18497630Y9576171D01*
X18503751Y9554220D01*
X18506284Y9540405D01*
X18768619Y8879185D01*
X18777500Y8832719D01*
X18777500Y7331634D01*
X18774818Y7305777D01*
X18772554Y7294984D01*
X18773502Y7287385D01*
X18777016Y7259191D01*
X18777500Y7251400D01*
X18777500Y7247385D01*
X18777499Y7247385D01*
X18781403Y7223997D01*
X18788303Y7168643D01*
X18790588Y7160968D01*
X18793180Y7153418D01*
X18793181Y7153415D01*
X18793182Y7153414D01*
X18819729Y7104359D01*
X18825903Y7091730D01*
X18844225Y7054252D01*
X18848868Y7047749D01*
X18853782Y7041435D01*
X18892568Y7005731D01*
X18894818Y7003660D01*
X19375596Y6522882D01*
X19409620Y6460571D01*
X19412500Y6433788D01*
X19412500Y3812386D01*
X19392498Y3744265D01*
X19356587Y3707678D01*
X19102554Y3537638D01*
X19096785Y3534207D01*
X19038475Y3503603D01*
X19038472Y3503600D01*
X19001206Y3470586D01*
X18995727Y3466250D01*
X18992395Y3463901D01*
X18992390Y3463897D01*
X18982283Y3456397D01*
X18975671Y3450975D01*
X18970850Y3446615D01*
X18957043Y3434128D01*
X18949904Y3425876D01*
X18944034Y3419936D01*
X18919502Y3398202D01*
X18919500Y3398200D01*
X18829215Y3267399D01*
X18829212Y3267393D01*
X18772849Y3118780D01*
X18753693Y2961004D01*
X18753693Y2960997D01*
X18772849Y2803221D01*
X18804832Y2718892D01*
X18829213Y2654605D01*
X18919502Y2523799D01*
X19038471Y2418401D01*
X19038472Y2418401D01*
X19038474Y2418399D01*
X19113200Y2379180D01*
X19179207Y2344537D01*
X19333529Y2306500D01*
X19333530Y2306500D01*
X19492470Y2306500D01*
X19492471Y2306500D01*
X19646793Y2344537D01*
X19787529Y2418401D01*
X19906498Y2523799D01*
X19996787Y2654605D01*
X20053149Y2803218D01*
X20065345Y2903669D01*
X20069765Y2921505D01*
X20068925Y2921732D01*
X20070540Y2927692D01*
X20070543Y2927699D01*
X20097119Y3085729D01*
X20121944Y3142223D01*
X20134158Y3157915D01*
X20134158Y3157918D01*
X20134160Y3157919D01*
X20137954Y3164931D01*
X20141471Y3172126D01*
X20141475Y3172130D01*
X20144026Y3180700D01*
X20157391Y3225590D01*
X20175499Y3278336D01*
X20176819Y3286251D01*
X20177805Y3294157D01*
X20175500Y3349884D01*
X20175500Y3547823D01*
X20175992Y3555683D01*
X20176856Y3562563D01*
X20176978Y3564033D01*
X20177468Y3569892D01*
X20178368Y3591492D01*
X20177921Y3593740D01*
X20175500Y3618320D01*
X20175500Y6591366D01*
X20178182Y6617226D01*
X20180445Y6628016D01*
X20175983Y6663810D01*
X20175500Y6671600D01*
X20175500Y6675606D01*
X20175500Y6675611D01*
X20171595Y6699007D01*
X20164696Y6754360D01*
X20164694Y6754365D01*
X20162414Y6762025D01*
X20159819Y6769585D01*
X20133276Y6818632D01*
X20108776Y6868748D01*
X20104147Y6875232D01*
X20099220Y6881562D01*
X20058192Y6919331D01*
X19577405Y7400119D01*
X19543379Y7462431D01*
X19540500Y7489214D01*
X19540500Y8832719D01*
X19549381Y8879185D01*
X19558188Y8901384D01*
X19811714Y9540403D01*
X19814468Y9555071D01*
X19820490Y9576493D01*
X19848052Y9649164D01*
X19857879Y9730092D01*
X19868674Y9818998D01*
X19868674Y9819003D01*
X19848052Y9988834D01*
X19848052Y9988836D01*
X19787385Y10148802D01*
X19754489Y10196460D01*
X19690200Y10289600D01*
X19690197Y10289603D01*
X19562146Y10403046D01*
X19562137Y10403053D01*
X19410658Y10482555D01*
X19410656Y10482556D01*
X19410654Y10482557D01*
X19410652Y10482558D01*
X19410651Y10482558D01*
X19244543Y10523500D01*
X19244542Y10523500D01*
X19073458Y10523500D01*
X19073456Y10523500D01*
X18907348Y10482558D01*
X18907341Y10482555D01*
X18755862Y10403053D01*
X18755853Y10403046D01*
X18627802Y10289603D01*
X18627799Y10289600D01*
X18530616Y10148805D01*
X18469947Y9988834D01*
X18449326Y9819003D01*
X18449326Y9818998D01*
X6744518Y9818998D01*
X8231119Y11305598D01*
X8293429Y11339621D01*
X8320212Y11342500D01*
X16439366Y11342500D01*
X16465224Y11339819D01*
X16476017Y11337555D01*
X16511809Y11342017D01*
X16519600Y11342500D01*
X16523611Y11342500D01*
X16547005Y11346404D01*
X16554887Y11347387D01*
X16602360Y11353304D01*
X16602362Y11353306D01*
X16610011Y11355583D01*
X16617584Y11358182D01*
X16617586Y11358182D01*
X16666641Y11384730D01*
X16716746Y11409224D01*
X16716750Y11409229D01*
X16723266Y11413880D01*
X16729562Y11418780D01*
X16767341Y11459820D01*
X17502119Y12194596D01*
X17564431Y12228621D01*
X17591214Y12231500D01*
X20884366Y12231500D01*
X20910224Y12228819D01*
X20921017Y12226555D01*
X20956809Y12231017D01*
X20964600Y12231500D01*
X20968611Y12231500D01*
X20992005Y12235404D01*
X20999887Y12236387D01*
X21047360Y12242304D01*
X21047362Y12242306D01*
X21055011Y12244583D01*
X21062584Y12247182D01*
X21062586Y12247182D01*
X21070471Y12251449D01*
X21111641Y12273730D01*
X21114793Y12275271D01*
X21161746Y12298224D01*
X21161750Y12298229D01*
X21168266Y12302880D01*
X21174562Y12307780D01*
X21212341Y12348820D01*
X21439118Y12575596D01*
X21501430Y12609621D01*
X21528213Y12612500D01*
X25425788Y12612500D01*
X25493909Y12592498D01*
X25514883Y12575595D01*
X27757595Y10332883D01*
X27791621Y10270571D01*
X27794500Y10243788D01*
X27794500Y8168081D01*
X27776808Y8103696D01*
X27491432Y7623635D01*
X27489125Y7620039D01*
X27465212Y7585395D01*
X27465211Y7585393D01*
X27460469Y7572891D01*
X27457884Y7567002D01*
X27453620Y7558494D01*
X27446081Y7542053D01*
X27446080Y7542052D01*
X27445073Y7537047D01*
X27439366Y7517246D01*
X27408851Y7436785D01*
X27408849Y7436778D01*
X27389693Y7279004D01*
X27389693Y7278997D01*
X27408849Y7121221D01*
X27465212Y6972608D01*
X27465215Y6972602D01*
X27469396Y6966545D01*
X27555502Y6841799D01*
X27674471Y6736401D01*
X27674472Y6736401D01*
X27674474Y6736399D01*
X27741295Y6701329D01*
X27815207Y6662537D01*
X27969529Y6624500D01*
X27969530Y6624500D01*
X28128470Y6624500D01*
X28128471Y6624500D01*
X28282793Y6662537D01*
X28423529Y6736401D01*
X28542498Y6841799D01*
X28632787Y6972605D01*
X28689149Y7121218D01*
X28689149Y7121219D01*
X28689150Y7121221D01*
X28708203Y7278138D01*
X28736270Y7343352D01*
X28795138Y7383038D01*
X28850650Y7384868D01*
X28850960Y7387419D01*
X28858528Y7386501D01*
X28858529Y7386500D01*
X28858530Y7386500D01*
X29017470Y7386500D01*
X29017471Y7386500D01*
X29171793Y7424537D01*
X29312529Y7498401D01*
X29431498Y7603799D01*
X29521787Y7734605D01*
X29578149Y7883218D01*
X29578149Y7883219D01*
X29578150Y7883221D01*
X29597307Y8040997D01*
X29597307Y8041004D01*
X29578150Y8198780D01*
X29555011Y8259791D01*
X29548481Y8284101D01*
X29546575Y8295734D01*
X29546574Y8295736D01*
X29546574Y8295739D01*
X29448845Y8556399D01*
X29327520Y8879994D01*
X29319500Y8924228D01*
X29319500Y10655366D01*
X29322182Y10681226D01*
X29324445Y10692016D01*
X29319983Y10727810D01*
X29319500Y10735600D01*
X29319500Y10739606D01*
X29319500Y10739611D01*
X29315595Y10763007D01*
X29308696Y10818360D01*
X29308694Y10818365D01*
X29306423Y10825993D01*
X29303818Y10833581D01*
X29303818Y10833586D01*
X29277270Y10882642D01*
X29252776Y10932746D01*
X29252773Y10932749D01*
X29252773Y10932750D01*
X29248127Y10939258D01*
X29243219Y10945564D01*
X29202180Y10983342D01*
X28694586Y11490936D01*
X28660563Y11553246D01*
X28665627Y11624061D01*
X28708174Y11680897D01*
X28756645Y11700347D01*
X28756071Y11702676D01*
X28763471Y11704500D01*
X28917793Y11742537D01*
X29058529Y11816401D01*
X29177498Y11921799D01*
X29267787Y12052605D01*
X29324149Y12201218D01*
X29324149Y12201219D01*
X29324150Y12201221D01*
X29335236Y12292532D01*
X29343202Y12358141D01*
X29371268Y12423352D01*
X29430136Y12463039D01*
X29485649Y12464862D01*
X29485960Y12467419D01*
X29493528Y12466501D01*
X29493529Y12466500D01*
X29493530Y12466500D01*
X29652470Y12466500D01*
X29652471Y12466500D01*
X29806793Y12504537D01*
X29947529Y12578401D01*
X30066498Y12683799D01*
X30156787Y12814605D01*
X30213149Y12963218D01*
X30213149Y12963219D01*
X30213150Y12963221D01*
X30232307Y13120997D01*
X30232307Y13121004D01*
X30213150Y13278780D01*
X30192978Y13331967D01*
X30156787Y13427395D01*
X30066498Y13558201D01*
X29947529Y13663599D01*
X29947528Y13663600D01*
X29947525Y13663602D01*
X29806797Y13737461D01*
X29806795Y13737462D01*
X29806793Y13737463D01*
X29806791Y13737464D01*
X29806790Y13737464D01*
X29652472Y13775500D01*
X29652471Y13775500D01*
X29591487Y13775500D01*
X29570258Y13777301D01*
X29553994Y13780081D01*
X29553993Y13780081D01*
X29384704Y13775500D01*
X28875245Y13761714D01*
X28870787Y13760733D01*
X28864953Y13759448D01*
X28837860Y13756500D01*
X28513212Y13756500D01*
X28445091Y13776502D01*
X28424117Y13793405D01*
X27763163Y14454359D01*
X27085980Y15131543D01*
X27069591Y15151724D01*
X27063560Y15160956D01*
X27035103Y15183105D01*
X27029245Y15188278D01*
X27026413Y15191110D01*
X27026402Y15191120D01*
X27007099Y15204901D01*
X26963086Y15239158D01*
X26956064Y15242958D01*
X26948872Y15246474D01*
X26948870Y15246475D01*
X26948867Y15246476D01*
X26895412Y15262391D01*
X26842656Y15280502D01*
X26839307Y15281061D01*
X26835116Y15283091D01*
X26832787Y15283890D01*
X26832883Y15284172D01*
X26775409Y15312005D01*
X26738385Y15372584D01*
X26739989Y15443562D01*
X26770955Y15494434D01*
X27084252Y15807731D01*
X27146562Y15841755D01*
X27217377Y15836690D01*
X27226292Y15832970D01*
X27406308Y15749595D01*
X27524267Y15694962D01*
X27527155Y15693696D01*
X27531655Y15691776D01*
X27531758Y15691732D01*
X27531765Y15691731D01*
X27535870Y15690459D01*
X27557151Y15681666D01*
X27561207Y15679537D01*
X27715529Y15641500D01*
X27715530Y15641500D01*
X27874470Y15641500D01*
X27874471Y15641500D01*
X28028793Y15679537D01*
X28169529Y15753401D01*
X28288498Y15858799D01*
X28378787Y15989605D01*
X28378790Y15989615D01*
X28381932Y15995599D01*
X28431300Y16046621D01*
X28500416Y16062854D01*
X28567337Y16039143D01*
X28605068Y15995599D01*
X28608211Y15989608D01*
X28608213Y15989605D01*
X28698502Y15858799D01*
X28817471Y15753401D01*
X28817472Y15753401D01*
X28817474Y15753399D01*
X28892200Y15714180D01*
X28958207Y15679537D01*
X29112529Y15641500D01*
X29112530Y15641500D01*
X29271470Y15641500D01*
X29271471Y15641500D01*
X29425793Y15679537D01*
X29566529Y15753401D01*
X29685498Y15858799D01*
X29775787Y15989605D01*
X29832149Y16138218D01*
X29832149Y16138225D01*
X29832161Y16138267D01*
X29832179Y16138300D01*
X29834852Y16145345D01*
X29836023Y16144901D01*
X29867884Y16199621D01*
X29931107Y16231922D01*
X30001757Y16224915D01*
X30057403Y16180824D01*
X30080378Y16113648D01*
X30080500Y16108113D01*
X30080500Y15094217D01*
X30077622Y15067438D01*
X30076580Y15062649D01*
X30080339Y15010084D01*
X30080500Y15005588D01*
X30080500Y14989630D01*
X30082769Y14973840D01*
X30083249Y14969373D01*
X30087010Y14916801D01*
X30087011Y14916796D01*
X30088726Y14912199D01*
X30095381Y14886124D01*
X30096078Y14881276D01*
X30096082Y14881262D01*
X30117969Y14833335D01*
X30119690Y14829181D01*
X30138110Y14779798D01*
X30138112Y14779794D01*
X30141048Y14775872D01*
X30154788Y14752714D01*
X30156822Y14748260D01*
X30156824Y14748257D01*
X30191329Y14708436D01*
X30194152Y14704933D01*
X30203717Y14692155D01*
X30203719Y14692153D01*
X30203720Y14692152D01*
X30215012Y14680860D01*
X30218065Y14677582D01*
X30252579Y14637750D01*
X30252580Y14637749D01*
X30256691Y14635107D01*
X30277671Y14618201D01*
X31578199Y13317673D01*
X31595101Y13296700D01*
X31597748Y13292581D01*
X31597750Y13292578D01*
X31630355Y13264327D01*
X31637305Y13258304D01*
X31637570Y13258075D01*
X31640850Y13255022D01*
X31652152Y13243720D01*
X31659176Y13238462D01*
X31664932Y13234153D01*
X31668435Y13231329D01*
X31704614Y13199980D01*
X31708257Y13196824D01*
X31710602Y13195754D01*
X31712708Y13194791D01*
X31735877Y13181044D01*
X31739793Y13178113D01*
X31739796Y13178111D01*
X31789171Y13159696D01*
X31793311Y13157982D01*
X31841266Y13136081D01*
X31846107Y13135386D01*
X31872216Y13128722D01*
X31876799Y13127012D01*
X31902950Y13125142D01*
X31929366Y13123252D01*
X31933827Y13122773D01*
X31949632Y13120500D01*
X31965592Y13120500D01*
X31970088Y13120339D01*
X31987468Y13119097D01*
X32022648Y13116580D01*
X32025620Y13117227D01*
X32027435Y13117621D01*
X32054215Y13120500D01*
X34338488Y13120500D01*
X34405806Y13101009D01*
X34847582Y12821788D01*
X34863819Y12809590D01*
X34884856Y12790952D01*
X34884857Y12790952D01*
X34884859Y12790950D01*
X34923286Y12770782D01*
X34950492Y12756503D01*
X34954874Y12753974D01*
X34970055Y12744379D01*
X34972709Y12742854D01*
X34979472Y12738295D01*
X34979527Y12738381D01*
X34984745Y12735060D01*
X34984747Y12735059D01*
X35589219Y12350411D01*
X35610666Y12333206D01*
X36277199Y11666673D01*
X36294101Y11645700D01*
X36296748Y11641581D01*
X36296750Y11641578D01*
X36336570Y11607075D01*
X36339850Y11604022D01*
X36351152Y11592720D01*
X36358176Y11587462D01*
X36363932Y11583153D01*
X36367435Y11580329D01*
X36403614Y11548980D01*
X36407257Y11545824D01*
X36409602Y11544754D01*
X36411708Y11543791D01*
X36434877Y11530044D01*
X36438793Y11527113D01*
X36438796Y11527111D01*
X36488171Y11508696D01*
X36492311Y11506982D01*
X36540266Y11485081D01*
X36545107Y11484386D01*
X36571216Y11477722D01*
X36575799Y11476012D01*
X36601950Y11474142D01*
X36628366Y11472252D01*
X36632827Y11471773D01*
X36648632Y11469500D01*
X36664592Y11469500D01*
X36669088Y11469339D01*
X36686468Y11468097D01*
X36721648Y11465580D01*
X36724620Y11466227D01*
X36726435Y11466621D01*
X36753215Y11469500D01*
X37692182Y11469500D01*
X37760303Y11449498D01*
X37781277Y11432595D01*
X43135199Y6078673D01*
X43152101Y6057700D01*
X43154748Y6053581D01*
X43154750Y6053579D01*
X43194587Y6019060D01*
X43197849Y6016023D01*
X43209149Y6004723D01*
X43209159Y6004714D01*
X43221925Y5995158D01*
X43225427Y5992336D01*
X43252324Y5969030D01*
X43265257Y5957824D01*
X43269716Y5955788D01*
X43292872Y5942049D01*
X43296796Y5939112D01*
X43346176Y5920695D01*
X43350313Y5918981D01*
X43398266Y5897081D01*
X43403107Y5896386D01*
X43429216Y5889722D01*
X43433799Y5888012D01*
X43459482Y5886175D01*
X43486366Y5884252D01*
X43490827Y5883773D01*
X43506632Y5881500D01*
X43522592Y5881500D01*
X43527088Y5881339D01*
X43544468Y5880097D01*
X43579648Y5877580D01*
X43582620Y5878227D01*
X43584435Y5878621D01*
X43611215Y5881500D01*
X44804182Y5881500D01*
X44872303Y5861498D01*
X44893277Y5844595D01*
X45349095Y5388777D01*
X45368477Y5363781D01*
X45396166Y5316922D01*
X45413600Y5248099D01*
X45391059Y5180776D01*
X45376785Y5163728D01*
X44608460Y4395404D01*
X44546150Y4361380D01*
X44519367Y4358500D01*
X41322033Y4358500D01*
X41253912Y4378502D01*
X41232938Y4395405D01*
X36633888Y8994455D01*
X36621046Y9009491D01*
X36613069Y9020470D01*
X36562112Y9066353D01*
X36559720Y9068623D01*
X36544412Y9083932D01*
X36544406Y9083937D01*
X36527568Y9097573D01*
X36525060Y9099715D01*
X36502508Y9120020D01*
X36474115Y9145585D01*
X36462361Y9152371D01*
X36446067Y9163570D01*
X36435523Y9172109D01*
X36374450Y9203226D01*
X36371567Y9204791D01*
X36312185Y9239075D01*
X36299272Y9243271D01*
X36281013Y9250835D01*
X36268924Y9256994D01*
X36268921Y9256995D01*
X36202712Y9274736D01*
X36199548Y9275673D01*
X36164444Y9287080D01*
X36114288Y9317817D01*
X35971271Y9460834D01*
X35947612Y9493693D01*
X35946162Y9496600D01*
X35918126Y9545870D01*
X35918125Y9545873D01*
X35915132Y9550005D01*
X35912754Y9552936D01*
X35909829Y9556841D01*
X35856735Y9633762D01*
X35842620Y9660655D01*
X35821711Y9715784D01*
X35814441Y9745278D01*
X35810910Y9774364D01*
X35809684Y9784465D01*
X35802554Y9821013D01*
X35802553Y9821017D01*
X35802552Y9821023D01*
X35801677Y9824254D01*
X35796399Y9839360D01*
X35792001Y9851948D01*
X35785427Y9882530D01*
X35783187Y9908134D01*
X35778082Y9966491D01*
X35722016Y10135691D01*
X35694550Y10180220D01*
X35686096Y10196460D01*
X35683344Y10202840D01*
X35683342Y10202845D01*
X35668963Y10222158D01*
X35665879Y10226702D01*
X35628443Y10287396D01*
X35628439Y10287401D01*
X35619862Y10295978D01*
X35603438Y10312402D01*
X35591472Y10326248D01*
X35590519Y10327528D01*
X35576900Y10345822D01*
X35576898Y10345824D01*
X35536232Y10379948D01*
X35532178Y10383662D01*
X35526273Y10389568D01*
X35500121Y10410247D01*
X35440357Y10460395D01*
X35434230Y10464424D01*
X35434263Y10464476D01*
X35427805Y10468590D01*
X35427774Y10468539D01*
X35421524Y10472394D01*
X35364960Y10498770D01*
X35350796Y10505375D01*
X35343544Y10509017D01*
X35281074Y10540392D01*
X35274173Y10542903D01*
X35274193Y10542961D01*
X35266961Y10545475D01*
X35266942Y10545417D01*
X35259978Y10547725D01*
X35183567Y10563502D01*
X35107622Y10581501D01*
X35100335Y10582352D01*
X35100342Y10582413D01*
X35092728Y10583191D01*
X35092723Y10583129D01*
X35085411Y10583769D01*
X35007426Y10581500D01*
X33915023Y10581500D01*
X33911359Y10581607D01*
X33846365Y10585393D01*
X33782255Y10574089D01*
X33778630Y10573558D01*
X33713956Y10565998D01*
X33713954Y10565998D01*
X33703248Y10562101D01*
X33682044Y10556419D01*
X33670825Y10554441D01*
X33670823Y10554440D01*
X33611057Y10528660D01*
X33607652Y10527307D01*
X33546463Y10505036D01*
X33546459Y10505034D01*
X33536935Y10498770D01*
X33517619Y10488355D01*
X33507161Y10483844D01*
X33507153Y10483839D01*
X33454925Y10444959D01*
X33451926Y10442859D01*
X33397538Y10407086D01*
X33397537Y10407086D01*
X33389716Y10398796D01*
X33373323Y10384207D01*
X33364179Y10377399D01*
X33364177Y10377397D01*
X33322331Y10327528D01*
X33319896Y10324792D01*
X33275214Y10277431D01*
X33275212Y10277428D01*
X33269514Y10267559D01*
X33256927Y10249583D01*
X33249608Y10240860D01*
X33249601Y10240849D01*
X33220382Y10182671D01*
X33218644Y10179448D01*
X33186094Y10123068D01*
X33186091Y10123061D01*
X33182826Y10112155D01*
X33174722Y10091754D01*
X33169605Y10081565D01*
X33169604Y10081561D01*
X33154589Y10018209D01*
X33153641Y10014670D01*
X33134972Y9952313D01*
X33134970Y9952299D01*
X33134307Y9940924D01*
X33131127Y9919216D01*
X33128501Y9908134D01*
X33128500Y9908121D01*
X33128500Y9843024D01*
X33128393Y9839360D01*
X33124607Y9774368D01*
X33124608Y9774364D01*
X33126586Y9763147D01*
X33128500Y9741267D01*
X33128500Y8817233D01*
X33108498Y8749112D01*
X33091595Y8728138D01*
X29012862Y4649405D01*
X28950550Y4615379D01*
X28923767Y4612500D01*
X27113376Y4612500D01*
X27039203Y4604704D01*
X26974044Y4597855D01*
X26974042Y4597855D01*
X26974038Y4597854D01*
X26796220Y4540078D01*
X26796208Y4540072D01*
X26634290Y4446590D01*
X26634284Y4446586D01*
X26495332Y4321473D01*
X26385429Y4170205D01*
X26309375Y3999386D01*
X26302122Y3965260D01*
X26270500Y3816490D01*
X26270500Y3629510D01*
X26309375Y3446615D01*
X26385427Y3275800D01*
X26385428Y3275798D01*
X26386607Y3273151D01*
X26397500Y3221902D01*
X26397500Y2543771D01*
X26395809Y2527227D01*
X26395871Y2527221D01*
X26395231Y2519910D01*
X26397500Y2441925D01*
X26397500Y2408586D01*
X26398471Y2400275D01*
X26398870Y2394797D01*
X26400415Y2341739D01*
X26400416Y2341734D01*
X26406727Y2318179D01*
X26410168Y2300200D01*
X26413001Y2275962D01*
X26413003Y2275955D01*
X26431160Y2226066D01*
X26432813Y2220823D01*
X26446549Y2169560D01*
X26458125Y2148092D01*
X26465621Y2131388D01*
X26473965Y2108462D01*
X26473966Y2108461D01*
X26503135Y2064111D01*
X26505944Y2059405D01*
X26531144Y2012670D01*
X26531145Y2012668D01*
X26531148Y2012664D01*
X26547366Y1994440D01*
X26558512Y1979915D01*
X26571913Y1959539D01*
X26610519Y1923117D01*
X26614349Y1919174D01*
X26649637Y1879521D01*
X26649638Y1879520D01*
X26649642Y1879516D01*
X26669629Y1865521D01*
X26683819Y1853961D01*
X26701567Y1837217D01*
X26747540Y1810676D01*
X26752171Y1807725D01*
X26795653Y1777277D01*
X26795657Y1777276D01*
X26795658Y1777275D01*
X26818328Y1768268D01*
X26834805Y1760291D01*
X26855925Y1748098D01*
X26855931Y1748095D01*
X26855933Y1748094D01*
X26887702Y1738583D01*
X26906788Y1732869D01*
X26911972Y1731067D01*
X26945349Y1717808D01*
X26956632Y1713325D01*
X26961307Y1711468D01*
X26985444Y1707933D01*
X27003313Y1703972D01*
X27026692Y1696972D01*
X27079694Y1693886D01*
X27085143Y1693329D01*
X27137672Y1685634D01*
X27161979Y1687762D01*
X27180283Y1688027D01*
X27182828Y1687879D01*
X27204628Y1686608D01*
X27204630Y1686609D01*
X27204637Y1686608D01*
X27256912Y1695826D01*
X27262353Y1696543D01*
X27315240Y1701169D01*
X27338410Y1708847D01*
X27356140Y1713323D01*
X27380176Y1717560D01*
X27428919Y1738587D01*
X27434033Y1740534D01*
X27484440Y1757235D01*
X27505200Y1770041D01*
X27521446Y1778498D01*
X27531571Y1782866D01*
X27543845Y1788160D01*
X27586422Y1819858D01*
X27590969Y1822944D01*
X27614111Y1837219D01*
X27636149Y1850812D01*
X27653393Y1868057D01*
X27667246Y1880029D01*
X27686822Y1894602D01*
X27720958Y1935285D01*
X27724650Y1939314D01*
X28581934Y2796596D01*
X28644246Y2830621D01*
X28671029Y2833500D01*
X29264475Y2833500D01*
X29284185Y2831950D01*
X29297590Y2829826D01*
X29366071Y2833415D01*
X29369344Y2833500D01*
X29391012Y2833500D01*
X29391020Y2833500D01*
X29412627Y2835772D01*
X29415809Y2836022D01*
X29484315Y2839611D01*
X29497420Y2843124D01*
X29516871Y2846728D01*
X29530356Y2848145D01*
X29530358Y2848146D01*
X29530360Y2848146D01*
X29595542Y2869326D01*
X29598691Y2870260D01*
X29664924Y2888006D01*
X29677013Y2894167D01*
X29695277Y2901732D01*
X29708185Y2905925D01*
X29708188Y2905927D01*
X29708189Y2905927D01*
X29730614Y2918875D01*
X29767585Y2940221D01*
X29770438Y2941769D01*
X29831525Y2972893D01*
X29842071Y2981435D01*
X29858359Y2992629D01*
X29870115Y2999415D01*
X29870118Y2999419D01*
X29870120Y2999419D01*
X29921053Y3045280D01*
X29923562Y3047423D01*
X29926623Y3049903D01*
X29940406Y3061063D01*
X29955745Y3076403D01*
X29958101Y3078640D01*
X30009069Y3124530D01*
X30017054Y3135522D01*
X30029883Y3150542D01*
X31407061Y4527720D01*
X31469371Y4561744D01*
X31540186Y4556679D01*
X31597022Y4514132D01*
X31621833Y4447612D01*
X31618554Y4408720D01*
X31555233Y4149532D01*
X31555228Y4149509D01*
X31505706Y3779696D01*
X31505705Y3779687D01*
X31495772Y3406690D01*
X31495772Y3406684D01*
X31525542Y3034741D01*
X31594683Y2668057D01*
X31594686Y2668048D01*
X31702399Y2310820D01*
X31702403Y2310811D01*
X31847484Y1967044D01*
X31847492Y1967027D01*
X31946571Y1788160D01*
X32028293Y1640626D01*
X32137536Y1485101D01*
X32242772Y1335282D01*
X32242777Y1335276D01*
X32488482Y1054474D01*
X32488484Y1054472D01*
X32762655Y801371D01*
X33062171Y578849D01*
X33062172Y578847D01*
X33062176Y578845D01*
X33062177Y578844D01*
X33128345Y539855D01*
X33176879Y488040D01*
X33189696Y418210D01*
X33162726Y352536D01*
X33104530Y311869D01*
X33064378Y305300D01*
X16934353Y305300D01*
X16866232Y325302D01*
X16819739Y378958D01*
X16809635Y449232D01*
X16839129Y513812D01*
X16864698Y536297D01*
X17090547Y686119D01*
X17377801Y924272D01*
X17638114Y1191609D01*
X17868535Y1485101D01*
X18066455Y1801422D01*
X18229631Y2136989D01*
X18356213Y2487999D01*
X18444769Y2850476D01*
X18494294Y3220312D01*
X18500436Y3450972D01*
X18504227Y3593311D01*
X18504227Y3593317D01*
X18474457Y3965260D01*
X18466408Y4007945D01*
X18405317Y4331941D01*
X18351022Y4512008D01*
X18297600Y4689181D01*
X18297596Y4689190D01*
X18152515Y5032957D01*
X18152511Y5032967D01*
X17971707Y5359374D01*
X17757232Y5664713D01*
X17757227Y5664719D01*
X17757222Y5664725D01*
X17511517Y5945527D01*
X17511515Y5945529D01*
X17237344Y6198630D01*
X16937828Y6421152D01*
X16937827Y6421154D01*
X16626785Y6604433D01*
X16616345Y6610585D01*
X16276554Y6764770D01*
X15922298Y6881964D01*
X15922297Y6881965D01*
X15922288Y6881967D01*
X15557585Y6960841D01*
X15186581Y7000501D01*
X15186569Y7000501D01*
X14906787Y7000501D01*
X14906781Y7000501D01*
X14627403Y6985612D01*
X14627385Y6985610D01*
X14259000Y6926257D01*
X13899012Y6828084D01*
X13899009Y6828083D01*
X13551514Y6692209D01*
X13551507Y6692207D01*
X13551497Y6692202D01*
X13551488Y6692198D01*
X13551485Y6692196D01*
X13220399Y6520155D01*
X13220396Y6520153D01*
X12909452Y6313881D01*
X12909445Y6313876D01*
X12622202Y6075732D01*
X12361883Y5808388D01*
X12131464Y5514900D01*
X11933543Y5198575D01*
X11770370Y4863014D01*
X11770369Y4863013D01*
X11643788Y4512008D01*
X11643786Y4512002D01*
X11555232Y4149532D01*
X11555228Y4149509D01*
X11505706Y3779696D01*
X11505705Y3779687D01*
X11495772Y3406690D01*
X11495772Y3406684D01*
X11525542Y3034741D01*
X11594683Y2668057D01*
X11594686Y2668048D01*
X11702399Y2310820D01*
X11702403Y2310811D01*
X11847484Y1967044D01*
X11847492Y1967027D01*
X11946571Y1788160D01*
X12028293Y1640626D01*
X12137536Y1485101D01*
X12242772Y1335282D01*
X12242777Y1335276D01*
X12488482Y1054474D01*
X12488484Y1054472D01*
X12762655Y801371D01*
X13062171Y578849D01*
X13062172Y578847D01*
X13062176Y578845D01*
X13062177Y578844D01*
X13128345Y539855D01*
X13176879Y488040D01*
X13189696Y418210D01*
X13162726Y352536D01*
X13104530Y311869D01*
X13064378Y305300D01*
X431300Y305300D01*
X363179Y325302D01*
X316686Y378958D01*
X305300Y431300D01*
X305300Y22568700D01*
X325302Y22636821D01*
X378958Y22683314D01*
X431300Y22694700D01*
X13065647Y22694700D01*
X13133768Y22674698D01*
G37*
%TD.AperFunction*%
%TA.AperFunction,Conductor*%
G36*
X49636821Y22674698D02*
G01*
X49683314Y22621042D01*
X49694700Y22568700D01*
X49694700Y431300D01*
X49674698Y363179D01*
X49621042Y316686D01*
X49568700Y305300D01*
X36934353Y305300D01*
X36866232Y325302D01*
X36819739Y378958D01*
X36809635Y449232D01*
X36839129Y513812D01*
X36864698Y536297D01*
X37090547Y686119D01*
X37377801Y924272D01*
X37638114Y1191609D01*
X37868535Y1485101D01*
X38066455Y1801422D01*
X38229631Y2136989D01*
X38356213Y2487999D01*
X38444769Y2850476D01*
X38494294Y3220312D01*
X38500436Y3450972D01*
X38504227Y3593311D01*
X38504227Y3593317D01*
X38474457Y3965260D01*
X38466408Y4007945D01*
X38405317Y4331941D01*
X38388050Y4389207D01*
X38387534Y4460201D01*
X38425483Y4520205D01*
X38489848Y4550166D01*
X38560194Y4540573D01*
X38597780Y4514677D01*
X40215909Y2896548D01*
X40228748Y2881517D01*
X40236732Y2870528D01*
X40258985Y2850492D01*
X40287697Y2824640D01*
X40290052Y2822405D01*
X40305394Y2807063D01*
X40322238Y2793423D01*
X40322243Y2793419D01*
X40324727Y2791298D01*
X40375685Y2745415D01*
X40385251Y2739893D01*
X40387434Y2738632D01*
X40403733Y2727430D01*
X40414272Y2718895D01*
X40414277Y2718892D01*
X40475339Y2687780D01*
X40478238Y2686206D01*
X40509670Y2668059D01*
X40537615Y2651925D01*
X40550526Y2647730D01*
X40568779Y2640170D01*
X40580876Y2634006D01*
X40647107Y2616260D01*
X40650228Y2615336D01*
X40715444Y2594145D01*
X40728930Y2592728D01*
X40748369Y2589126D01*
X40761485Y2585611D01*
X40761491Y2585611D01*
X40761494Y2585610D01*
X40800573Y2583564D01*
X40829954Y2582024D01*
X40833215Y2581768D01*
X40854780Y2579500D01*
X40876456Y2579500D01*
X40879728Y2579415D01*
X40939009Y2576309D01*
X40948208Y2575826D01*
X40948208Y2575827D01*
X40948210Y2575826D01*
X40961614Y2577950D01*
X40981325Y2579500D01*
X44860075Y2579500D01*
X44879785Y2577950D01*
X44893190Y2575826D01*
X44961671Y2579415D01*
X44964944Y2579500D01*
X44986612Y2579500D01*
X44986620Y2579500D01*
X45008227Y2581772D01*
X45011409Y2582022D01*
X45079915Y2585611D01*
X45093020Y2589124D01*
X45112471Y2592728D01*
X45125956Y2594145D01*
X45125958Y2594146D01*
X45125960Y2594146D01*
X45191142Y2615326D01*
X45194291Y2616260D01*
X45260524Y2634006D01*
X45272613Y2640167D01*
X45290877Y2647732D01*
X45303785Y2651925D01*
X45303788Y2651927D01*
X45303789Y2651927D01*
X45312850Y2657160D01*
X45363185Y2686221D01*
X45366038Y2687769D01*
X45366060Y2687780D01*
X45427125Y2718893D01*
X45437671Y2727435D01*
X45453959Y2738629D01*
X45465715Y2745415D01*
X45465718Y2745419D01*
X45465720Y2745419D01*
X45516653Y2791280D01*
X45519162Y2793423D01*
X45523080Y2796596D01*
X45536006Y2807063D01*
X45551345Y2822403D01*
X45553701Y2824640D01*
X45604669Y2870530D01*
X45612654Y2881522D01*
X45625483Y2896542D01*
X46922537Y4193595D01*
X46984849Y4227621D01*
X47011632Y4230500D01*
X47651415Y4230500D01*
X47750884Y4242127D01*
X47784042Y4246002D01*
X47951539Y4306966D01*
X47973596Y4321473D01*
X48100457Y4404911D01*
X48100458Y4404913D01*
X48100462Y4404915D01*
X48222783Y4534567D01*
X48311906Y4688933D01*
X48363028Y4859692D01*
X48373392Y5037637D01*
X48342440Y5213176D01*
X48342438Y5213181D01*
X48342438Y5213182D01*
X48271843Y5376840D01*
X48271842Y5376841D01*
X48271841Y5376842D01*
X48271840Y5376845D01*
X48165398Y5519822D01*
X48165395Y5519825D01*
X48165394Y5519826D01*
X48098907Y5575614D01*
X48028853Y5634396D01*
X48028850Y5634398D01*
X48028848Y5634399D01*
X47869572Y5714392D01*
X47869566Y5714394D01*
X47696123Y5755500D01*
X47696121Y5755500D01*
X46960368Y5755500D01*
X46892247Y5775502D01*
X46891744Y5775827D01*
X46870047Y5789917D01*
X46695489Y5856924D01*
X46510804Y5886175D01*
X46479742Y5884547D01*
X46410668Y5900957D01*
X46409050Y5901897D01*
X46093215Y6088526D01*
X46068220Y6107908D01*
X45474799Y6701329D01*
X45457893Y6722309D01*
X45455251Y6726420D01*
X45443735Y6736399D01*
X45415418Y6760935D01*
X45412140Y6763988D01*
X45400848Y6775280D01*
X45400847Y6775281D01*
X45400845Y6775283D01*
X45388067Y6784848D01*
X45384564Y6787671D01*
X45344743Y6822176D01*
X45344740Y6822178D01*
X45340286Y6824212D01*
X45317128Y6837952D01*
X45313206Y6840888D01*
X45313202Y6840890D01*
X45263819Y6859310D01*
X45259665Y6861031D01*
X45211738Y6882918D01*
X45211724Y6882922D01*
X45206876Y6883619D01*
X45180801Y6890274D01*
X45176204Y6891989D01*
X45176199Y6891990D01*
X45123627Y6895751D01*
X45119160Y6896231D01*
X45103370Y6898500D01*
X45103368Y6898500D01*
X45087413Y6898500D01*
X45082917Y6898661D01*
X45030352Y6902421D01*
X45030351Y6902420D01*
X45025566Y6901379D01*
X44998784Y6898500D01*
X44723209Y6898500D01*
X44655088Y6918502D01*
X44608595Y6972158D01*
X44598491Y7042432D01*
X44627985Y7107012D01*
X44636559Y7115975D01*
X44643202Y7122269D01*
X44655108Y7133546D01*
X44759413Y7287385D01*
X44828209Y7460049D01*
X44858278Y7643465D01*
X44848216Y7829058D01*
X44798492Y8008148D01*
X44711431Y8172362D01*
X44591105Y8314021D01*
X44443139Y8426502D01*
X44443138Y8426503D01*
X44443135Y8426505D01*
X44274451Y8504546D01*
X44092939Y8544499D01*
X44092936Y8544500D01*
X44092933Y8544500D01*
X43953668Y8544500D01*
X43953660Y8544500D01*
X43815225Y8529444D01*
X43815224Y8529444D01*
X43639091Y8470098D01*
X43639090Y8470097D01*
X43479827Y8374272D01*
X43479825Y8374270D01*
X43344894Y8246457D01*
X43240587Y8092617D01*
X43171790Y7919951D01*
X43149611Y7784662D01*
X43118852Y7720675D01*
X43058381Y7683475D01*
X42987398Y7684874D01*
X42936176Y7715952D01*
X38362799Y12289329D01*
X38345893Y12310309D01*
X38343251Y12314420D01*
X38306395Y12346356D01*
X38303418Y12348935D01*
X38300140Y12351988D01*
X38288848Y12363280D01*
X38288847Y12363281D01*
X38288845Y12363283D01*
X38276067Y12372848D01*
X38272564Y12375671D01*
X38232743Y12410176D01*
X38232740Y12410178D01*
X38228286Y12412212D01*
X38205128Y12425952D01*
X38201206Y12428888D01*
X38201202Y12428890D01*
X38151819Y12447310D01*
X38147665Y12449031D01*
X38099738Y12470918D01*
X38099724Y12470922D01*
X38094876Y12471619D01*
X38068801Y12478274D01*
X38064204Y12479989D01*
X38064199Y12479990D01*
X38011627Y12483751D01*
X38007160Y12484231D01*
X37991370Y12486500D01*
X37991368Y12486500D01*
X37975413Y12486500D01*
X37970917Y12486661D01*
X37918352Y12490421D01*
X37918351Y12490420D01*
X37913566Y12489379D01*
X37886784Y12486500D01*
X36947818Y12486500D01*
X36879697Y12506502D01*
X36858723Y12523405D01*
X36329795Y13052333D01*
X36312587Y13073784D01*
X36295263Y13101009D01*
X35931189Y13673149D01*
X35919682Y13696109D01*
X35916385Y13704802D01*
X35819200Y13845600D01*
X35819197Y13845603D01*
X35691146Y13959046D01*
X35691137Y13959053D01*
X35539658Y14038555D01*
X35539656Y14038556D01*
X35539654Y14038557D01*
X35539652Y14038558D01*
X35539651Y14038558D01*
X35373543Y14079500D01*
X35373542Y14079500D01*
X35330909Y14079500D01*
X35297773Y14083935D01*
X35295228Y14084629D01*
X34976992Y14106867D01*
X34933431Y14117947D01*
X34924734Y14121919D01*
X34924731Y14121920D01*
X34919877Y14122618D01*
X34893801Y14129274D01*
X34889204Y14130989D01*
X34889199Y14130990D01*
X34836627Y14134751D01*
X34832160Y14135231D01*
X34816370Y14137500D01*
X34816368Y14137500D01*
X34800413Y14137500D01*
X34795917Y14137661D01*
X34743352Y14141421D01*
X34743351Y14141420D01*
X34738566Y14140379D01*
X34711784Y14137500D01*
X34540818Y14137500D01*
X34536446Y14137653D01*
X34483946Y14141321D01*
X34478486Y14141506D01*
X34469706Y14141654D01*
X34469699Y14141654D01*
X34460991Y14139921D01*
X34436411Y14137500D01*
X32248818Y14137500D01*
X32180697Y14157502D01*
X32159723Y14174405D01*
X31134405Y15199723D01*
X31100379Y15262035D01*
X31097500Y15288818D01*
X31097500Y16213788D01*
X31117502Y16281909D01*
X31171158Y16328402D01*
X31241432Y16338506D01*
X31306012Y16309012D01*
X31312593Y16302885D01*
X32069261Y15546216D01*
X32822019Y14793458D01*
X32838405Y14773282D01*
X32844440Y14764044D01*
X32844441Y14764043D01*
X32844443Y14764041D01*
X32872894Y14741897D01*
X32878753Y14736724D01*
X32881591Y14733886D01*
X32887379Y14729754D01*
X32900900Y14720099D01*
X32944736Y14685981D01*
X32944915Y14685842D01*
X32944916Y14685842D01*
X32951941Y14682040D01*
X32959134Y14678523D01*
X33012586Y14662611D01*
X33065334Y14644501D01*
X33065338Y14644501D01*
X33065339Y14644500D01*
X33065340Y14644500D01*
X33073247Y14643181D01*
X33081157Y14642195D01*
X33081158Y14642196D01*
X33081159Y14642195D01*
X33136884Y14644500D01*
X40792788Y14644500D01*
X40860909Y14624498D01*
X40881883Y14607595D01*
X42521699Y12967779D01*
X42547307Y12930830D01*
X42805541Y12362808D01*
X42805547Y12362798D01*
X42807962Y12359372D01*
X42822782Y12331468D01*
X42832208Y12306616D01*
X42832211Y12306610D01*
X42832213Y12306605D01*
X42922502Y12175799D01*
X43041471Y12070401D01*
X43041472Y12070401D01*
X43041474Y12070399D01*
X43101727Y12038776D01*
X43182207Y11996537D01*
X43336529Y11958500D01*
X43336530Y11958500D01*
X43495470Y11958500D01*
X43495471Y11958500D01*
X43649793Y11996537D01*
X43790529Y12070401D01*
X43909498Y12175799D01*
X43947304Y12230572D01*
X44002462Y12275271D01*
X44073031Y12283054D01*
X44136605Y12251449D01*
X44154693Y12230574D01*
X44192502Y12175799D01*
X44311471Y12070401D01*
X44311472Y12070401D01*
X44311474Y12070399D01*
X44371727Y12038776D01*
X44452207Y11996537D01*
X44606529Y11958500D01*
X44606530Y11958500D01*
X44765470Y11958500D01*
X44765471Y11958500D01*
X44919793Y11996537D01*
X45060529Y12070401D01*
X45179498Y12175799D01*
X45269787Y12306605D01*
X45326149Y12455218D01*
X45326149Y12455219D01*
X45326150Y12455221D01*
X45345307Y12612997D01*
X45345307Y12613004D01*
X45326150Y12770780D01*
X45288624Y12869726D01*
X45269787Y12919395D01*
X45179498Y13050201D01*
X45060529Y13155599D01*
X45027242Y13173070D01*
X44953536Y13211755D01*
X44946048Y13216378D01*
X44936199Y13223454D01*
X44936191Y13223458D01*
X44368172Y13481691D01*
X44331223Y13507299D01*
X43514634Y14323888D01*
X43480608Y14386200D01*
X43485673Y14457015D01*
X43528220Y14513851D01*
X43594740Y14538662D01*
X43656635Y14527337D01*
X43725548Y14495455D01*
X43907067Y14455500D01*
X43907070Y14455500D01*
X44046324Y14455500D01*
X44046332Y14455500D01*
X44184775Y14470557D01*
X44360911Y14529904D01*
X44520171Y14625727D01*
X44655108Y14753546D01*
X44759413Y14907385D01*
X44828209Y15080049D01*
X44858278Y15263465D01*
X44857354Y15280500D01*
X44848216Y15449056D01*
X44848214Y15449067D01*
X44798494Y15628141D01*
X44798493Y15628142D01*
X44798492Y15628148D01*
X44711431Y15792362D01*
X44591105Y15934021D01*
X44443139Y16046502D01*
X44443138Y16046503D01*
X44443135Y16046505D01*
X44274451Y16124546D01*
X44092939Y16164499D01*
X44092936Y16164500D01*
X44092933Y16164500D01*
X43953668Y16164500D01*
X43953660Y16164500D01*
X43815225Y16149444D01*
X43815224Y16149444D01*
X43639091Y16090098D01*
X43639090Y16090097D01*
X43479827Y15994272D01*
X43479825Y15994270D01*
X43344894Y15866457D01*
X43240587Y15712617D01*
X43171790Y15539951D01*
X43141722Y15356536D01*
X43141722Y15356535D01*
X43151783Y15170945D01*
X43151785Y15170934D01*
X43201505Y14991860D01*
X43201508Y14991852D01*
X43208623Y14978432D01*
X43222860Y14908877D01*
X43197232Y14842667D01*
X43139877Y14800823D01*
X43069005Y14796630D01*
X43008206Y14830317D01*
X41817980Y16020543D01*
X41801591Y16040724D01*
X41801586Y16040731D01*
X41795560Y16049956D01*
X41767103Y16072105D01*
X41761245Y16077278D01*
X41758413Y16080110D01*
X41758402Y16080120D01*
X41739099Y16093901D01*
X41695086Y16128158D01*
X41688064Y16131958D01*
X41680872Y16135474D01*
X41680870Y16135475D01*
X41671657Y16138218D01*
X41627412Y16151391D01*
X41574664Y16169499D01*
X41574663Y16169500D01*
X41574661Y16169500D01*
X41574658Y16169500D01*
X41566748Y16170821D01*
X41558842Y16171806D01*
X41503116Y16169500D01*
X36698099Y16169500D01*
X36629978Y16189502D01*
X36583485Y16243158D01*
X36573381Y16313432D01*
X36602875Y16378012D01*
X36640001Y16407306D01*
X36661126Y16418283D01*
X36779607Y16479849D01*
X37090547Y16686119D01*
X37377801Y16924272D01*
X37638114Y17191609D01*
X37868535Y17485101D01*
X38066455Y17801422D01*
X38229631Y18136989D01*
X38356213Y18487999D01*
X38444769Y18850476D01*
X38494294Y19220312D01*
X38497800Y19351956D01*
X38504227Y19593311D01*
X38504227Y19593317D01*
X38474457Y19965260D01*
X38466062Y20009782D01*
X38405317Y20331941D01*
X38364152Y20468463D01*
X38297600Y20689181D01*
X38297596Y20689190D01*
X38152515Y21032957D01*
X38152511Y21032967D01*
X37971707Y21359374D01*
X37757232Y21664713D01*
X37757227Y21664719D01*
X37757222Y21664725D01*
X37511517Y21945527D01*
X37511515Y21945529D01*
X37237344Y22198630D01*
X36937828Y22421152D01*
X36937827Y22421154D01*
X36910622Y22437184D01*
X36871654Y22460146D01*
X36823121Y22511960D01*
X36810304Y22581790D01*
X36837274Y22647464D01*
X36895470Y22688131D01*
X36935622Y22694700D01*
X49568700Y22694700D01*
X49636821Y22674698D01*
G37*
%TD.AperFunction*%
%TA.AperFunction,Conductor*%
G36*
X7586909Y16402498D02*
G01*
X7607883Y16385595D01*
X8878882Y15114595D01*
X8912908Y15052283D01*
X8907843Y14981467D01*
X8865296Y14924632D01*
X8798776Y14899821D01*
X8789787Y14899500D01*
X7781635Y14899500D01*
X7755776Y14902182D01*
X7744982Y14904446D01*
X7722788Y14901679D01*
X7709189Y14899984D01*
X7701401Y14899500D01*
X7697389Y14899500D01*
X7679842Y14896572D01*
X7673992Y14895596D01*
X7618642Y14888697D01*
X7610983Y14886417D01*
X7603415Y14883819D01*
X7554358Y14857271D01*
X7504256Y14832778D01*
X7497743Y14828128D01*
X7491437Y14823220D01*
X7453657Y14782180D01*
X6764559Y14093084D01*
X6702247Y14059059D01*
X6631431Y14064124D01*
X6627248Y14065770D01*
X6200226Y14242639D01*
X6144944Y14287186D01*
X6122522Y14354549D01*
X6140079Y14423341D01*
X6192040Y14471720D01*
X6208210Y14478453D01*
X6360908Y14529903D01*
X6360907Y14529903D01*
X6360911Y14529904D01*
X6520171Y14625727D01*
X6655108Y14753546D01*
X6759413Y14907385D01*
X6828209Y15080049D01*
X6858278Y15263465D01*
X6857354Y15280500D01*
X6848216Y15449056D01*
X6848214Y15449067D01*
X6798494Y15628141D01*
X6798493Y15628142D01*
X6798492Y15628148D01*
X6711431Y15792362D01*
X6591105Y15934021D01*
X6443139Y16046502D01*
X6443138Y16046503D01*
X6443135Y16046505D01*
X6346089Y16091403D01*
X6292663Y16138159D01*
X6272997Y16206378D01*
X6293334Y16274399D01*
X6347218Y16320627D01*
X6366660Y16327537D01*
X6708540Y16418283D01*
X6740865Y16422500D01*
X7518788Y16422500D01*
X7586909Y16402498D01*
G37*
%TD.AperFunction*%
%TA.AperFunction,Conductor*%
G36*
X33133768Y22674698D02*
G01*
X33180261Y22621042D01*
X33190365Y22550768D01*
X33160871Y22486188D01*
X33135301Y22463704D01*
X33129936Y22460144D01*
X32909452Y22313881D01*
X32909445Y22313876D01*
X32622202Y22075732D01*
X32361883Y21808388D01*
X32131464Y21514900D01*
X31933543Y21198575D01*
X31770370Y20863014D01*
X31770369Y20863013D01*
X31643788Y20512008D01*
X31643786Y20512002D01*
X31555232Y20149532D01*
X31555228Y20149509D01*
X31505706Y19779696D01*
X31505705Y19779687D01*
X31495772Y19406690D01*
X31495772Y19406684D01*
X31525542Y19034741D01*
X31594683Y18668057D01*
X31594686Y18668047D01*
X31633543Y18539179D01*
X31634058Y18468184D01*
X31596109Y18408181D01*
X31531744Y18378220D01*
X31461399Y18387814D01*
X31423813Y18413709D01*
X30640022Y19197500D01*
X29625980Y20211543D01*
X29609591Y20231724D01*
X29603560Y20240956D01*
X29575103Y20263105D01*
X29569245Y20268278D01*
X29566413Y20271110D01*
X29566402Y20271120D01*
X29547099Y20284901D01*
X29503086Y20319158D01*
X29496064Y20322958D01*
X29488872Y20326474D01*
X29488870Y20326475D01*
X29488867Y20326476D01*
X29435412Y20342391D01*
X29382664Y20360499D01*
X29382663Y20360500D01*
X29382661Y20360500D01*
X29382658Y20360500D01*
X29374748Y20361821D01*
X29366842Y20362806D01*
X29311116Y20360500D01*
X21774278Y20360500D01*
X21750944Y20362680D01*
X21111395Y20483204D01*
X21107985Y20483945D01*
X21016475Y20506500D01*
X21016471Y20506500D01*
X20991416Y20506500D01*
X20985511Y20506777D01*
X20981136Y20507189D01*
X20981135Y20507189D01*
X20973039Y20507951D01*
X20971038Y20508048D01*
X20949339Y20509096D01*
X20949336Y20509096D01*
X20948143Y20508861D01*
X20923868Y20506500D01*
X20857527Y20506500D01*
X20703209Y20468464D01*
X20703202Y20468461D01*
X20562474Y20394602D01*
X20562469Y20394598D01*
X20443501Y20289200D01*
X20353215Y20158399D01*
X20353212Y20158393D01*
X20296849Y20009780D01*
X20277693Y19852004D01*
X20277693Y19851997D01*
X20296849Y19694221D01*
X20335118Y19593317D01*
X20353213Y19545605D01*
X20443502Y19414799D01*
X20562471Y19309401D01*
X20562472Y19309401D01*
X20562474Y19309399D01*
X20637200Y19270180D01*
X20703207Y19235537D01*
X20857529Y19197500D01*
X20857530Y19197500D01*
X21016470Y19197500D01*
X21016471Y19197500D01*
X21170793Y19235537D01*
X21211223Y19256758D01*
X21227746Y19263971D01*
X21234263Y19266275D01*
X21269820Y19287414D01*
X21272691Y19289019D01*
X21311529Y19309401D01*
X21312223Y19310017D01*
X21331393Y19324016D01*
X21761693Y19579809D01*
X21826077Y19597500D01*
X25077953Y19597500D01*
X25146074Y19577498D01*
X25192567Y19523842D01*
X25202671Y19453568D01*
X25181650Y19399925D01*
X25179214Y19396397D01*
X25179212Y19396393D01*
X25122849Y19247780D01*
X25103693Y19090004D01*
X25103693Y19089997D01*
X25122849Y18932221D01*
X25160376Y18833274D01*
X25179213Y18783605D01*
X25179214Y18783604D01*
X25181650Y18780075D01*
X25182636Y18777085D01*
X25182755Y18776858D01*
X25182717Y18776839D01*
X25203885Y18712650D01*
X25186137Y18643908D01*
X25134042Y18595673D01*
X25077953Y18582500D01*
X23783215Y18582500D01*
X23751836Y18586470D01*
X22980788Y18784740D01*
X22980784Y18784741D01*
X22979297Y18784876D01*
X22976547Y18785474D01*
X22975803Y18785602D01*
X22975808Y18785634D01*
X22949150Y18791424D01*
X22947339Y18792058D01*
X22883954Y18814237D01*
X22715000Y18833274D01*
X22546046Y18814237D01*
X22546043Y18814237D01*
X22546043Y18814236D01*
X22385562Y18758082D01*
X22385560Y18758081D01*
X22241600Y18667625D01*
X22241597Y18667623D01*
X22121377Y18547403D01*
X22121375Y18547400D01*
X22030919Y18403440D01*
X22030918Y18403438D01*
X21998510Y18310820D01*
X21974763Y18242954D01*
X21955726Y18074000D01*
X21974763Y17905046D01*
X22011021Y17801426D01*
X22030918Y17744563D01*
X22030919Y17744561D01*
X22121375Y17600601D01*
X22121377Y17600598D01*
X22241597Y17480378D01*
X22241600Y17480376D01*
X22385563Y17389918D01*
X22546046Y17333763D01*
X22715000Y17314726D01*
X22883954Y17333763D01*
X22949066Y17356548D01*
X22974771Y17361647D01*
X22974668Y17362314D01*
X22980787Y17363261D01*
X23751835Y17561530D01*
X23783214Y17565500D01*
X26188786Y17565500D01*
X26256907Y17545498D01*
X26303400Y17491842D01*
X26313504Y17421568D01*
X26284010Y17356988D01*
X26277882Y17350405D01*
X25514880Y16587404D01*
X25452570Y16553380D01*
X25425787Y16550500D01*
X19592634Y16550500D01*
X19566775Y16553182D01*
X19555981Y16555446D01*
X19533787Y16552679D01*
X19520188Y16550984D01*
X19512400Y16550500D01*
X19508385Y16550500D01*
X19489674Y16547378D01*
X19484996Y16546597D01*
X19479974Y16545971D01*
X19429637Y16539697D01*
X19421985Y16537419D01*
X19414415Y16534820D01*
X19365362Y16508273D01*
X19315255Y16483777D01*
X19308732Y16479120D01*
X19302437Y16474220D01*
X19283623Y16453782D01*
X19264659Y16433182D01*
X19037880Y16206404D01*
X18975571Y16172380D01*
X18948787Y16169500D01*
X16698099Y16169500D01*
X16629978Y16189502D01*
X16583485Y16243158D01*
X16573381Y16313432D01*
X16602875Y16378012D01*
X16640001Y16407306D01*
X16661126Y16418283D01*
X16779607Y16479849D01*
X17090547Y16686119D01*
X17377801Y16924272D01*
X17638114Y17191609D01*
X17868535Y17485101D01*
X18066455Y17801422D01*
X18229631Y18136989D01*
X18356213Y18487999D01*
X18444769Y18850476D01*
X18494294Y19220312D01*
X18497800Y19351956D01*
X18504227Y19593311D01*
X18504227Y19593317D01*
X18474457Y19965260D01*
X18466062Y20009782D01*
X18405317Y20331941D01*
X18364152Y20468463D01*
X18297600Y20689181D01*
X18297596Y20689190D01*
X18152515Y21032957D01*
X18152511Y21032967D01*
X17971707Y21359374D01*
X17757232Y21664713D01*
X17757227Y21664719D01*
X17757222Y21664725D01*
X17511517Y21945527D01*
X17511515Y21945529D01*
X17237344Y22198630D01*
X16937828Y22421152D01*
X16937827Y22421154D01*
X16910622Y22437184D01*
X16871654Y22460146D01*
X16823121Y22511960D01*
X16810304Y22581790D01*
X16837274Y22647464D01*
X16895470Y22688131D01*
X16935622Y22694700D01*
X33065647Y22694700D01*
X33133768Y22674698D01*
G37*
%TD.AperFunction*%
%TD*%
%TA.AperFunction,Conductor*%
%TO.N,+5V*%
G36*
X35448067Y9986811D02*
G01*
X35454307Y9980652D01*
X35551200Y9756421D01*
X35552075Y9753190D01*
X35562476Y9667532D01*
X35616580Y9524873D01*
X35616582Y9524870D01*
X35703256Y9399300D01*
X35704970Y9397782D01*
X35707951Y9393666D01*
X35727193Y9349135D01*
X35727329Y9340181D01*
X35724726Y9336221D01*
X35201516Y8813011D01*
X35193243Y8809584D01*
X35184970Y8813011D01*
X35183576Y8814693D01*
X34721250Y9492811D01*
X34719421Y9501577D01*
X34722623Y9507654D01*
X35031636Y9818043D01*
X35035465Y9820602D01*
X35439114Y9986830D01*
X35448067Y9986811D01*
G37*
%TD.AperFunction*%
%TD*%
%TA.AperFunction,Conductor*%
%TO.N,+5V*%
G36*
X45944308Y5875096D02*
G01*
X46309600Y5659243D01*
X46646614Y5460098D01*
X46651993Y5452939D01*
X46651480Y5445568D01*
X46466563Y4996798D01*
X46460242Y4990454D01*
X46460202Y4990437D01*
X46011432Y4805520D01*
X46002478Y4805537D01*
X45996903Y4810386D01*
X45621568Y5445568D01*
X45581904Y5512692D01*
X45580646Y5521558D01*
X45583702Y5526915D01*
X45930084Y5873297D01*
X45938356Y5876723D01*
X45944308Y5875096D01*
G37*
%TD.AperFunction*%
%TD*%
%TA.AperFunction,Conductor*%
%TO.N,+5V*%
G36*
X35703637Y13543457D02*
G01*
X35709008Y13538938D01*
X36098962Y12926128D01*
X36100512Y12917309D01*
X36097364Y12911574D01*
X35751426Y12565636D01*
X35743153Y12562209D01*
X35736872Y12564038D01*
X35124062Y12953992D01*
X35118922Y12961325D01*
X35119523Y12968316D01*
X35285437Y13371202D01*
X35291754Y13377545D01*
X35694683Y13543476D01*
X35703637Y13543457D01*
G37*
%TD.AperFunction*%
%TD*%
%TA.AperFunction,Conductor*%
%TO.N,+5V*%
G36*
X35471398Y9819029D02*
G01*
X35479661Y9815584D01*
X35483070Y9807303D01*
X35483036Y9806435D01*
X35415828Y8929806D01*
X35411779Y8921819D01*
X35404162Y8919000D01*
X34663838Y8919000D01*
X34655565Y8922427D01*
X34652172Y8929806D01*
X34584963Y9806435D01*
X34587748Y9814946D01*
X34595735Y9818995D01*
X34596576Y9819028D01*
X35034000Y9820000D01*
X35471398Y9819029D01*
G37*
%TD.AperFunction*%
%TD*%
%TA.AperFunction,Conductor*%
%TO.N,+5V*%
G36*
X23706215Y18330259D02*
G01*
X23713373Y18324881D01*
X23715000Y18318929D01*
X23715000Y17829072D01*
X23711573Y17820799D01*
X23706214Y17817741D01*
X22916160Y17614585D01*
X22907294Y17615843D01*
X22902445Y17621419D01*
X22819760Y17820000D01*
X22715871Y18069505D01*
X22715855Y18078456D01*
X22902445Y18526583D01*
X22908789Y18532903D01*
X22916158Y18533416D01*
X23706215Y18330259D01*
G37*
%TD.AperFunction*%
%TD*%
%TA.AperFunction,Conductor*%
%TO.N,+5V*%
G36*
X34470509Y13882127D02*
G01*
X35277140Y13825759D01*
X35285154Y13821763D01*
X35288024Y13814113D01*
X35288994Y13377354D01*
X35288094Y13372828D01*
X35121123Y12972052D01*
X35114778Y12965733D01*
X35105823Y12965752D01*
X35104072Y12966662D01*
X34463460Y13371556D01*
X34458297Y13378873D01*
X34458011Y13381446D01*
X34458011Y13870454D01*
X34461438Y13878727D01*
X34469711Y13882154D01*
X34470509Y13882127D01*
G37*
%TD.AperFunction*%
%TD*%
%TA.AperFunction,Conductor*%
%TO.N,/I2C_SCL_5V*%
G36*
X44217495Y13265134D02*
G01*
X44621419Y13081502D01*
X44828801Y12987222D01*
X44834914Y12980678D01*
X44834779Y12972119D01*
X44688563Y12616805D01*
X44682245Y12610458D01*
X44682195Y12610437D01*
X44326881Y12464221D01*
X44317927Y12464242D01*
X44311778Y12470199D01*
X44248023Y12610437D01*
X44033866Y13081504D01*
X44033563Y13090451D01*
X44036243Y13094615D01*
X44204384Y13262756D01*
X44212656Y13266182D01*
X44217495Y13265134D01*
G37*
%TD.AperFunction*%
%TD*%
%TA.AperFunction,Conductor*%
%TO.N,/I2C_SCL_5V*%
G36*
X20950826Y20249395D02*
G01*
X21702206Y20107797D01*
X21709700Y20102897D01*
X21711738Y20096299D01*
X21711738Y19858657D01*
X21708311Y19850384D01*
X21706017Y19848600D01*
X21101662Y19489338D01*
X21092799Y19488056D01*
X21085626Y19493416D01*
X21084884Y19494893D01*
X20936905Y19849829D01*
X20936005Y19854352D01*
X20936964Y20237927D01*
X20940412Y20246190D01*
X20948693Y20249596D01*
X20950826Y20249395D01*
G37*
%TD.AperFunction*%
%TD*%
%TA.AperFunction,Conductor*%
%TO.N,/I2C_SDA_5V*%
G36*
X42947495Y13265134D02*
G01*
X43351419Y13081502D01*
X43558801Y12987222D01*
X43564914Y12980678D01*
X43564779Y12972119D01*
X43418563Y12616805D01*
X43412245Y12610458D01*
X43412195Y12610437D01*
X43056881Y12464221D01*
X43047927Y12464242D01*
X43041778Y12470199D01*
X42978023Y12610437D01*
X42763866Y13081504D01*
X42763563Y13090451D01*
X42766243Y13094615D01*
X42934384Y13262756D01*
X42942656Y13266182D01*
X42947495Y13265134D01*
G37*
%TD.AperFunction*%
%TD*%
%TA.AperFunction,Conductor*%
%TO.N,/I2C_SDA_5V*%
G36*
X26555407Y19219847D02*
G01*
X26561951Y19213734D01*
X26563000Y19208892D01*
X26563000Y18971109D01*
X26559573Y18962836D01*
X26555407Y18960154D01*
X25926637Y18724409D01*
X25917688Y18724713D01*
X25911731Y18730862D01*
X25763875Y19085501D01*
X25763855Y19094450D01*
X25911732Y19449141D01*
X25918078Y19455457D01*
X25926635Y19455592D01*
X26555407Y19219847D01*
G37*
%TD.AperFunction*%
%TD*%
%TA.AperFunction,Conductor*%
%TO.N,Net-(U4-FB)*%
G36*
X19564130Y9651215D02*
G01*
X19570448Y9644871D01*
X19570504Y9636101D01*
X19288930Y8926385D01*
X19282694Y8919959D01*
X19278055Y8919000D01*
X19039945Y8919000D01*
X19031672Y8922427D01*
X19029070Y8926385D01*
X18747495Y9636103D01*
X18747629Y9645055D01*
X18753867Y9651214D01*
X19154501Y9818127D01*
X19163452Y9818145D01*
X19564130Y9651215D01*
G37*
%TD.AperFunction*%
%TD*%
%TA.AperFunction,Conductor*%
%TO.N,Net-(U4-FB)*%
G36*
X19915441Y3599759D02*
G01*
X19918868Y3591486D01*
X19918706Y3589546D01*
X19814637Y2970736D01*
X19809886Y2963145D01*
X19803128Y2960976D01*
X19417875Y2960013D01*
X19409594Y2963419D01*
X19409558Y2963454D01*
X19402302Y2970736D01*
X19140192Y3233772D01*
X19136781Y3242051D01*
X19140222Y3250318D01*
X19141967Y3251749D01*
X19664046Y3601210D01*
X19670554Y3603186D01*
X19907168Y3603186D01*
X19915441Y3599759D01*
G37*
%TD.AperFunction*%
%TD*%
%TA.AperFunction,Conductor*%
%TO.N,/UART_TX_3.3V*%
G36*
X16768640Y14005679D02*
G01*
X16773412Y13998102D01*
X16773579Y13996130D01*
X16773579Y13759113D01*
X16772033Y13753300D01*
X16451052Y13192589D01*
X16443968Y13187112D01*
X16436429Y13187589D01*
X15990246Y13372005D01*
X15983909Y13378332D01*
X15983015Y13382838D01*
X15983980Y13865151D01*
X15987423Y13873417D01*
X15993707Y13876660D01*
X16759908Y14007663D01*
X16768640Y14005679D01*
G37*
%TD.AperFunction*%
%TD*%
%TA.AperFunction,Conductor*%
%TO.N,/UART_TX_3.3V*%
G36*
X28680431Y12755503D02*
G01*
X28684019Y12747298D01*
X28684021Y12747091D01*
X28684698Y12363169D01*
X28681286Y12354889D01*
X28681250Y12354854D01*
X28409472Y12084432D01*
X28401191Y12081026D01*
X28392926Y12084474D01*
X28392904Y12084496D01*
X27922694Y12559616D01*
X27919310Y12567907D01*
X27922736Y12576118D01*
X28090779Y12744161D01*
X28098822Y12747585D01*
X28672093Y12758768D01*
X28680431Y12755503D01*
G37*
%TD.AperFunction*%
%TD*%
%TA.AperFunction,Conductor*%
%TO.N,/MOSI_3.3V*%
G36*
X29569375Y13517474D02*
G01*
X29573025Y13509296D01*
X29573029Y13509009D01*
X29573987Y13125876D01*
X29570581Y13117595D01*
X29570546Y13117559D01*
X29298337Y12846309D01*
X29290057Y12842897D01*
X29281899Y12846230D01*
X28874406Y13244559D01*
X28870886Y13252793D01*
X28870885Y13252926D01*
X28870885Y13490613D01*
X28874312Y13498886D01*
X28882266Y13502309D01*
X29561013Y13520676D01*
X29569375Y13517474D01*
G37*
%TD.AperFunction*%
%TD*%
%TA.AperFunction,Conductor*%
%TO.N,/MOSI_3.3V*%
G36*
X5899129Y14086473D02*
G01*
X6689777Y13758992D01*
X6696109Y13752661D01*
X6697000Y13748183D01*
X6697000Y13509818D01*
X6693573Y13501545D01*
X6689777Y13499009D01*
X5899131Y13171529D01*
X5890176Y13171529D01*
X5883853Y13177841D01*
X5750125Y13499009D01*
X5697871Y13624505D01*
X5697855Y13633456D01*
X5883853Y14080161D01*
X5890197Y14086481D01*
X5899129Y14086473D01*
G37*
%TD.AperFunction*%
%TD*%
%TA.AperFunction,Conductor*%
%TO.N,/MISO_3.3V*%
G36*
X29065165Y8837573D02*
G01*
X29067847Y8833407D01*
X29303591Y8204638D01*
X29303287Y8195689D01*
X29297138Y8189732D01*
X28942502Y8041877D01*
X28933548Y8041856D01*
X28933498Y8041877D01*
X28578861Y8189732D01*
X28572543Y8196079D01*
X28572408Y8204636D01*
X28808153Y8833408D01*
X28814266Y8839951D01*
X28819108Y8841000D01*
X29056892Y8841000D01*
X29065165Y8837573D01*
G37*
%TD.AperFunction*%
%TD*%
%TA.AperFunction,Conductor*%
%TO.N,/MISO_3.3V*%
G36*
X11995129Y14086473D02*
G01*
X12785777Y13758992D01*
X12792109Y13752661D01*
X12793000Y13748183D01*
X12793000Y13509818D01*
X12789573Y13501545D01*
X12785777Y13499009D01*
X11995131Y13171529D01*
X11986176Y13171529D01*
X11979853Y13177841D01*
X11846125Y13499009D01*
X11793871Y13624505D01*
X11793855Y13633456D01*
X11979853Y14080161D01*
X11986197Y14086481D01*
X11995129Y14086473D01*
G37*
%TD.AperFunction*%
%TD*%
%TA.AperFunction,Conductor*%
%TO.N,/UART_RX_3.3V*%
G36*
X28301572Y8050311D02*
G01*
X28304797Y8044205D01*
X28446393Y7292832D01*
X28444557Y7284067D01*
X28437062Y7279167D01*
X28434924Y7278965D01*
X28051355Y7278006D01*
X28046824Y7278907D01*
X27691892Y7426885D01*
X27685574Y7433232D01*
X27685595Y7442186D01*
X27686332Y7443656D01*
X28045599Y8048018D01*
X28052772Y8053377D01*
X28055656Y8053738D01*
X28293299Y8053738D01*
X28301572Y8050311D01*
G37*
%TD.AperFunction*%
%TD*%
%TA.AperFunction,Conductor*%
%TO.N,/UART_RX_3.3V*%
G36*
X6319831Y10102380D02*
G01*
X6488379Y9933832D01*
X6491806Y9925559D01*
X6490915Y9921081D01*
X6163409Y9130447D01*
X6157077Y9124116D01*
X6148143Y9124107D01*
X6132756Y9130447D01*
X5700797Y9308437D01*
X5694453Y9314758D01*
X5510106Y9762146D01*
X5510123Y9771098D01*
X5516443Y9777408D01*
X6307080Y10104916D01*
X6316035Y10104916D01*
X6319831Y10102380D01*
G37*
%TD.AperFunction*%
%TD*%
%TA.AperFunction,Conductor*%
%TO.N,/CS_3.3V*%
G36*
X5898473Y17386837D02*
G01*
X5899913Y17386117D01*
X6665981Y16934395D01*
X6671367Y16927241D01*
X6671738Y16924317D01*
X6671738Y16686000D01*
X6668311Y16677727D01*
X6663040Y16674692D01*
X5898217Y16471682D01*
X5889341Y16472871D01*
X5884414Y16478493D01*
X5801457Y16677727D01*
X5697871Y16926505D01*
X5697855Y16935456D01*
X5883176Y17380535D01*
X5889519Y17386854D01*
X5898473Y17386837D01*
G37*
%TD.AperFunction*%
%TD*%
%TA.AperFunction,Conductor*%
%TO.N,/CS_3.3V*%
G36*
X27646429Y16654753D02*
G01*
X27646451Y16654701D01*
X27793833Y16301201D01*
X27793854Y16292247D01*
X27793839Y16292211D01*
X27646598Y15937696D01*
X27640260Y15931370D01*
X27631305Y15931379D01*
X27630876Y15931567D01*
X27097817Y16178455D01*
X27094461Y16180799D01*
X26928614Y16346646D01*
X26925187Y16354919D01*
X26928614Y16363192D01*
X26932330Y16365695D01*
X27631098Y16660977D01*
X27640052Y16661040D01*
X27646429Y16654753D01*
G37*
%TD.AperFunction*%
%TD*%
%TA.AperFunction,Conductor*%
%TO.N,/SCK_3.3V*%
G36*
X11110097Y17879877D02*
G01*
X11116409Y17873554D01*
X11443915Y17082920D01*
X11443915Y17073965D01*
X11441379Y17070169D01*
X11272831Y16901621D01*
X11264558Y16898194D01*
X11260080Y16899085D01*
X10627298Y17161204D01*
X10469445Y17226592D01*
X10463115Y17232923D01*
X10463106Y17241855D01*
X10647437Y17689205D01*
X10653755Y17695546D01*
X11101145Y17879894D01*
X11110097Y17879877D01*
G37*
%TD.AperFunction*%
%TD*%
%TA.AperFunction,Conductor*%
%TO.N,/SCK_3.3V*%
G36*
X28723495Y16948134D02*
G01*
X29127419Y16764502D01*
X29334801Y16670222D01*
X29340914Y16663678D01*
X29340779Y16655119D01*
X29194563Y16299805D01*
X29188245Y16293458D01*
X29188195Y16293437D01*
X28832881Y16147221D01*
X28823927Y16147242D01*
X28817778Y16153199D01*
X28754023Y16293437D01*
X28539866Y16764504D01*
X28539563Y16773451D01*
X28542243Y16777615D01*
X28710384Y16945756D01*
X28718656Y16949182D01*
X28723495Y16948134D01*
G37*
%TD.AperFunction*%
%TD*%
M02*
