M48
; DRILL file {KiCad 7.0.9-7.0.9~ubuntu22.04.1} date 28.02.2025 (пт) 15:02:54
; FORMAT={-:-/ absolute / metric / decimal}
; #@! TF.CreationDate,2025-02-28T15:02:54+02:00
; #@! TF.GenerationSoftware,Kicad,Pcbnew,7.0.9-7.0.9~ubuntu22.04.1
; #@! TF.FileFunction,Plated,1,2,PTH
FMAT,2
METRIC
; #@! TA.AperFunction,Plated,PTH,ViaDrill
T1C0.400
; #@! TA.AperFunction,Plated,PTH,ViaDrill
T2C0.500
; #@! TA.AperFunction,Plated,PTH,ViaDrill
T3C0.600
%
G90
G05
T1
X7.602Y15.407
X14.333Y10.962
X19.413Y2.961
X20.937Y19.852
X22.715Y16.931
X25.763Y19.09
X27.414Y9.819
X27.414Y8.168
X27.795Y16.296
X28.049Y7.279
X28.684Y12.359
X28.938Y8.041
X29.192Y16.296
X29.573Y13.121
X43.416Y12.613
X44.686Y12.613
T2
X19.159Y9.819
X27.795Y15.153
X31.732Y15.28
X32.494Y12.613
X33.891Y9.819
X35.034Y9.819
X35.288Y13.375
X36.177Y9.819
X36.685Y13.375
X37.32Y9.819
T3
X1.633Y4.993
X2.141Y20.995
X2.776Y4.993
X4.935Y1.945
X5.697Y16.931
X5.697Y13.629
X5.697Y9.311
X5.824Y18.709
X9.634Y1.945
X9.761Y20.995
X10.65Y17.693
X11.793Y13.629
X15.984Y13.375
X17.762Y6.771
X18.27Y22.011
X18.778Y6.009
X18.778Y1.437
X18.905Y4.739
X19.667Y11.343
X20.937Y11.343
X21.445Y3.977
X22.715Y18.074
X23.096Y3.977
X27.16Y3.723
X27.16Y2.453
X27.414Y1.183
X30.322Y6.657
X30.716Y13.248
X31.605Y1.183
X31.732Y22.011
X40.114Y20.995
X40.622Y1.945
X41.206Y5.069
X42.4Y5.069
X43.67Y19.09
X46.464Y4.993
X47.607Y4.993
X47.734Y2.072
X47.861Y20.995
T0
M30
