%TF.GenerationSoftware,KiCad,Pcbnew,7.0.9-7.0.9~ubuntu22.04.1*%
%TF.CreationDate,2025-02-28T15:02:42+02:00*%
%TF.ProjectId,UEXT-3TO5V_Rev_A,55455854-2d33-4544-9f35-565f5265765f,A*%
%TF.SameCoordinates,PX68e7780PY76bb820*%
%TF.FileFunction,Soldermask,Top*%
%TF.FilePolarity,Negative*%
%FSLAX46Y46*%
G04 Gerber Fmt 4.6, Leading zero omitted, Abs format (unit mm)*
G04 Created by KiCad (PCBNEW 7.0.9-7.0.9~ubuntu22.04.1) date 2025-02-28 15:02:42*
%MOMM*%
%LPD*%
G01*
G04 APERTURE LIST*
G04 Aperture macros list*
%AMRoundRect*
0 Rectangle with rounded corners*
0 $1 Rounding radius*
0 $2 $3 $4 $5 $6 $7 $8 $9 X,Y pos of 4 corners*
0 Add a 4 corners polygon primitive as box body*
4,1,4,$2,$3,$4,$5,$6,$7,$8,$9,$2,$3,0*
0 Add four circle primitives for the rounded corners*
1,1,$1+$1,$2,$3*
1,1,$1+$1,$4,$5*
1,1,$1+$1,$6,$7*
1,1,$1+$1,$8,$9*
0 Add four rect primitives between the rounded corners*
20,1,$1+$1,$2,$3,$4,$5,0*
20,1,$1+$1,$4,$5,$6,$7,0*
20,1,$1+$1,$6,$7,$8,$9,0*
20,1,$1+$1,$8,$9,$2,$3,0*%
G04 Aperture macros list end*
%ADD10C,1.254000*%
%ADD11RoundRect,0.050800X0.250000X0.275000X-0.250000X0.275000X-0.250000X-0.275000X0.250000X-0.275000X0*%
%ADD12RoundRect,0.050800X-0.250000X-0.275000X0.250000X-0.275000X0.250000X0.275000X-0.250000X0.275000X0*%
%ADD13C,1.301600*%
%ADD14RoundRect,0.050800X2.125000X0.500000X-2.125000X0.500000X-2.125000X-0.500000X2.125000X-0.500000X0*%
%ADD15RoundRect,0.050800X0.508000X0.508000X-0.508000X0.508000X-0.508000X-0.508000X0.508000X-0.508000X0*%
%ADD16RoundRect,0.050800X-0.275000X0.250000X-0.275000X-0.250000X0.275000X-0.250000X0.275000X0.250000X0*%
%ADD17RoundRect,0.050800X0.275000X-0.250000X0.275000X0.250000X-0.275000X0.250000X-0.275000X-0.250000X0*%
%ADD18RoundRect,0.050800X0.500000X-0.125000X0.500000X0.125000X-0.500000X0.125000X-0.500000X-0.125000X0*%
%ADD19RoundRect,0.050800X0.600000X-0.275000X0.600000X0.275000X-0.600000X0.275000X-0.600000X-0.275000X0*%
%ADD20RoundRect,0.050800X1.000000X0.850000X-1.000000X0.850000X-1.000000X-0.850000X1.000000X-0.850000X0*%
%ADD21RoundRect,0.050800X-0.500000X0.700000X-0.500000X-0.700000X0.500000X-0.700000X0.500000X0.700000X0*%
%ADD22C,3.401601*%
%ADD23RoundRect,0.050800X2.250000X0.875000X-2.250000X0.875000X-2.250000X-0.875000X2.250000X-0.875000X0*%
%ADD24RoundRect,0.050800X-0.508000X0.508000X-0.508000X-0.508000X0.508000X-0.508000X0.508000X0.508000X0*%
%ADD25RoundRect,0.050800X-0.500000X0.125000X-0.500000X-0.125000X0.500000X-0.125000X0.500000X0.125000X0*%
G04 APERTURE END LIST*
D10*
%TO.C,FID4*%
X12174000Y1691000D03*
%TD*%
D11*
%TO.C,C6*%
X35288000Y14137000D03*
D12*
X36304000Y14137000D03*
%TD*%
D13*
%TO.C,UEXT_3V3*%
X6000000Y7690000D03*
X6000000Y15310000D03*
D14*
X9125000Y6420000D03*
X2875000Y6420000D03*
X9125000Y8960000D03*
X2875000Y8960000D03*
X9125000Y11500000D03*
X2875000Y11500000D03*
X9125000Y14040000D03*
X2875000Y14040000D03*
X9125000Y16580000D03*
X2875000Y16580000D03*
%TD*%
D15*
%TO.C,C10*%
X26017000Y2072000D03*
X24239000Y2072000D03*
%TD*%
D11*
%TO.C,R6*%
X20048000Y2326000D03*
D12*
X21064000Y2326000D03*
%TD*%
D16*
%TO.C,R3*%
X21953000Y18963000D03*
D17*
X21953000Y19979000D03*
%TD*%
D18*
%TO.C,U3*%
X33486000Y14276000D03*
X33486000Y14776000D03*
X33486000Y15276000D03*
X33486000Y15776000D03*
X30486000Y15776000D03*
X30486000Y15276000D03*
X30486000Y14776000D03*
X30486000Y14276000D03*
%TD*%
D19*
%TO.C,U4*%
X20459100Y8107000D03*
X20459100Y9057000D03*
X20459100Y10007000D03*
X17858900Y10007000D03*
X17858900Y9057000D03*
X17858900Y8107000D03*
%TD*%
D10*
%TO.C,FID3*%
X37828000Y1691000D03*
%TD*%
D20*
%TO.C,D1*%
X26358000Y5882000D03*
X21358000Y5882000D03*
%TD*%
D12*
%TO.C,R5*%
X21064000Y1437000D03*
D11*
X20048000Y1437000D03*
%TD*%
%TO.C,C4*%
X35288000Y8930000D03*
D12*
X36304000Y8930000D03*
%TD*%
%TO.C,R2*%
X25382000Y14137000D03*
D11*
X24366000Y14137000D03*
%TD*%
D12*
%TO.C,C5*%
X28684000Y14137000D03*
D11*
X27668000Y14137000D03*
%TD*%
%TO.C,C2*%
X35288000Y10708000D03*
D12*
X36304000Y10708000D03*
%TD*%
D10*
%TO.C,FID2*%
X37701000Y21376000D03*
%TD*%
D21*
%TO.C,FET1*%
X19606040Y16077560D03*
X21508500Y16077560D03*
X20553460Y18287360D03*
%TD*%
D15*
%TO.C,C9*%
X26017000Y3596000D03*
X24239000Y3596000D03*
%TD*%
D22*
%TO.C,MH1*%
X15000000Y19500000D03*
%TD*%
%TO.C,MH2*%
X15000000Y3500000D03*
%TD*%
%TO.C,MH3*%
X35000000Y3500000D03*
%TD*%
D18*
%TO.C,U1*%
X33486000Y10847000D03*
X33486000Y11347000D03*
X33486000Y11847000D03*
X33486000Y12347000D03*
X30486000Y12347000D03*
X30486000Y11847000D03*
X30486000Y11347000D03*
X30486000Y10847000D03*
%TD*%
D16*
%TO.C,R4*%
X23477000Y18963000D03*
D17*
X23477000Y19979000D03*
%TD*%
D11*
%TO.C,R1*%
X20048000Y14137000D03*
D12*
X21064000Y14137000D03*
%TD*%
D21*
%TO.C,FET2*%
X23924040Y16077560D03*
X25826500Y16077560D03*
X24871460Y18287360D03*
%TD*%
D23*
%TO.C,L1*%
X24239000Y8727000D03*
X24239000Y11927000D03*
%TD*%
D24*
%TO.C,C8*%
X15857000Y9565000D03*
X15857000Y7787000D03*
%TD*%
D25*
%TO.C,U2*%
X30486000Y8791000D03*
X30486000Y8291000D03*
X30486000Y7791000D03*
X30486000Y7291000D03*
X33486000Y7291000D03*
X33486000Y7791000D03*
X33486000Y8291000D03*
X33486000Y8791000D03*
%TD*%
D13*
%TO.C,UEXT_5V0*%
X44000000Y7690000D03*
X44000000Y15310000D03*
D14*
X47125000Y6420000D03*
X40875000Y6420000D03*
X47125000Y8960000D03*
X40875000Y8960000D03*
X47125000Y11500000D03*
X40875000Y11500000D03*
X47125000Y14040000D03*
X40875000Y14040000D03*
X47125000Y16580000D03*
X40875000Y16580000D03*
%TD*%
D22*
%TO.C,MH4*%
X35000000Y19500000D03*
%TD*%
D12*
%TO.C,C1*%
X28684000Y10708000D03*
D11*
X27668000Y10708000D03*
%TD*%
D12*
%TO.C,C3*%
X28684000Y8930000D03*
D11*
X27668000Y8930000D03*
%TD*%
D10*
%TO.C,FID1*%
X12174000Y21376000D03*
%TD*%
D24*
%TO.C,C7*%
X14333000Y9565000D03*
X14333000Y7787000D03*
%TD*%
M02*
